<?xml version="1.0" encoding="utf-8" standalone="no"?>
<!DOCTYPE svg PUBLIC "-//W3C//DTD SVG 1.1//EN"
  "http://www.w3.org/Graphics/SVG/1.1/DTD/svg11.dtd">
<svg xmlns:xlink="http://www.w3.org/1999/xlink" width="617.678966pt" height="385.452813pt" viewBox="0 0 617.678966 385.452813" xmlns="http://www.w3.org/2000/svg" version="1.1">
 <metadata>
  <rdf:RDF xmlns:dc="http://purl.org/dc/elements/1.1/" xmlns:cc="http://creativecommons.org/ns#" xmlns:rdf="http://www.w3.org/1999/02/22-rdf-syntax-ns#">
   <cc:Work>
    <dc:type rdf:resource="http://purl.org/dc/dcmitype/StillImage"/>
    <dc:date>2024-08-06T15:04:13.279094</dc:date>
    <dc:format>image/svg+xml</dc:format>
    <dc:creator>
     <cc:Agent>
      <dc:title>Matplotlib v3.8.3, https://matplotlib.org/</dc:title>
     </cc:Agent>
    </dc:creator>
   </cc:Work>
  </rdf:RDF>
 </metadata>
 <defs>
  <style type="text/css">*{stroke-linejoin: round; stroke-linecap: butt}</style>
 </defs>
 <g id="figure_1">
  <g id="patch_1">
   <path d="M 0 385.452813 
L 617.678966 385.452813 
L 617.678966 0 
L 0 0 
z
" style="fill: #ffffff"/>
  </g>
  <g id="axes_1">
   <g id="patch_2">
    <path d="M 160.283625 378.252813 
L 606.683625 378.252813 
L 606.683625 45.612813 
L 160.283625 45.612813 
z
" style="fill: #ffffff"/>
   </g>
   <g id="patch_3">
    <path d="M 267.80648 364.392813 
L 328.489572 364.392813 
L 328.489572 350.532813 
L 267.80648 350.532813 
z
" clip-path="url(#p971f1e2ba9)" style="fill: #d3d3d3"/>
   </g>
   <g id="patch_4">
    <path d="M 267.80648 308.952813 
L 392.965358 308.952813 
L 392.965358 295.092813 
L 267.80648 295.092813 
z
" clip-path="url(#p971f1e2ba9)" style="fill: #d3d3d3"/>
   </g>
   <g id="patch_5">
    <path d="M 267.80648 253.512813 
L 180.574534 253.512813 
L 180.574534 239.652813 
L 267.80648 239.652813 
z
" clip-path="url(#p971f1e2ba9)" style="fill: #d3d3d3"/>
   </g>
   <g id="patch_6">
    <path d="M 267.80648 198.072813 
L 336.074959 198.072813 
L 336.074959 184.212813 
L 267.80648 184.212813 
z
" clip-path="url(#p971f1e2ba9)" style="fill: #d3d3d3"/>
   </g>
   <g id="patch_7">
    <path d="M 267.80648 142.632813 
L 499.16077 142.632813 
L 499.16077 128.772813 
L 267.80648 128.772813 
z
" clip-path="url(#p971f1e2ba9)" style="fill: #d3d3d3"/>
   </g>
   <g id="patch_8">
    <path d="M 267.80648 87.192813 
L 434.684984 87.192813 
L 434.684984 73.332813 
L 267.80648 73.332813 
z
" clip-path="url(#p971f1e2ba9)" style="fill: #d3d3d3"/>
   </g>
   <g id="patch_9">
    <path d="M 267.80648 350.532813 
L 343.660345 350.532813 
L 343.660345 336.672813 
L 267.80648 336.672813 
z
" clip-path="url(#p971f1e2ba9)" style="fill: #2f6969"/>
   </g>
   <g id="patch_10">
    <path d="M 267.80648 295.092813 
L 351.245732 295.092813 
L 351.245732 281.232813 
L 267.80648 281.232813 
z
" clip-path="url(#p971f1e2ba9)" style="fill: #2f6969"/>
   </g>
   <g id="patch_11">
    <path d="M 267.80648 239.652813 
L 362.623812 239.652813 
L 362.623812 225.792813 
L 267.80648 225.792813 
z
" clip-path="url(#p971f1e2ba9)" style="fill: #2f6969"/>
   </g>
   <g id="patch_12">
    <path d="M 267.80648 184.212813 
L 385.379972 184.212813 
L 385.379972 170.352813 
L 267.80648 170.352813 
z
" clip-path="url(#p971f1e2ba9)" style="fill: #2f6969"/>
   </g>
   <g id="patch_13">
    <path d="M 267.80648 128.772813 
L 529.502317 128.772813 
L 529.502317 114.912813 
L 267.80648 114.912813 
z
" clip-path="url(#p971f1e2ba9)" style="fill: #2f6969"/>
   </g>
   <g id="patch_14">
    <path d="M 267.80648 73.332812 
L 586.392716 73.332812 
L 586.392716 59.472812 
L 267.80648 59.472812 
z
" clip-path="url(#p971f1e2ba9)" style="fill: #2f6969"/>
   </g>
   <g id="matplotlib.axis_1"/>
   <g id="matplotlib.axis_2">
    <g id="ytick_1">
     <g id="line2d_1">
      <defs>
       <path id="mb3a4415a72" d="M 0 0 
L -3.5 0 
"/>
      </defs>
      <g>
       <use xlink:href="#mb3a4415a72" x="160.283625" y="350.532813"/>
      </g>
     </g>
     <g id="text_1">
      <!-- Exports -->
      <g transform="translate(10.435625 354.762813) scale(0.12 -0.12)">
       <defs>
        <path id="EBGaramond-Regular-45" d="M 422 -32 
Q 339 -32 288 -16 
Q 237 0 237 38 
Q 237 115 448 154 
Q 691 198 806 300 
Q 922 403 922 634 
L 922 3514 
Q 922 3744 829 3840 
Q 736 3936 493 3981 
Q 384 4000 333 4032 
Q 282 4064 282 4109 
Q 282 4147 333 4163 
Q 384 4179 467 4179 
Q 710 4179 880 4172 
Q 1050 4166 1213 4163 
Q 1376 4160 1600 4160 
Q 1811 4160 2044 4163 
Q 2278 4166 2477 4166 
Q 2694 4173 2844 4176 
Q 2995 4179 3021 4179 
Q 3053 4179 3091 4166 
Q 3130 4154 3136 4122 
Q 3168 3942 3200 3766 
Q 3232 3590 3232 3462 
Q 3232 3405 3203 3385 
Q 3174 3366 3142 3366 
Q 3110 3366 3097 3382 
Q 3085 3398 3072 3430 
Q 3040 3539 3008 3638 
Q 2976 3738 2931 3782 
Q 2842 3885 2733 3920 
Q 2624 3955 2502 3955 
L 1664 3955 
Q 1613 3955 1523 3897 
Q 1434 3840 1434 3750 
L 1434 2394 
Q 1434 2336 1469 2294 
Q 1504 2253 1549 2253 
L 2182 2253 
Q 2368 2253 2438 2320 
Q 2509 2387 2554 2566 
Q 2592 2707 2669 2707 
Q 2694 2707 2723 2681 
Q 2752 2656 2752 2605 
Q 2752 2579 2749 2489 
Q 2746 2400 2739 2304 
Q 2733 2208 2733 2157 
Q 2733 2093 2736 1987 
Q 2739 1882 2742 1786 
Q 2746 1690 2746 1664 
Q 2746 1619 2736 1587 
Q 2726 1555 2688 1555 
Q 2592 1555 2541 1760 
Q 2502 1907 2438 1977 
Q 2374 2048 2246 2048 
L 1651 2048 
Q 1542 2048 1488 2019 
Q 1434 1990 1434 1882 
L 1434 653 
Q 1434 410 1536 317 
Q 1638 224 1856 224 
L 2330 224 
Q 2534 224 2672 246 
Q 2810 269 2912 333 
Q 3014 403 3094 518 
Q 3174 634 3277 826 
Q 3296 864 3321 889 
Q 3347 915 3379 909 
Q 3411 902 3430 880 
Q 3450 858 3450 819 
Q 3450 762 3418 618 
Q 3386 474 3338 320 
Q 3290 166 3251 77 
Q 3232 32 3216 0 
Q 3200 -32 3162 -32 
Q 2854 -32 2592 -25 
Q 2330 -19 2093 -12 
Q 1856 -6 1629 0 
Q 1402 6 1158 6 
Q 1018 6 915 -3 
Q 813 -13 704 -22 
Q 595 -32 422 -32 
z
" transform="scale(0.015625)"/>
        <path id="EBGaramond-Regular-78" d="M 192 -26 
Q 154 -26 109 -16 
Q 64 -6 64 32 
Q 64 83 112 108 
Q 160 134 211 147 
Q 307 179 406 252 
Q 506 326 640 512 
L 1133 1197 
Q 1178 1248 1174 1277 
Q 1171 1306 1146 1344 
L 621 2144 
Q 544 2272 483 2329 
Q 422 2387 326 2413 
Q 275 2426 227 2451 
Q 179 2477 179 2528 
Q 179 2579 240 2582 
Q 301 2586 326 2586 
Q 454 2586 502 2579 
Q 550 2573 614 2566 
Q 678 2560 832 2560 
Q 947 2560 998 2566 
Q 1050 2573 1158 2573 
Q 1184 2573 1245 2569 
Q 1306 2566 1306 2515 
Q 1306 2477 1270 2457 
Q 1235 2438 1190 2426 
Q 1146 2413 1101 2390 
Q 1056 2368 1056 2317 
Q 1056 2285 1078 2230 
Q 1101 2176 1139 2112 
L 1434 1670 
Q 1459 1626 1491 1670 
L 1818 2163 
Q 1843 2195 1856 2233 
Q 1869 2272 1869 2304 
Q 1869 2381 1786 2406 
Q 1734 2426 1686 2451 
Q 1638 2477 1638 2522 
Q 1638 2573 1699 2576 
Q 1760 2579 1786 2579 
Q 1837 2579 1933 2569 
Q 2029 2560 2106 2560 
Q 2285 2560 2355 2576 
Q 2426 2592 2509 2592 
Q 2547 2592 2592 2582 
Q 2637 2573 2637 2534 
Q 2637 2490 2589 2464 
Q 2541 2438 2490 2419 
Q 2394 2394 2259 2320 
Q 2125 2246 2035 2118 
L 1632 1510 
Q 1626 1498 1622 1475 
Q 1619 1453 1638 1427 
L 2259 416 
Q 2336 294 2406 236 
Q 2477 179 2573 147 
Q 2624 134 2672 108 
Q 2720 83 2720 32 
Q 2720 -6 2675 -16 
Q 2630 -26 2592 -26 
Q 2464 -26 2406 -19 
Q 2349 -13 2281 -6 
Q 2214 0 2054 0 
Q 1939 0 1817 -6 
Q 1696 -13 1587 -13 
Q 1440 -13 1440 51 
Q 1440 109 1481 134 
Q 1523 160 1600 179 
Q 1670 198 1724 233 
Q 1779 269 1779 333 
Q 1779 358 1769 387 
Q 1760 416 1741 448 
L 1363 1062 
Q 1344 1082 1325 1062 
L 902 429 
Q 896 416 883 381 
Q 870 346 870 307 
Q 870 262 892 220 
Q 915 179 960 166 
Q 1011 147 1059 124 
Q 1107 102 1107 51 
Q 1107 6 1046 0 
Q 986 -6 960 -6 
Q 909 -6 803 0 
Q 698 6 621 6 
Q 442 6 362 -10 
Q 282 -26 192 -26 
z
" transform="scale(0.015625)"/>
        <path id="EBGaramond-Regular-70" d="M 256 -1824 
Q 224 -1824 173 -1814 
Q 122 -1805 122 -1766 
Q 122 -1715 170 -1692 
Q 218 -1670 269 -1651 
Q 365 -1619 454 -1577 
Q 544 -1536 544 -1408 
L 544 1837 
Q 544 1888 515 1990 
Q 486 2093 422 2189 
Q 358 2285 250 2304 
Q 224 2310 211 2336 
Q 198 2362 198 2387 
Q 198 2419 211 2438 
Q 224 2458 243 2464 
Q 486 2522 659 2589 
Q 832 2656 986 2720 
Q 992 2720 992 2723 
Q 992 2726 998 2726 
Q 1011 2726 1024 2707 
Q 1037 2688 1037 2669 
Q 1037 2611 1021 2486 
Q 1005 2362 1005 2285 
Q 1005 2234 1011 2227 
Q 1075 2291 1244 2390 
Q 1414 2490 1632 2570 
Q 1850 2650 2048 2650 
Q 2381 2650 2614 2474 
Q 2848 2298 2973 2019 
Q 3098 1741 3098 1440 
Q 3098 1152 2989 880 
Q 2880 608 2681 390 
Q 2483 173 2220 41 
Q 1958 -90 1658 -90 
Q 1568 -90 1443 -61 
Q 1318 -32 1200 13 
Q 1082 58 1018 115 
Q 1011 115 1004 41 
Q 998 -32 995 -112 
Q 992 -192 992 -211 
L 992 -1408 
Q 992 -1491 1059 -1539 
Q 1126 -1587 1212 -1609 
Q 1299 -1632 1363 -1651 
Q 1414 -1670 1462 -1692 
Q 1510 -1715 1510 -1766 
Q 1510 -1805 1459 -1814 
Q 1408 -1824 1370 -1824 
Q 1184 -1824 1059 -1808 
Q 934 -1792 768 -1792 
Q 659 -1792 592 -1798 
Q 525 -1805 454 -1814 
Q 384 -1824 256 -1824 
z
M 1754 109 
Q 1850 109 1987 166 
Q 2125 224 2262 352 
Q 2400 480 2493 697 
Q 2586 915 2586 1235 
Q 2586 1606 2490 1830 
Q 2394 2054 2253 2169 
Q 2112 2285 1965 2323 
Q 1818 2362 1715 2362 
Q 1562 2362 1398 2298 
Q 1235 2234 1123 2154 
Q 1011 2074 1011 2029 
Q 1011 1888 1008 1744 
Q 1005 1600 1001 1465 
Q 998 1331 995 1225 
Q 992 1120 992 1062 
Q 992 806 1110 588 
Q 1229 371 1405 240 
Q 1581 109 1754 109 
z
" transform="scale(0.015625)"/>
        <path id="EBGaramond-Regular-6f" d="M 1498 -90 
Q 1139 -90 851 76 
Q 563 243 393 534 
Q 224 826 224 1197 
Q 224 1466 329 1722 
Q 435 1978 627 2189 
Q 819 2400 1075 2525 
Q 1331 2650 1626 2650 
Q 1997 2650 2294 2470 
Q 2592 2291 2768 2000 
Q 2944 1709 2944 1363 
Q 2944 992 2781 659 
Q 2618 326 2298 118 
Q 1978 -90 1498 -90 
z
M 1632 102 
Q 1850 102 2022 185 
Q 2195 269 2291 454 
Q 2368 602 2393 813 
Q 2419 1024 2419 1210 
Q 2419 1517 2307 1801 
Q 2195 2086 1993 2268 
Q 1792 2451 1517 2451 
Q 1344 2451 1206 2396 
Q 1069 2342 954 2195 
Q 826 2035 787 1804 
Q 749 1574 749 1344 
Q 749 1030 864 745 
Q 979 461 1177 281 
Q 1376 102 1632 102 
z
" transform="scale(0.015625)"/>
        <path id="EBGaramond-Regular-72" d="M 314 -19 
Q 250 -19 218 -3 
Q 186 13 186 51 
Q 186 102 224 118 
Q 262 134 333 154 
Q 454 186 515 246 
Q 576 307 576 397 
L 576 1773 
Q 576 1946 525 2074 
Q 474 2202 314 2234 
Q 288 2240 269 2265 
Q 250 2291 250 2317 
Q 250 2381 307 2394 
Q 474 2445 656 2544 
Q 838 2643 941 2707 
Q 979 2733 1001 2742 
Q 1024 2752 1037 2752 
Q 1069 2752 1069 2707 
Q 1069 2688 1065 2611 
Q 1062 2534 1059 2432 
Q 1056 2330 1050 2227 
Q 1050 2214 1062 2214 
Q 1165 2342 1289 2438 
Q 1414 2534 1545 2592 
Q 1677 2650 1798 2650 
Q 1933 2650 2019 2592 
Q 2106 2534 2106 2445 
Q 2106 2381 2070 2304 
Q 2035 2227 1977 2169 
Q 1920 2112 1856 2112 
Q 1818 2112 1773 2128 
Q 1728 2144 1677 2170 
Q 1626 2189 1574 2208 
Q 1523 2227 1472 2227 
Q 1318 2227 1174 2118 
Q 1030 2010 1030 1690 
L 1030 397 
Q 1030 314 1120 259 
Q 1210 205 1370 154 
Q 1440 134 1478 115 
Q 1517 96 1517 51 
Q 1517 -19 1389 -19 
Q 1197 -19 1097 -3 
Q 998 13 832 13 
Q 723 13 656 6 
Q 589 0 515 -9 
Q 442 -19 314 -19 
z
" transform="scale(0.015625)"/>
        <path id="EBGaramond-Regular-74" d="M 1210 -90 
Q 896 -90 720 102 
Q 544 294 544 672 
L 544 2157 
Q 544 2208 505 2230 
Q 467 2253 339 2253 
L 301 2253 
Q 269 2253 246 2294 
Q 224 2336 224 2381 
Q 224 2394 243 2419 
Q 262 2445 269 2451 
Q 397 2541 502 2630 
Q 608 2720 694 2806 
Q 781 2893 838 2963 
Q 870 2995 892 3017 
Q 915 3040 947 3040 
Q 979 3040 1008 3027 
Q 1037 3014 1030 2970 
L 998 2682 
Q 992 2611 1030 2585 
Q 1069 2560 1152 2560 
L 1882 2560 
Q 1907 2560 1926 2518 
Q 1946 2477 1946 2419 
Q 1946 2362 1926 2307 
Q 1907 2253 1882 2253 
L 1248 2253 
Q 1088 2253 1040 2227 
Q 992 2202 992 2074 
L 992 813 
Q 992 557 1101 409 
Q 1210 262 1414 262 
Q 1600 262 1702 291 
Q 1805 320 1888 378 
Q 1901 390 1914 390 
Q 1939 390 1948 361 
Q 1958 333 1958 301 
Q 1958 269 1852 173 
Q 1747 77 1577 -6 
Q 1408 -90 1210 -90 
z
" transform="scale(0.015625)"/>
        <path id="EBGaramond-Regular-73" d="M 922 -90 
Q 723 -90 550 -29 
Q 378 32 256 141 
Q 224 211 208 377 
Q 192 544 186 653 
Q 186 710 269 710 
Q 294 710 316 700 
Q 339 691 346 666 
Q 429 352 611 217 
Q 794 83 979 83 
Q 1165 83 1296 208 
Q 1427 333 1427 518 
Q 1427 691 1312 816 
Q 1197 941 909 1120 
Q 691 1254 556 1376 
Q 422 1498 361 1626 
Q 301 1754 301 1914 
Q 301 2118 397 2284 
Q 493 2451 685 2550 
Q 877 2650 1165 2650 
Q 1357 2650 1485 2611 
Q 1613 2573 1677 2528 
Q 1728 2458 1763 2307 
Q 1798 2157 1798 2022 
Q 1798 1978 1734 1978 
Q 1696 1978 1661 1994 
Q 1626 2010 1613 2035 
Q 1530 2246 1405 2358 
Q 1280 2470 1094 2470 
Q 934 2470 809 2374 
Q 685 2278 685 2093 
Q 685 1946 777 1830 
Q 870 1715 1126 1568 
Q 1498 1357 1680 1174 
Q 1862 992 1862 691 
Q 1862 346 1600 128 
Q 1338 -90 922 -90 
z
" transform="scale(0.015625)"/>
       </defs>
       <use xlink:href="#EBGaramond-Regular-45"/>
       <use xlink:href="#EBGaramond-Regular-78" x="56.399994"/>
       <use xlink:href="#EBGaramond-Regular-70" x="99.399979"/>
       <use xlink:href="#EBGaramond-Regular-6f" x="151.299973"/>
       <use xlink:href="#EBGaramond-Regular-72" x="200.799957"/>
       <use xlink:href="#EBGaramond-Regular-74" x="234.199951"/>
       <use xlink:href="#EBGaramond-Regular-73" x="265.599945"/>
      </g>
     </g>
    </g>
    <g id="ytick_2">
     <g id="line2d_2">
      <g>
       <use xlink:href="#mb3a4415a72" x="160.283625" y="295.092813"/>
      </g>
     </g>
     <g id="text_2">
      <!-- Consumer spending, services -->
      <g transform="translate(10.435625 299.317188) scale(0.12 -0.12)">
       <defs>
        <path id="EBGaramond-Regular-43" d="M 2605 -96 
Q 2157 -96 1741 57 
Q 1325 211 998 496 
Q 672 781 483 1181 
Q 294 1581 294 2067 
Q 294 2534 492 2931 
Q 691 3328 1036 3622 
Q 1382 3917 1827 4080 
Q 2272 4243 2765 4243 
Q 3014 4243 3187 4224 
Q 3360 4205 3523 4169 
Q 3686 4134 3904 4077 
Q 4000 4051 4041 4000 
Q 4083 3949 4090 3859 
Q 4102 3712 4121 3542 
Q 4141 3373 4147 3123 
Q 4154 3078 4106 3049 
Q 4058 3021 4003 3033 
Q 3949 3046 3930 3117 
Q 3866 3360 3782 3536 
Q 3699 3712 3533 3827 
Q 3373 3936 3145 3990 
Q 2918 4045 2656 4045 
Q 2285 4045 1968 3894 
Q 1651 3744 1424 3485 
Q 1197 3226 1069 2899 
Q 941 2573 941 2221 
Q 941 1830 1065 1452 
Q 1190 1075 1424 771 
Q 1658 467 1981 284 
Q 2304 102 2701 102 
Q 3162 102 3462 313 
Q 3763 525 3974 902 
Q 4019 986 4105 986 
Q 4192 986 4192 883 
Q 4192 832 4166 720 
Q 4141 608 4099 483 
Q 4058 358 4019 262 
Q 3974 173 3945 147 
Q 3917 122 3814 90 
Q 3578 -6 3248 -51 
Q 2918 -96 2605 -96 
z
" transform="scale(0.015625)"/>
        <path id="EBGaramond-Regular-6e" d="M 282 -19 
Q 224 -19 189 -3 
Q 154 13 154 51 
Q 154 102 192 118 
Q 230 134 301 154 
Q 397 179 486 224 
Q 576 269 576 397 
L 576 1773 
Q 576 1946 541 2067 
Q 506 2189 339 2234 
Q 314 2246 294 2262 
Q 275 2278 275 2317 
Q 275 2387 333 2394 
Q 557 2451 697 2534 
Q 838 2618 973 2720 
Q 992 2733 1008 2742 
Q 1024 2752 1043 2752 
Q 1056 2752 1065 2739 
Q 1075 2726 1075 2707 
Q 1075 2662 1059 2524 
Q 1043 2387 1043 2298 
Q 1043 2272 1046 2249 
Q 1050 2227 1056 2221 
Q 1280 2432 1533 2541 
Q 1786 2650 2086 2650 
Q 2400 2650 2605 2394 
Q 2810 2138 2810 1760 
L 2810 397 
Q 2810 269 2899 227 
Q 2989 186 3085 154 
Q 3136 134 3184 112 
Q 3232 90 3232 38 
Q 3232 0 3187 -9 
Q 3142 -19 3104 -19 
Q 2976 -19 2905 -9 
Q 2835 0 2771 6 
Q 2707 13 2592 13 
Q 2483 13 2412 6 
Q 2342 0 2268 -9 
Q 2195 -19 2067 -19 
Q 2035 -19 1987 -9 
Q 1939 0 1939 38 
Q 1939 90 1987 112 
Q 2035 134 2086 154 
Q 2182 186 2272 227 
Q 2362 269 2362 397 
L 2362 1741 
Q 2362 2022 2205 2179 
Q 2048 2336 1786 2342 
Q 1555 2342 1382 2268 
Q 1210 2195 1075 2086 
Q 1050 2061 1037 2019 
Q 1024 1978 1024 1939 
L 1024 397 
Q 1024 269 1113 224 
Q 1203 179 1299 154 
Q 1446 115 1446 51 
Q 1446 13 1414 -3 
Q 1382 -19 1318 -19 
Q 1190 -19 1116 -9 
Q 1043 0 979 6 
Q 915 13 800 13 
Q 691 13 624 6 
Q 557 0 483 -9 
Q 410 -19 282 -19 
z
" transform="scale(0.015625)"/>
        <path id="EBGaramond-Regular-75" d="M 2342 -122 
Q 2298 -122 2298 -70 
Q 2298 -6 2314 118 
Q 2330 243 2330 326 
Q 2330 339 2330 348 
Q 2330 358 2330 365 
Q 2080 122 1827 16 
Q 1574 -90 1274 -90 
Q 1069 -90 902 -3 
Q 736 83 640 252 
Q 544 422 544 672 
L 544 1971 
Q 544 2112 480 2195 
Q 416 2278 269 2336 
Q 237 2349 211 2368 
Q 186 2387 186 2438 
Q 186 2496 214 2515 
Q 243 2534 282 2541 
Q 499 2554 617 2576 
Q 736 2598 915 2643 
Q 934 2650 944 2650 
Q 954 2650 966 2650 
Q 1037 2650 1030 2560 
Q 1011 2413 1001 2313 
Q 992 2214 992 2067 
L 992 819 
Q 992 666 1069 534 
Q 1146 403 1270 320 
Q 1395 237 1530 237 
Q 1696 237 1821 256 
Q 1946 275 2067 365 
Q 2138 416 2246 531 
Q 2355 646 2355 845 
L 2355 2016 
Q 2355 2150 2275 2217 
Q 2195 2285 2092 2310 
Q 1990 2336 1926 2336 
Q 1869 2336 1830 2358 
Q 1792 2381 1792 2445 
Q 1792 2502 1833 2521 
Q 1875 2541 1926 2541 
Q 2125 2547 2256 2556 
Q 2387 2566 2492 2588 
Q 2598 2611 2714 2643 
Q 2726 2650 2745 2653 
Q 2765 2656 2778 2656 
Q 2861 2656 2861 2586 
Q 2861 2579 2857 2563 
Q 2854 2547 2848 2528 
Q 2842 2509 2832 2419 
Q 2822 2330 2812 2234 
Q 2803 2138 2803 2086 
L 2803 608 
Q 2803 435 2838 361 
Q 2874 288 2918 288 
Q 2970 288 3069 297 
Q 3168 307 3213 307 
Q 3245 307 3277 294 
Q 3309 282 3309 224 
Q 3309 173 3283 157 
Q 3258 141 3219 134 
Q 2970 102 2790 38 
Q 2611 -26 2470 -83 
Q 2451 -90 2412 -106 
Q 2374 -122 2342 -122 
z
" transform="scale(0.015625)"/>
        <path id="EBGaramond-Regular-6d" d="M 282 -19 
Q 230 -19 192 -6 
Q 154 6 154 51 
Q 154 96 195 115 
Q 237 134 301 154 
Q 390 186 483 227 
Q 576 269 576 397 
L 576 1773 
Q 576 1946 537 2077 
Q 499 2208 333 2234 
Q 307 2240 291 2259 
Q 275 2278 275 2317 
Q 275 2381 326 2394 
Q 499 2438 601 2486 
Q 704 2534 784 2595 
Q 864 2656 979 2726 
Q 992 2733 1005 2742 
Q 1018 2752 1037 2752 
Q 1075 2752 1075 2707 
Q 1075 2662 1059 2524 
Q 1043 2387 1043 2298 
Q 1043 2234 1056 2221 
L 1069 2221 
Q 1216 2362 1456 2506 
Q 1696 2650 2067 2650 
Q 2298 2650 2451 2550 
Q 2605 2451 2707 2208 
L 2726 2208 
Q 2931 2394 3193 2522 
Q 3456 2650 3770 2650 
Q 3981 2650 4121 2522 
Q 4262 2394 4336 2189 
Q 4410 1984 4410 1760 
L 4410 397 
Q 4410 269 4499 227 
Q 4589 186 4685 154 
Q 4749 134 4790 115 
Q 4832 96 4832 51 
Q 4832 13 4803 -3 
Q 4774 -19 4704 -19 
Q 4576 -19 4505 -9 
Q 4435 0 4374 6 
Q 4314 13 4198 13 
Q 4090 13 4019 6 
Q 3949 0 3872 -9 
Q 3795 -19 3667 -19 
Q 3610 -19 3574 -3 
Q 3539 13 3539 51 
Q 3539 102 3580 121 
Q 3622 141 3686 154 
Q 3789 179 3875 224 
Q 3962 269 3962 397 
L 3962 1741 
Q 3962 1894 3891 2032 
Q 3821 2170 3705 2259 
Q 3590 2349 3450 2349 
Q 3290 2349 3152 2310 
Q 3014 2272 2893 2176 
Q 2714 2035 2714 1715 
L 2714 397 
Q 2714 269 2810 224 
Q 2906 179 3002 154 
Q 3066 141 3107 118 
Q 3149 96 3149 51 
Q 3149 13 3117 -3 
Q 3085 -19 3021 -19 
Q 2893 -19 2819 -9 
Q 2746 0 2678 6 
Q 2611 13 2496 13 
Q 2387 13 2316 6 
Q 2246 0 2169 -9 
Q 2093 -19 1965 -19 
Q 1914 -19 1875 -3 
Q 1837 13 1837 51 
Q 1837 102 1885 118 
Q 1933 134 1984 154 
Q 2080 186 2173 227 
Q 2266 269 2266 397 
L 2266 1741 
Q 2266 1894 2195 2032 
Q 2125 2170 2009 2259 
Q 1894 2349 1754 2349 
Q 1594 2349 1456 2310 
Q 1318 2272 1197 2176 
Q 1024 2048 1024 1715 
L 1024 397 
Q 1024 269 1113 227 
Q 1203 186 1299 154 
Q 1350 134 1398 118 
Q 1446 102 1446 51 
Q 1446 13 1411 -3 
Q 1376 -19 1318 -19 
Q 1190 -19 1116 -9 
Q 1043 0 979 6 
Q 915 13 800 13 
Q 691 13 624 6 
Q 557 0 483 -9 
Q 410 -19 282 -19 
z
" transform="scale(0.015625)"/>
        <path id="EBGaramond-Regular-65" d="M 1363 -96 
Q 1011 -96 748 77 
Q 486 250 339 566 
Q 192 883 192 1299 
Q 192 1670 361 1974 
Q 531 2278 812 2464 
Q 1094 2650 1427 2650 
Q 1683 2650 1881 2547 
Q 2080 2445 2192 2262 
Q 2304 2080 2304 1843 
Q 2304 1645 2112 1645 
L 762 1645 
Q 672 1645 637 1597 
Q 602 1549 602 1408 
Q 602 1101 736 848 
Q 870 595 1094 444 
Q 1318 294 1587 294 
Q 1779 294 1936 368 
Q 2093 442 2214 582 
Q 2240 614 2253 624 
Q 2266 634 2285 634 
Q 2336 634 2336 570 
Q 2336 448 2221 301 
Q 2125 179 1990 89 
Q 1856 0 1696 -48 
Q 1536 -96 1363 -96 
z
M 774 1843 
L 1357 1843 
Q 1510 1843 1619 1849 
Q 1728 1856 1830 1875 
Q 1862 1882 1872 1917 
Q 1882 1952 1882 2016 
Q 1882 2202 1718 2333 
Q 1555 2464 1331 2464 
Q 1184 2464 1037 2377 
Q 890 2291 794 2163 
Q 698 2035 698 1907 
Q 698 1843 774 1843 
z
" transform="scale(0.015625)"/>
        <path id="EBGaramond-Regular-20" transform="scale(0.015625)"/>
        <path id="EBGaramond-Regular-64" d="M 2285 -122 
Q 2272 -122 2243 -96 
Q 2214 -70 2214 -58 
Q 2214 6 2230 124 
Q 2246 243 2246 326 
L 2246 365 
Q 2150 218 1939 64 
Q 1728 -90 1408 -90 
Q 1043 -90 777 102 
Q 512 294 368 595 
Q 224 896 224 1216 
Q 224 1587 397 1913 
Q 570 2240 893 2445 
Q 1216 2650 1664 2650 
Q 1792 2650 1923 2627 
Q 2054 2605 2125 2579 
Q 2182 2560 2208 2560 
Q 2253 2560 2253 2714 
L 2253 3622 
Q 2253 3885 2169 3974 
Q 2086 4064 1933 4090 
Q 1875 4102 1875 4173 
Q 1875 4230 1926 4250 
Q 2208 4320 2368 4384 
Q 2528 4448 2618 4486 
Q 2643 4499 2665 4502 
Q 2688 4506 2701 4506 
Q 2739 4506 2746 4467 
Q 2746 4429 2736 4336 
Q 2726 4243 2713 4064 
Q 2701 3885 2701 3597 
L 2701 704 
Q 2701 486 2733 387 
Q 2765 288 2835 288 
Q 2867 288 2947 294 
Q 3027 301 3110 307 
Q 3226 314 3226 250 
Q 3226 205 3197 169 
Q 3168 134 3136 134 
Q 2957 109 2784 61 
Q 2611 13 2387 -83 
Q 2336 -109 2320 -115 
Q 2304 -122 2285 -122 
z
M 1638 243 
Q 1805 243 1965 329 
Q 2125 416 2246 557 
L 2253 1709 
Q 2253 1882 2153 2048 
Q 2054 2214 1878 2320 
Q 1702 2426 1466 2426 
Q 1318 2426 1132 2336 
Q 947 2246 812 2019 
Q 678 1792 678 1363 
Q 678 998 787 777 
Q 896 557 1053 441 
Q 1210 326 1373 284 
Q 1536 243 1638 243 
z
" transform="scale(0.015625)"/>
        <path id="EBGaramond-Regular-69" d="M 282 -19 
Q 224 -19 189 -3 
Q 154 13 154 51 
Q 154 102 202 121 
Q 250 141 301 154 
Q 435 186 505 234 
Q 576 282 576 397 
L 576 1786 
Q 576 1958 515 2092 
Q 454 2227 288 2253 
Q 256 2259 240 2278 
Q 224 2298 224 2336 
Q 224 2406 282 2413 
Q 538 2470 704 2569 
Q 870 2669 954 2733 
Q 1011 2778 1043 2778 
Q 1082 2778 1082 2746 
Q 1082 2694 1066 2544 
Q 1050 2394 1037 2211 
Q 1024 2029 1024 1882 
L 1024 397 
Q 1024 288 1097 237 
Q 1171 186 1299 154 
Q 1350 141 1398 121 
Q 1446 102 1446 51 
Q 1446 -19 1318 -19 
Q 1197 -19 1123 -9 
Q 1050 0 982 6 
Q 915 13 800 13 
Q 691 13 620 6 
Q 550 0 480 -9 
Q 410 -19 282 -19 
z
M 792 3302 
Q 658 3302 565 3395 
Q 472 3488 472 3622 
Q 472 3763 565 3856 
Q 658 3949 792 3949 
Q 933 3949 1025 3856 
Q 1118 3763 1118 3622 
Q 1118 3488 1025 3395 
Q 933 3302 792 3302 
z
" transform="scale(0.015625)"/>
        <path id="EBGaramond-Regular-67" d="M 1248 -1856 
Q 704 -1856 387 -1648 
Q 70 -1440 70 -1088 
Q 70 -922 121 -806 
Q 173 -691 282 -608 
Q 371 -531 521 -412 
Q 672 -294 832 -166 
L 1101 -179 
Q 794 -378 672 -557 
Q 550 -736 550 -992 
Q 550 -1248 777 -1424 
Q 1005 -1600 1338 -1600 
Q 1715 -1600 1946 -1427 
Q 2106 -1306 2195 -1110 
Q 2285 -915 2285 -698 
Q 2285 -557 2185 -464 
Q 2086 -371 1875 -313 
Q 1664 -256 1325 -237 
Q 723 -192 489 -77 
Q 256 38 256 282 
Q 256 346 291 400 
Q 326 454 403 518 
Q 550 634 620 688 
Q 691 742 726 780 
Q 762 819 794 877 
L 1011 768 
Q 870 717 774 630 
Q 678 544 678 474 
Q 678 384 774 317 
Q 870 250 1056 211 
Q 1242 173 1510 154 
Q 2099 122 2387 -38 
Q 2675 -198 2675 -493 
Q 2675 -742 2550 -982 
Q 2426 -1222 2221 -1420 
Q 2016 -1619 1763 -1737 
Q 1510 -1856 1248 -1856 
z
M 1325 902 
Q 1568 902 1728 1148 
Q 1888 1395 1888 1760 
Q 1888 1946 1801 2109 
Q 1715 2272 1577 2371 
Q 1440 2470 1280 2470 
Q 1133 2470 1001 2364 
Q 870 2259 790 2092 
Q 710 1926 710 1728 
Q 710 1504 793 1315 
Q 877 1126 1017 1014 
Q 1158 902 1325 902 
z
M 1286 678 
Q 1024 678 787 812 
Q 550 947 400 1168 
Q 250 1389 250 1651 
Q 250 1952 406 2179 
Q 563 2406 819 2534 
Q 1075 2662 1363 2662 
Q 1549 2662 1686 2614 
Q 1824 2566 1958 2528 
Q 2112 2483 2201 2473 
Q 2291 2464 2387 2464 
Q 2464 2464 2579 2473 
Q 2694 2483 2739 2483 
Q 2822 2483 2822 2387 
Q 2822 2330 2758 2266 
Q 2726 2234 2707 2234 
L 2534 2234 
Q 2362 2234 2342 2182 
Q 2336 2157 2326 2109 
Q 2317 2061 2310 2003 
Q 2304 1946 2304 1888 
Q 2304 1562 2163 1286 
Q 2022 1011 1792 844 
Q 1562 678 1286 678 
z
" transform="scale(0.015625)"/>
        <path id="EBGaramond-Regular-2c" d="M 243 -941 
Q 128 -941 128 -870 
Q 128 -845 150 -822 
Q 173 -800 218 -794 
Q 358 -762 499 -685 
Q 640 -608 736 -464 
Q 832 -320 832 -96 
Q 832 -19 761 80 
Q 691 179 582 186 
Q 442 198 362 275 
Q 282 352 282 454 
Q 282 582 387 665 
Q 493 749 634 749 
Q 864 749 1014 573 
Q 1165 397 1165 128 
Q 1165 -115 1069 -310 
Q 973 -506 825 -646 
Q 678 -787 521 -864 
Q 365 -941 243 -941 
z
" transform="scale(0.015625)"/>
        <path id="EBGaramond-Regular-76" d="M 1370 -134 
Q 1344 -134 1305 -35 
Q 1267 64 1254 109 
Q 1210 218 1171 336 
Q 1133 454 1094 557 
Q 954 954 790 1334 
Q 627 1715 474 2106 
Q 429 2221 336 2313 
Q 243 2406 147 2432 
Q 96 2451 64 2470 
Q 32 2490 32 2534 
Q 32 2573 80 2582 
Q 128 2592 160 2592 
Q 288 2592 345 2585 
Q 403 2579 460 2569 
Q 518 2560 627 2560 
Q 742 2560 800 2569 
Q 858 2579 922 2585 
Q 986 2592 1107 2592 
Q 1139 2592 1187 2582 
Q 1235 2573 1235 2534 
Q 1235 2490 1190 2464 
Q 1146 2438 1088 2419 
Q 1024 2394 992 2320 
Q 960 2246 960 2157 
Q 960 2112 966 2067 
Q 973 2022 986 1984 
L 1491 640 
Q 1498 634 1501 634 
Q 1504 634 1510 640 
L 1997 1888 
Q 2022 1952 2035 2025 
Q 2048 2099 2048 2150 
Q 2048 2278 2009 2332 
Q 1971 2387 1882 2419 
Q 1798 2451 1766 2470 
Q 1734 2490 1734 2534 
Q 1734 2573 1776 2582 
Q 1818 2592 1862 2592 
Q 1933 2592 2048 2576 
Q 2163 2560 2330 2560 
Q 2496 2560 2557 2576 
Q 2618 2592 2707 2592 
Q 2758 2592 2796 2582 
Q 2835 2573 2835 2534 
Q 2835 2464 2688 2419 
Q 2592 2394 2477 2272 
Q 2362 2150 2291 1990 
L 1792 787 
Q 1779 762 1740 662 
Q 1702 563 1657 444 
Q 1613 326 1581 240 
Q 1549 154 1549 154 
Q 1549 154 1523 93 
Q 1498 32 1466 -35 
Q 1434 -102 1408 -134 
L 1370 -134 
z
" transform="scale(0.015625)"/>
        <path id="EBGaramond-Regular-63" d="M 1363 -96 
Q 1043 -96 784 67 
Q 525 230 374 515 
Q 224 800 224 1152 
Q 224 1568 406 1907 
Q 589 2246 896 2448 
Q 1203 2650 1574 2650 
Q 1990 2650 2304 2426 
Q 2381 2368 2381 2304 
Q 2381 2253 2336 2189 
Q 2291 2125 2227 2083 
Q 2163 2042 2106 2042 
Q 2074 2042 2042 2064 
Q 2010 2086 1971 2112 
Q 1830 2221 1657 2317 
Q 1485 2413 1370 2413 
Q 1056 2413 861 2121 
Q 666 1830 666 1357 
Q 666 1056 797 813 
Q 928 570 1149 429 
Q 1370 288 1638 288 
Q 1824 288 1958 349 
Q 2093 410 2246 563 
Q 2259 576 2278 585 
Q 2298 595 2310 595 
Q 2381 595 2381 506 
Q 2381 467 2358 419 
Q 2336 371 2285 307 
Q 2182 179 2041 86 
Q 1901 -6 1731 -51 
Q 1562 -96 1363 -96 
z
" transform="scale(0.015625)"/>
       </defs>
       <use xlink:href="#EBGaramond-Regular-43"/>
       <use xlink:href="#EBGaramond-Regular-6f" x="70.999985"/>
       <use xlink:href="#EBGaramond-Regular-6e" x="120.499969"/>
       <use xlink:href="#EBGaramond-Regular-73" x="173.299957"/>
       <use xlink:href="#EBGaramond-Regular-75" x="205.599945"/>
       <use xlink:href="#EBGaramond-Regular-6d" x="258.299942"/>
       <use xlink:href="#EBGaramond-Regular-65" x="336.09993"/>
       <use xlink:href="#EBGaramond-Regular-72" x="375.099915"/>
       <use xlink:href="#EBGaramond-Regular-20" x="408.499908"/>
       <use xlink:href="#EBGaramond-Regular-73" x="428.499893"/>
       <use xlink:href="#EBGaramond-Regular-70" x="460.799881"/>
       <use xlink:href="#EBGaramond-Regular-65" x="512.699875"/>
       <use xlink:href="#EBGaramond-Regular-6e" x="551.69986"/>
       <use xlink:href="#EBGaramond-Regular-64" x="604.499847"/>
       <use xlink:href="#EBGaramond-Regular-69" x="655.099838"/>
       <use xlink:href="#EBGaramond-Regular-6e" x="679.599823"/>
       <use xlink:href="#EBGaramond-Regular-67" x="732.399811"/>
       <use xlink:href="#EBGaramond-Regular-2c" x="775.899796"/>
       <use xlink:href="#EBGaramond-Regular-20" x="798.89978"/>
       <use xlink:href="#EBGaramond-Regular-73" x="818.899765"/>
       <use xlink:href="#EBGaramond-Regular-65" x="851.199753"/>
       <use xlink:href="#EBGaramond-Regular-72" x="890.199738"/>
       <use xlink:href="#EBGaramond-Regular-76" x="923.599731"/>
       <use xlink:href="#EBGaramond-Regular-69" x="967.399719"/>
       <use xlink:href="#EBGaramond-Regular-63" x="991.899704"/>
       <use xlink:href="#EBGaramond-Regular-65" x="1032.599701"/>
       <use xlink:href="#EBGaramond-Regular-73" x="1071.599686"/>
      </g>
     </g>
    </g>
    <g id="ytick_3">
     <g id="line2d_3">
      <g>
       <use xlink:href="#mb3a4415a72" x="160.283625" y="239.652813"/>
      </g>
     </g>
     <g id="text_3">
      <!-- Consumer spending, goods -->
      <g transform="translate(10.435625 243.877188) scale(0.12 -0.12)">
       <use xlink:href="#EBGaramond-Regular-43"/>
       <use xlink:href="#EBGaramond-Regular-6f" x="70.999985"/>
       <use xlink:href="#EBGaramond-Regular-6e" x="120.499969"/>
       <use xlink:href="#EBGaramond-Regular-73" x="173.299957"/>
       <use xlink:href="#EBGaramond-Regular-75" x="205.599945"/>
       <use xlink:href="#EBGaramond-Regular-6d" x="258.299942"/>
       <use xlink:href="#EBGaramond-Regular-65" x="336.09993"/>
       <use xlink:href="#EBGaramond-Regular-72" x="375.099915"/>
       <use xlink:href="#EBGaramond-Regular-20" x="408.499908"/>
       <use xlink:href="#EBGaramond-Regular-73" x="428.499893"/>
       <use xlink:href="#EBGaramond-Regular-70" x="460.799881"/>
       <use xlink:href="#EBGaramond-Regular-65" x="512.699875"/>
       <use xlink:href="#EBGaramond-Regular-6e" x="551.69986"/>
       <use xlink:href="#EBGaramond-Regular-64" x="604.499847"/>
       <use xlink:href="#EBGaramond-Regular-69" x="655.099838"/>
       <use xlink:href="#EBGaramond-Regular-6e" x="679.599823"/>
       <use xlink:href="#EBGaramond-Regular-67" x="732.399811"/>
       <use xlink:href="#EBGaramond-Regular-2c" x="775.899796"/>
       <use xlink:href="#EBGaramond-Regular-20" x="798.89978"/>
       <use xlink:href="#EBGaramond-Regular-67" x="818.899765"/>
       <use xlink:href="#EBGaramond-Regular-6f" x="862.39975"/>
       <use xlink:href="#EBGaramond-Regular-6f" x="911.899734"/>
       <use xlink:href="#EBGaramond-Regular-64" x="961.399719"/>
       <use xlink:href="#EBGaramond-Regular-73" x="1011.99971"/>
      </g>
     </g>
    </g>
    <g id="ytick_4">
     <g id="line2d_4">
      <g>
       <use xlink:href="#mb3a4415a72" x="160.283625" y="184.212813"/>
      </g>
     </g>
     <g id="text_4">
      <!-- Government spending and investment -->
      <g transform="translate(10.435625 188.437188) scale(0.12 -0.12)">
       <defs>
        <path id="EBGaramond-Regular-47" d="M 2509 -90 
Q 2067 -90 1667 67 
Q 1267 224 956 505 
Q 646 787 467 1168 
Q 288 1549 288 1990 
Q 288 2464 473 2873 
Q 659 3283 985 3590 
Q 1312 3898 1737 4070 
Q 2163 4243 2643 4243 
Q 2752 4243 2941 4220 
Q 3130 4198 3331 4166 
Q 3533 4134 3696 4099 
Q 3859 4064 3923 4032 
Q 3955 4019 3964 4003 
Q 3974 3987 3981 3955 
Q 4006 3770 4025 3587 
Q 4045 3405 4045 3277 
Q 4045 3232 4016 3190 
Q 3987 3149 3949 3149 
Q 3885 3149 3853 3206 
Q 3821 3264 3802 3322 
Q 3763 3424 3721 3497 
Q 3680 3571 3603 3661 
Q 3565 3712 3440 3792 
Q 3315 3872 3104 3936 
Q 2893 4000 2586 4000 
Q 2214 4000 1907 3843 
Q 1600 3686 1379 3414 
Q 1158 3142 1040 2796 
Q 922 2451 922 2074 
Q 922 1619 1062 1260 
Q 1203 902 1440 652 
Q 1677 403 1977 275 
Q 2278 147 2598 147 
Q 2970 147 3146 236 
Q 3322 326 3379 384 
Q 3450 454 3510 582 
Q 3571 710 3571 877 
Q 3571 934 3574 998 
Q 3578 1062 3581 1126 
Q 3584 1190 3584 1248 
Q 3584 1318 3577 1366 
Q 3571 1414 3552 1440 
Q 3501 1510 3373 1555 
Q 3245 1600 3117 1619 
Q 2989 1638 2925 1638 
Q 2899 1638 2848 1670 
Q 2797 1702 2797 1747 
Q 2797 1798 2848 1827 
Q 2899 1856 2925 1856 
Q 3085 1856 3200 1849 
Q 3315 1843 3436 1836 
Q 3558 1830 3731 1830 
Q 3898 1830 4013 1843 
Q 4128 1856 4301 1856 
Q 4326 1856 4380 1837 
Q 4435 1818 4435 1754 
Q 4435 1709 4380 1677 
Q 4326 1645 4301 1638 
Q 4160 1600 4105 1526 
Q 4051 1453 4032 1325 
Q 4013 1184 4006 1075 
Q 4000 966 4000 845 
L 4000 672 
Q 4000 640 4013 621 
Q 4026 602 4038 570 
Q 4058 538 4090 512 
Q 4122 486 4122 461 
Q 4122 435 4112 393 
Q 4102 352 4032 339 
Q 3987 333 3856 265 
Q 3725 198 3526 115 
Q 3328 32 3072 -29 
Q 2816 -90 2509 -90 
z
" transform="scale(0.015625)"/>
        <path id="EBGaramond-Regular-61" d="M 749 -90 
Q 634 -90 515 0 
Q 397 90 317 218 
Q 237 346 237 461 
Q 237 666 345 781 
Q 454 896 691 992 
L 1344 1261 
Q 1472 1312 1494 1350 
Q 1517 1389 1523 1517 
L 1536 1926 
Q 1542 2093 1443 2214 
Q 1344 2336 1158 2336 
Q 1062 2336 966 2304 
Q 870 2272 806 2221 
Q 768 2195 755 2144 
Q 742 2093 742 2035 
Q 742 2010 745 1978 
Q 749 1946 749 1920 
Q 749 1888 669 1833 
Q 589 1779 489 1737 
Q 390 1696 326 1696 
Q 294 1696 275 1712 
Q 256 1728 256 1754 
Q 256 1856 323 1974 
Q 390 2093 512 2195 
Q 659 2330 832 2432 
Q 1005 2534 1171 2592 
Q 1338 2650 1466 2650 
Q 1696 2650 1846 2486 
Q 1997 2323 1990 2080 
L 1958 544 
Q 1952 410 2019 326 
Q 2086 243 2189 243 
Q 2349 243 2426 314 
Q 2458 346 2477 346 
Q 2509 346 2528 326 
Q 2547 307 2547 275 
Q 2547 205 2477 134 
Q 2374 32 2256 -29 
Q 2138 -90 2035 -90 
Q 1741 -90 1568 243 
L 1549 243 
Q 1338 70 1146 -10 
Q 954 -90 749 -90 
z
M 1050 218 
Q 1178 218 1267 259 
Q 1357 301 1427 371 
Q 1459 403 1481 457 
Q 1504 512 1510 634 
L 1523 947 
Q 1530 1018 1517 1050 
Q 1504 1082 1466 1082 
Q 1453 1082 1421 1075 
Q 1389 1069 1338 1050 
Q 998 928 867 797 
Q 736 666 736 557 
Q 736 390 835 304 
Q 934 218 1050 218 
z
" transform="scale(0.015625)"/>
       </defs>
       <use xlink:href="#EBGaramond-Regular-47"/>
       <use xlink:href="#EBGaramond-Regular-6f" x="72.899994"/>
       <use xlink:href="#EBGaramond-Regular-76" x="122.399979"/>
       <use xlink:href="#EBGaramond-Regular-65" x="166.199966"/>
       <use xlink:href="#EBGaramond-Regular-72" x="205.199951"/>
       <use xlink:href="#EBGaramond-Regular-6e" x="238.599945"/>
       <use xlink:href="#EBGaramond-Regular-6d" x="291.399933"/>
       <use xlink:href="#EBGaramond-Regular-65" x="369.199921"/>
       <use xlink:href="#EBGaramond-Regular-6e" x="408.199905"/>
       <use xlink:href="#EBGaramond-Regular-74" x="460.999893"/>
       <use xlink:href="#EBGaramond-Regular-20" x="492.399887"/>
       <use xlink:href="#EBGaramond-Regular-73" x="512.399872"/>
       <use xlink:href="#EBGaramond-Regular-70" x="544.69986"/>
       <use xlink:href="#EBGaramond-Regular-65" x="596.599854"/>
       <use xlink:href="#EBGaramond-Regular-6e" x="635.599838"/>
       <use xlink:href="#EBGaramond-Regular-64" x="688.399826"/>
       <use xlink:href="#EBGaramond-Regular-69" x="738.999817"/>
       <use xlink:href="#EBGaramond-Regular-6e" x="763.499802"/>
       <use xlink:href="#EBGaramond-Regular-67" x="816.299789"/>
       <use xlink:href="#EBGaramond-Regular-20" x="859.799774"/>
       <use xlink:href="#EBGaramond-Regular-61" x="879.799759"/>
       <use xlink:href="#EBGaramond-Regular-6e" x="919.699753"/>
       <use xlink:href="#EBGaramond-Regular-64" x="972.499741"/>
       <use xlink:href="#EBGaramond-Regular-20" x="1023.099731"/>
       <use xlink:href="#EBGaramond-Regular-69" x="1043.099716"/>
       <use xlink:href="#EBGaramond-Regular-6e" x="1067.599701"/>
       <use xlink:href="#EBGaramond-Regular-76" x="1120.399689"/>
       <use xlink:href="#EBGaramond-Regular-65" x="1164.199677"/>
       <use xlink:href="#EBGaramond-Regular-73" x="1203.199661"/>
       <use xlink:href="#EBGaramond-Regular-74" x="1235.499649"/>
       <use xlink:href="#EBGaramond-Regular-6d" x="1266.899643"/>
       <use xlink:href="#EBGaramond-Regular-65" x="1344.699631"/>
       <use xlink:href="#EBGaramond-Regular-6e" x="1383.699615"/>
       <use xlink:href="#EBGaramond-Regular-74" x="1436.499603"/>
      </g>
     </g>
    </g>
    <g id="ytick_5">
     <g id="line2d_5">
      <g>
       <use xlink:href="#mb3a4415a72" x="160.283625" y="128.772813"/>
      </g>
     </g>
     <g id="text_5">
      <!-- Imports -->
      <g transform="translate(10.435625 133.002813) scale(0.12 -0.12)">
       <defs>
        <path id="EBGaramond-Regular-49" d="M 307 -32 
Q 224 -32 173 -16 
Q 122 0 122 38 
Q 122 115 333 154 
Q 576 198 704 300 
Q 832 403 832 627 
L 832 3520 
Q 832 3744 739 3840 
Q 646 3936 403 3981 
Q 192 4019 192 4109 
Q 192 4147 243 4163 
Q 294 4179 378 4179 
Q 550 4179 662 4172 
Q 774 4166 876 4163 
Q 979 4160 1126 4160 
Q 1267 4160 1356 4163 
Q 1446 4166 1548 4172 
Q 1651 4179 1824 4179 
Q 1907 4179 1958 4163 
Q 2010 4147 2010 4109 
Q 2010 4064 1958 4032 
Q 1907 4000 1798 3981 
Q 1562 3936 1453 3840 
Q 1344 3744 1344 3520 
L 1344 627 
Q 1344 403 1478 300 
Q 1613 198 1850 154 
Q 1958 134 2009 108 
Q 2061 83 2061 38 
Q 2061 0 2009 -16 
Q 1958 -32 1875 -32 
Q 1702 -32 1590 -22 
Q 1478 -13 1376 -6 
Q 1274 0 1126 0 
Q 966 0 848 -6 
Q 730 -13 605 -22 
Q 480 -32 307 -32 
z
" transform="scale(0.015625)"/>
       </defs>
       <use xlink:href="#EBGaramond-Regular-49"/>
       <use xlink:href="#EBGaramond-Regular-6d" x="33.999985"/>
       <use xlink:href="#EBGaramond-Regular-70" x="111.799973"/>
       <use xlink:href="#EBGaramond-Regular-6f" x="163.699966"/>
       <use xlink:href="#EBGaramond-Regular-72" x="213.199951"/>
       <use xlink:href="#EBGaramond-Regular-74" x="246.599945"/>
       <use xlink:href="#EBGaramond-Regular-73" x="277.999939"/>
      </g>
     </g>
    </g>
    <g id="ytick_6">
     <g id="line2d_6">
      <g>
       <use xlink:href="#mb3a4415a72" x="160.283625" y="73.332812"/>
      </g>
     </g>
     <g id="text_6">
      <!-- Private investment -->
      <g transform="translate(10.435625 77.562813) scale(0.12 -0.12)">
       <defs>
        <path id="EBGaramond-Regular-50" d="M 339 -32 
Q 256 -32 205 -16 
Q 154 0 154 38 
Q 154 115 365 154 
Q 608 198 720 300 
Q 832 403 832 640 
L 832 3341 
Q 832 3629 758 3782 
Q 685 3936 442 3981 
Q 333 4000 281 4032 
Q 230 4064 230 4109 
Q 230 4147 281 4163 
Q 333 4179 416 4179 
Q 589 4179 675 4179 
Q 762 4179 838 4176 
Q 915 4173 1043 4173 
Q 1171 4173 1302 4182 
Q 1434 4192 1549 4201 
Q 1664 4211 1754 4211 
Q 2483 4211 2928 3910 
Q 3373 3610 3373 3072 
Q 3373 2682 3219 2352 
Q 3066 2022 2749 1824 
Q 2432 1626 1939 1626 
Q 1798 1626 1724 1667 
Q 1651 1709 1651 1747 
Q 1651 1773 1686 1805 
Q 1722 1837 1754 1837 
Q 1786 1837 1853 1830 
Q 1920 1824 2048 1824 
Q 2432 1824 2627 2144 
Q 2822 2464 2822 3027 
Q 2822 3539 2521 3785 
Q 2221 4032 1754 4032 
Q 1574 4032 1459 3971 
Q 1344 3910 1344 3763 
L 1344 710 
Q 1344 480 1440 339 
Q 1536 198 1773 154 
Q 1882 134 1933 108 
Q 1984 83 1984 38 
Q 1984 0 1933 -16 
Q 1882 -32 1798 -32 
Q 1626 -32 1533 -19 
Q 1440 -6 1366 3 
Q 1293 13 1171 13 
Q 1011 13 886 3 
Q 762 -6 637 -19 
Q 512 -32 339 -32 
z
" transform="scale(0.015625)"/>
       </defs>
       <use xlink:href="#EBGaramond-Regular-50"/>
       <use xlink:href="#EBGaramond-Regular-72" x="55.199997"/>
       <use xlink:href="#EBGaramond-Regular-69" x="88.599991"/>
       <use xlink:href="#EBGaramond-Regular-76" x="113.099976"/>
       <use xlink:href="#EBGaramond-Regular-61" x="156.899963"/>
       <use xlink:href="#EBGaramond-Regular-74" x="196.799957"/>
       <use xlink:href="#EBGaramond-Regular-65" x="228.199951"/>
       <use xlink:href="#EBGaramond-Regular-20" x="267.199936"/>
       <use xlink:href="#EBGaramond-Regular-69" x="287.199921"/>
       <use xlink:href="#EBGaramond-Regular-6e" x="311.699905"/>
       <use xlink:href="#EBGaramond-Regular-76" x="364.499893"/>
       <use xlink:href="#EBGaramond-Regular-65" x="408.299881"/>
       <use xlink:href="#EBGaramond-Regular-73" x="447.299866"/>
       <use xlink:href="#EBGaramond-Regular-74" x="479.599854"/>
       <use xlink:href="#EBGaramond-Regular-6d" x="510.999847"/>
       <use xlink:href="#EBGaramond-Regular-65" x="588.799835"/>
       <use xlink:href="#EBGaramond-Regular-6e" x="627.79982"/>
       <use xlink:href="#EBGaramond-Regular-74" x="680.599808"/>
      </g>
     </g>
    </g>
   </g>
   <g id="text_7">
    <!-- 1.6% -->
    <g style="fill: #4f4f4f" transform="translate(328.489572 361.620813) scale(0.12 -0.12)">
     <defs>
      <path id="EBGaramond-Regular-31" d="M 685 -19 
Q 640 -19 614 6 
Q 589 32 589 58 
Q 589 115 685 141 
Q 928 205 1085 259 
Q 1242 314 1315 413 
Q 1389 512 1389 698 
L 1389 3142 
Q 1389 3264 1312 3328 
Q 1235 3392 1113 3417 
Q 992 3443 851 3450 
Q 787 3456 736 3481 
Q 685 3507 685 3558 
Q 685 3603 733 3635 
Q 781 3667 845 3674 
Q 1133 3718 1360 3785 
Q 1587 3853 1805 4070 
Q 1811 4077 1820 4077 
Q 1830 4077 1837 4077 
Q 1869 4077 1894 4061 
Q 1920 4045 1914 4019 
Q 1901 3923 1894 3811 
Q 1888 3699 1888 3565 
L 1888 621 
Q 1888 461 1949 377 
Q 2010 294 2157 246 
Q 2304 198 2566 134 
Q 2605 128 2640 105 
Q 2675 83 2675 51 
Q 2675 -19 2586 -19 
Q 2406 -19 2256 -9 
Q 2106 0 1962 6 
Q 1818 13 1645 13 
Q 1472 13 1318 6 
Q 1165 0 1011 -9 
Q 858 -19 685 -19 
z
" transform="scale(0.015625)"/>
      <path id="EBGaramond-Regular-2e" d="M 736 -90 
Q 595 -90 489 16 
Q 384 122 384 262 
Q 384 410 489 512 
Q 595 614 736 614 
Q 883 614 985 512 
Q 1088 410 1088 262 
Q 1088 122 985 16 
Q 883 -90 736 -90 
z
" transform="scale(0.015625)"/>
      <path id="EBGaramond-Regular-36" d="M 1614 -102 
Q 1288 -102 987 45 
Q 686 192 494 489 
Q 302 787 302 1235 
Q 302 1594 385 1888 
Q 469 2182 597 2409 
Q 725 2637 856 2800 
Q 987 2963 1077 3053 
Q 1237 3219 1486 3424 
Q 1736 3629 2065 3814 
Q 2395 4000 2786 4102 
Q 2843 4115 2878 4096 
Q 2914 4077 2901 4058 
Q 2875 4000 2820 3971 
Q 2766 3942 2734 3930 
Q 2306 3744 1995 3507 
Q 1685 3270 1442 2918 
Q 1339 2765 1198 2499 
Q 1058 2234 955 1907 
Q 853 1581 853 1248 
Q 859 896 1000 649 
Q 1141 403 1349 275 
Q 1557 147 1768 141 
Q 2030 134 2228 323 
Q 2427 512 2427 909 
Q 2427 1107 2353 1276 
Q 2280 1446 2149 1555 
Q 2018 1664 1845 1664 
Q 1678 1664 1560 1645 
Q 1442 1626 1333 1568 
Q 1275 1542 1265 1571 
Q 1256 1600 1288 1638 
Q 1339 1690 1374 1722 
Q 1410 1754 1461 1792 
Q 1531 1843 1720 1923 
Q 1909 2003 2088 2003 
Q 2312 2003 2501 1900 
Q 2690 1798 2808 1622 
Q 2926 1446 2926 1216 
Q 2926 915 2811 672 
Q 2696 429 2504 256 
Q 2312 83 2078 -9 
Q 1845 -102 1614 -102 
z
" transform="scale(0.015625)"/>
      <path id="EBGaramond-Regular-25" d="M 909 1683 
Q 640 1683 461 1852 
Q 282 2022 189 2278 
Q 96 2534 96 2803 
Q 96 3091 208 3350 
Q 320 3610 531 3773 
Q 742 3936 1024 3936 
Q 1286 3936 1462 3779 
Q 1638 3622 1731 3379 
Q 1824 3136 1824 2874 
Q 1824 2586 1718 2310 
Q 1613 2035 1408 1859 
Q 1203 1683 909 1683 
z
M 979 1824 
Q 1190 1824 1289 1977 
Q 1389 2131 1414 2358 
Q 1440 2586 1440 2797 
Q 1440 3014 1408 3238 
Q 1376 3462 1273 3619 
Q 1171 3776 954 3776 
Q 755 3776 652 3632 
Q 550 3488 515 3280 
Q 480 3072 480 2874 
Q 480 2701 496 2518 
Q 512 2336 560 2179 
Q 608 2022 707 1923 
Q 806 1824 979 1824 
z
M 3211 4147 
Q 3256 4218 3317 4237 
Q 3378 4256 3461 4256 
Q 3493 4256 3521 4230 
Q 3550 4205 3550 4173 
Q 3550 4154 3544 4147 
L 741 -301 
Q 702 -365 641 -381 
Q 581 -397 510 -397 
Q 472 -397 437 -371 
Q 402 -346 402 -320 
Q 402 -307 408 -301 
L 3211 4147 
z
M 3149 -109 
Q 2880 -109 2701 60 
Q 2522 230 2429 486 
Q 2336 742 2336 1011 
Q 2336 1299 2448 1558 
Q 2560 1818 2771 1981 
Q 2982 2144 3264 2144 
Q 3526 2144 3702 1987 
Q 3878 1830 3971 1587 
Q 4064 1344 4064 1082 
Q 4064 794 3958 518 
Q 3853 243 3648 67 
Q 3443 -109 3149 -109 
z
M 3219 32 
Q 3430 32 3529 185 
Q 3629 339 3654 566 
Q 3680 794 3680 1005 
Q 3680 1222 3648 1446 
Q 3616 1670 3513 1827 
Q 3411 1984 3194 1984 
Q 2995 1984 2892 1840 
Q 2790 1696 2755 1488 
Q 2720 1280 2720 1082 
Q 2720 909 2736 726 
Q 2752 544 2800 387 
Q 2848 230 2947 131 
Q 3046 32 3219 32 
z
" transform="scale(0.015625)"/>
     </defs>
     <use xlink:href="#EBGaramond-Regular-31"/>
     <use xlink:href="#EBGaramond-Regular-2e" x="47.999985"/>
     <use xlink:href="#EBGaramond-Regular-36" x="70.999969"/>
     <use xlink:href="#EBGaramond-Regular-25" x="118.999954"/>
    </g>
   </g>
   <g id="text_8">
    <!-- 3.3% -->
    <g style="fill: #4f4f4f" transform="translate(392.965358 306.180813) scale(0.12 -0.12)">
     <defs>
      <path id="EBGaramond-Regular-33" d="M 1030 -243 
Q 883 -243 716 -195 
Q 550 -147 435 -83 
Q 320 -19 320 32 
Q 320 77 371 147 
Q 422 218 489 272 
Q 557 326 602 326 
Q 672 326 729 288 
Q 787 250 851 198 
Q 934 128 1043 64 
Q 1152 0 1331 0 
Q 1568 0 1779 121 
Q 1990 243 2128 457 
Q 2266 672 2266 934 
Q 2266 1184 2182 1414 
Q 2099 1645 1936 1795 
Q 1773 1946 1523 1946 
Q 1453 1946 1334 1930 
Q 1216 1914 1107 1850 
Q 1075 1830 1033 1852 
Q 992 1875 998 1907 
Q 1024 1990 1075 2044 
Q 1126 2099 1190 2125 
Q 1248 2150 1376 2224 
Q 1504 2298 1648 2410 
Q 1792 2522 1894 2666 
Q 1997 2810 1997 2982 
Q 1997 3245 1827 3446 
Q 1658 3648 1395 3648 
Q 1146 3648 995 3561 
Q 845 3475 755 3363 
Q 666 3251 621 3164 
Q 576 3078 538 3078 
Q 512 3078 473 3116 
Q 435 3155 435 3200 
Q 435 3283 505 3420 
Q 576 3558 726 3699 
Q 877 3840 1110 3936 
Q 1344 4032 1670 4032 
Q 1882 4032 2070 3939 
Q 2259 3846 2380 3683 
Q 2502 3520 2502 3302 
Q 2502 3149 2438 2982 
Q 2374 2816 2227 2653 
Q 2080 2490 1830 2342 
Q 1811 2336 1811 2320 
Q 1811 2304 1837 2304 
Q 2112 2304 2329 2166 
Q 2547 2029 2678 1801 
Q 2810 1574 2810 1299 
Q 2810 941 2656 656 
Q 2502 371 2246 169 
Q 1990 -32 1673 -137 
Q 1357 -243 1030 -243 
z
" transform="scale(0.015625)"/>
     </defs>
     <use xlink:href="#EBGaramond-Regular-33"/>
     <use xlink:href="#EBGaramond-Regular-2e" x="47.999985"/>
     <use xlink:href="#EBGaramond-Regular-33" x="70.999969"/>
     <use xlink:href="#EBGaramond-Regular-25" x="118.999954"/>
    </g>
   </g>
   <g id="text_9">
    <!-- -2.3% -->
    <g style="fill: #4f4f4f" transform="translate(180.574534 250.740813) scale(0.12 -0.12)">
     <defs>
      <path id="EBGaramond-Regular-2d" d="M 224 1088 
Q 186 1088 186 1126 
Q 186 1235 214 1350 
Q 243 1466 288 1472 
Q 595 1517 902 1558 
Q 1210 1600 1517 1632 
Q 1536 1632 1552 1622 
Q 1568 1613 1568 1594 
Q 1568 1472 1539 1366 
Q 1510 1261 1434 1248 
Q 1146 1203 848 1161 
Q 550 1120 224 1088 
z
" transform="scale(0.015625)"/>
      <path id="EBGaramond-Regular-32" d="M 2683 -19 
Q 2638 -19 2542 -12 
Q 2446 -6 2324 0 
Q 2203 6 2072 12 
Q 1941 19 1819 19 
Q 1698 19 1474 12 
Q 1250 6 1003 3 
Q 757 0 571 -6 
Q 386 -13 334 -13 
Q 309 -13 257 28 
Q 206 70 206 96 
Q 206 128 219 141 
Q 232 154 258 179 
L 1352 1312 
Q 1672 1645 1883 2057 
Q 2094 2470 2094 2893 
Q 2094 3232 1889 3427 
Q 1685 3622 1410 3622 
Q 1147 3622 923 3478 
Q 699 3334 565 3104 
Q 546 3066 517 3040 
Q 488 3014 456 3014 
Q 430 3014 395 3068 
Q 360 3123 360 3206 
Q 360 3283 453 3417 
Q 546 3552 712 3693 
Q 878 3834 1108 3933 
Q 1339 4032 1608 4032 
Q 1928 4032 2158 3897 
Q 2389 3763 2510 3526 
Q 2632 3290 2632 2976 
Q 2632 2803 2571 2604 
Q 2510 2406 2404 2214 
Q 2299 2022 2165 1856 
Q 2082 1754 1918 1584 
Q 1755 1414 1566 1222 
Q 1378 1030 1208 860 
Q 1038 691 929 579 
Q 821 467 821 454 
Q 821 422 910 410 
Q 1019 403 1156 396 
Q 1294 390 1474 390 
Q 1659 390 1844 396 
Q 2030 403 2203 410 
Q 2389 422 2491 441 
Q 2594 461 2664 521 
Q 2734 582 2811 710 
Q 2837 749 2878 803 
Q 2920 858 2971 858 
Q 3003 858 3009 832 
Q 3016 806 3016 781 
Q 3016 749 2981 656 
Q 2946 563 2901 428 
Q 2856 294 2824 134 
Q 2805 32 2760 6 
Q 2715 -19 2683 -19 
z
" transform="scale(0.015625)"/>
     </defs>
     <use xlink:href="#EBGaramond-Regular-2d"/>
     <use xlink:href="#EBGaramond-Regular-32" x="27.399994"/>
     <use xlink:href="#EBGaramond-Regular-2e" x="75.399979"/>
     <use xlink:href="#EBGaramond-Regular-33" x="98.399963"/>
     <use xlink:href="#EBGaramond-Regular-25" x="146.399948"/>
    </g>
   </g>
   <g id="text_10">
    <!-- 1.8% -->
    <g style="fill: #4f4f4f" transform="translate(336.074959 195.300813) scale(0.12 -0.12)">
     <defs>
      <path id="EBGaramond-Regular-38" d="M 1549 -90 
Q 1254 -90 995 35 
Q 736 160 576 384 
Q 416 608 416 902 
Q 416 1184 563 1382 
Q 710 1581 912 1712 
Q 1114 1843 1274 1933 
Q 1318 1958 1305 1971 
Q 1293 1984 1254 2016 
Q 1062 2182 892 2332 
Q 723 2483 617 2672 
Q 512 2861 512 3130 
Q 512 3379 685 3584 
Q 858 3789 1126 3910 
Q 1395 4032 1677 4032 
Q 1933 4032 2166 3926 
Q 2400 3821 2547 3629 
Q 2694 3437 2694 3174 
Q 2694 2944 2579 2800 
Q 2464 2656 2355 2560 
Q 2266 2483 2195 2428 
Q 2125 2374 2016 2291 
Q 1933 2234 1933 2211 
Q 1933 2189 1984 2157 
Q 2227 1990 2412 1830 
Q 2598 1670 2704 1484 
Q 2810 1299 2810 1050 
Q 2810 717 2624 461 
Q 2438 205 2150 57 
Q 1862 -90 1549 -90 
z
M 1638 96 
Q 1920 96 2109 304 
Q 2298 512 2298 794 
Q 2298 992 2186 1171 
Q 2074 1350 1901 1507 
Q 1728 1664 1542 1792 
Q 1504 1824 1475 1840 
Q 1446 1856 1414 1856 
Q 1389 1856 1338 1818 
Q 1133 1651 1030 1481 
Q 928 1312 928 1005 
Q 928 781 1011 573 
Q 1094 365 1254 230 
Q 1414 96 1638 96 
z
M 1843 2291 
Q 2067 2477 2134 2701 
Q 2202 2925 2202 3219 
Q 2202 3488 2064 3683 
Q 1926 3878 1645 3878 
Q 1498 3878 1350 3795 
Q 1203 3712 1104 3571 
Q 1005 3430 1005 3258 
Q 1005 3014 1097 2873 
Q 1190 2733 1360 2614 
Q 1530 2496 1754 2310 
Q 1773 2298 1798 2288 
Q 1824 2278 1843 2291 
z
" transform="scale(0.015625)"/>
     </defs>
     <use xlink:href="#EBGaramond-Regular-31"/>
     <use xlink:href="#EBGaramond-Regular-2e" x="47.999985"/>
     <use xlink:href="#EBGaramond-Regular-38" x="70.999969"/>
     <use xlink:href="#EBGaramond-Regular-25" x="118.999954"/>
    </g>
   </g>
   <g id="text_11">
    <!-- 6.1% -->
    <g style="fill: #4f4f4f" transform="translate(499.16077 139.860813) scale(0.12 -0.12)">
     <use xlink:href="#EBGaramond-Regular-36"/>
     <use xlink:href="#EBGaramond-Regular-2e" x="47.999985"/>
     <use xlink:href="#EBGaramond-Regular-31" x="70.999969"/>
     <use xlink:href="#EBGaramond-Regular-25" x="118.999954"/>
    </g>
   </g>
   <g id="text_12">
    <!-- 4.4% -->
    <g style="fill: #4f4f4f" transform="translate(434.684984 84.420813) scale(0.12 -0.12)">
     <defs>
      <path id="EBGaramond-Regular-34" d="M 1344 -19 
Q 1312 -19 1270 0 
Q 1229 19 1229 64 
Q 1229 96 1267 115 
Q 1306 134 1344 141 
Q 1645 179 1741 268 
Q 1837 358 1837 512 
L 1837 1107 
Q 1837 1139 1792 1152 
Q 1747 1165 1741 1165 
Q 1478 1165 1251 1155 
Q 1024 1146 774 1136 
Q 525 1126 186 1120 
Q 160 1120 141 1142 
Q 122 1165 122 1184 
Q 122 1197 128 1203 
Q 211 1306 249 1347 
Q 288 1389 313 1417 
Q 339 1446 378 1504 
L 2067 3930 
Q 2106 3987 2160 4048 
Q 2214 4109 2259 4109 
L 2394 4109 
Q 2426 4109 2403 4064 
Q 2381 4019 2381 4019 
L 653 1536 
Q 646 1523 640 1500 
Q 634 1478 653 1478 
L 1760 1478 
Q 1786 1478 1811 1494 
Q 1837 1510 1837 1530 
L 1837 2522 
Q 1837 2592 1846 2617 
Q 1856 2643 1894 2662 
Q 1990 2714 2099 2730 
Q 2208 2746 2253 2746 
Q 2323 2746 2336 2643 
Q 2349 2541 2349 2336 
L 2349 1510 
Q 2349 1472 2381 1472 
Q 2451 1466 2515 1466 
Q 2579 1466 2637 1466 
Q 2726 1466 2819 1469 
Q 2912 1472 3014 1478 
Q 3085 1478 3085 1427 
Q 3085 1376 3056 1318 
Q 3027 1261 2995 1222 
Q 2963 1184 2950 1184 
Q 2880 1184 2797 1187 
Q 2714 1190 2637 1190 
Q 2579 1190 2528 1187 
Q 2477 1184 2438 1178 
Q 2413 1171 2384 1158 
Q 2355 1146 2355 1139 
L 2355 538 
Q 2355 352 2441 281 
Q 2528 211 2784 141 
Q 2822 134 2860 108 
Q 2899 83 2899 51 
Q 2899 26 2870 3 
Q 2842 -19 2803 -19 
Q 2624 -19 2518 -9 
Q 2413 0 2323 6 
Q 2234 13 2080 13 
Q 1920 13 1821 6 
Q 1722 0 1619 -9 
Q 1517 -19 1344 -19 
z
" transform="scale(0.015625)"/>
     </defs>
     <use xlink:href="#EBGaramond-Regular-34"/>
     <use xlink:href="#EBGaramond-Regular-2e" x="47.999985"/>
     <use xlink:href="#EBGaramond-Regular-34" x="70.999969"/>
     <use xlink:href="#EBGaramond-Regular-25" x="118.999954"/>
    </g>
   </g>
   <g id="text_13">
    <!-- 2.0% -->
    <g style="fill: #2f6969" transform="translate(343.660345 347.760813) scale(0.12 -0.12)">
     <defs>
      <path id="EBGaramond-Bold-32" d="M 2883 -26 
Q 2845 -26 2694 -22 
Q 2544 -19 2342 -12 
Q 2141 -6 1929 0 
Q 1718 6 1558 6 
Q 1411 6 1235 0 
Q 1059 -6 902 -9 
Q 746 -13 640 -16 
Q 534 -19 515 -19 
Q 496 -19 441 16 
Q 387 51 387 90 
Q 387 141 412 173 
Q 438 205 464 230 
L 1398 1267 
Q 1738 1638 1904 2012 
Q 2070 2387 2070 2829 
Q 2070 3098 1932 3280 
Q 1795 3462 1546 3462 
Q 1322 3462 1123 3334 
Q 925 3206 784 3059 
Q 752 3021 694 2973 
Q 637 2925 579 2925 
Q 528 2925 509 2966 
Q 490 3008 490 3072 
Q 490 3181 595 3337 
Q 701 3494 889 3654 
Q 1078 3814 1324 3923 
Q 1571 4032 1846 4032 
Q 2179 4032 2406 3885 
Q 2634 3738 2755 3494 
Q 2877 3251 2877 2963 
Q 2877 2784 2797 2569 
Q 2717 2355 2601 2160 
Q 2486 1965 2365 1824 
Q 2269 1715 2125 1571 
Q 1981 1427 1827 1280 
Q 1674 1133 1533 1005 
Q 1392 877 1309 793 
Q 1226 710 1226 698 
Q 1226 672 1322 659 
Q 1437 646 1600 640 
Q 1763 634 1898 634 
Q 2045 634 2185 640 
Q 2326 646 2467 659 
Q 2608 672 2713 713 
Q 2819 755 2899 835 
Q 2979 915 3043 1043 
Q 3062 1088 3110 1136 
Q 3158 1184 3222 1184 
Q 3274 1184 3293 1142 
Q 3312 1101 3293 1056 
Q 3235 890 3174 694 
Q 3114 499 3069 342 
Q 3024 186 3018 122 
Q 3011 45 2953 9 
Q 2896 -26 2883 -26 
z
" transform="scale(0.015625)"/>
      <path id="EBGaramond-Bold-2e" d="M 781 -192 
Q 576 -192 422 -41 
Q 269 109 269 320 
Q 269 544 422 697 
Q 576 851 781 851 
Q 1011 851 1161 697 
Q 1312 544 1312 320 
Q 1312 109 1161 -41 
Q 1011 -192 781 -192 
z
" transform="scale(0.015625)"/>
      <path id="EBGaramond-Bold-30" d="M 1670 -90 
Q 1286 -90 1004 89 
Q 723 269 534 566 
Q 346 864 256 1222 
Q 166 1581 166 1933 
Q 166 2298 256 2669 
Q 346 3040 538 3350 
Q 730 3661 1030 3849 
Q 1331 4038 1741 4038 
Q 2125 4038 2409 3859 
Q 2694 3680 2876 3382 
Q 3059 3085 3152 2729 
Q 3245 2374 3245 2029 
Q 3245 1664 3155 1293 
Q 3066 922 2877 608 
Q 2688 294 2390 102 
Q 2093 -90 1670 -90 
z
M 1766 198 
Q 1971 198 2096 438 
Q 2221 678 2278 1068 
Q 2336 1459 2336 1914 
Q 2336 2253 2291 2579 
Q 2246 2906 2156 3171 
Q 2067 3437 1939 3593 
Q 1811 3750 1638 3750 
Q 1434 3750 1312 3510 
Q 1190 3270 1136 2883 
Q 1082 2496 1082 2042 
Q 1082 1702 1123 1376 
Q 1165 1050 1251 784 
Q 1338 518 1466 358 
Q 1594 198 1766 198 
z
" transform="scale(0.015625)"/>
      <path id="EBGaramond-Bold-25" d="M 1069 1683 
Q 806 1683 608 1827 
Q 410 1971 291 2220 
Q 173 2470 173 2790 
Q 173 3136 291 3395 
Q 410 3654 624 3798 
Q 838 3942 1126 3942 
Q 1395 3942 1593 3798 
Q 1792 3654 1904 3408 
Q 2016 3162 2016 2848 
Q 2016 2477 1891 2217 
Q 1766 1958 1552 1820 
Q 1338 1683 1069 1683 
z
M 1120 1888 
Q 1229 1888 1286 2016 
Q 1344 2144 1366 2352 
Q 1389 2560 1389 2784 
Q 1389 3014 1357 3232 
Q 1325 3450 1254 3590 
Q 1184 3731 1069 3731 
Q 966 3731 908 3603 
Q 851 3475 828 3273 
Q 806 3072 806 2848 
Q 806 2675 822 2505 
Q 838 2336 876 2198 
Q 915 2061 972 1974 
Q 1030 1888 1120 1888 
z
M 3405 4109 
Q 3456 4198 3536 4224 
Q 3616 4250 3718 4250 
Q 3770 4250 3802 4214 
Q 3834 4179 3834 4141 
Q 3834 4115 3827 4109 
L 1203 -26 
Q 1165 -102 1085 -124 
Q 1005 -147 915 -147 
Q 864 -147 819 -118 
Q 774 -90 774 -51 
Q 774 -38 781 -26 
L 3405 4109 
z
M 3373 -109 
Q 3110 -109 2912 35 
Q 2714 179 2595 428 
Q 2477 678 2477 998 
Q 2477 1344 2595 1603 
Q 2714 1862 2928 2006 
Q 3142 2150 3430 2150 
Q 3699 2150 3897 2006 
Q 4096 1862 4208 1616 
Q 4320 1370 4320 1056 
Q 4320 685 4195 425 
Q 4070 166 3856 28 
Q 3642 -109 3373 -109 
z
M 3424 96 
Q 3533 96 3590 224 
Q 3648 352 3670 560 
Q 3693 768 3693 992 
Q 3693 1222 3661 1440 
Q 3629 1658 3558 1798 
Q 3488 1939 3373 1939 
Q 3270 1939 3212 1811 
Q 3155 1683 3132 1481 
Q 3110 1280 3110 1056 
Q 3110 883 3126 713 
Q 3142 544 3180 406 
Q 3219 269 3276 182 
Q 3334 96 3424 96 
z
" transform="scale(0.015625)"/>
     </defs>
     <use xlink:href="#EBGaramond-Bold-32"/>
     <use xlink:href="#EBGaramond-Bold-2e" x="52.899994"/>
     <use xlink:href="#EBGaramond-Bold-30" x="77.599991"/>
     <use xlink:href="#EBGaramond-Bold-25" x="130.499985"/>
    </g>
   </g>
   <g id="text_14">
    <!-- 2.2% -->
    <g style="fill: #2f6969" transform="translate(351.245732 292.320813) scale(0.12 -0.12)">
     <use xlink:href="#EBGaramond-Bold-32"/>
     <use xlink:href="#EBGaramond-Bold-2e" x="52.899994"/>
     <use xlink:href="#EBGaramond-Bold-32" x="77.599991"/>
     <use xlink:href="#EBGaramond-Bold-25" x="130.499985"/>
    </g>
   </g>
   <g id="text_15">
    <!-- 2.5% -->
    <g style="fill: #2f6969" transform="translate(362.623812 236.880813) scale(0.12 -0.12)">
     <defs>
      <path id="EBGaramond-Bold-35" d="M 851 -243 
Q 762 -243 653 -227 
Q 544 -211 544 -147 
Q 544 -70 627 -44 
Q 710 -19 806 -6 
Q 1197 32 1491 189 
Q 1786 346 1949 566 
Q 2112 787 2112 1011 
Q 2112 1254 1990 1433 
Q 1869 1613 1603 1757 
Q 1338 1901 902 2029 
Q 704 2099 630 2169 
Q 557 2240 557 2362 
Q 557 2451 595 2614 
Q 634 2778 682 2957 
Q 730 3136 778 3286 
Q 826 3437 832 3488 
Q 870 3642 956 3709 
Q 1043 3776 1146 3802 
Q 1267 3834 1475 3869 
Q 1683 3904 1913 3939 
Q 2144 3974 2329 4000 
Q 2515 4026 2586 4026 
Q 2637 4032 2662 3987 
Q 2688 3942 2682 3891 
Q 2669 3802 2617 3690 
Q 2566 3578 2528 3482 
Q 2483 3354 2374 3274 
Q 2266 3194 2125 3181 
Q 2022 3168 1862 3165 
Q 1702 3162 1542 3152 
Q 1382 3142 1254 3139 
Q 1126 3136 1069 3123 
Q 1024 3117 992 3069 
Q 960 3021 941 2966 
Q 922 2912 922 2880 
Q 922 2848 941 2825 
Q 960 2803 992 2797 
Q 1350 2733 1622 2633 
Q 1894 2534 2125 2419 
Q 2534 2227 2713 1929 
Q 2893 1632 2893 1280 
Q 2893 928 2675 598 
Q 2458 269 2099 70 
Q 1971 0 1769 -73 
Q 1568 -147 1331 -195 
Q 1094 -243 851 -243 
z
" transform="scale(0.015625)"/>
     </defs>
     <use xlink:href="#EBGaramond-Bold-32"/>
     <use xlink:href="#EBGaramond-Bold-2e" x="52.899994"/>
     <use xlink:href="#EBGaramond-Bold-35" x="77.599991"/>
     <use xlink:href="#EBGaramond-Bold-25" x="130.499985"/>
    </g>
   </g>
   <g id="text_16">
    <!-- 3.1% -->
    <g style="fill: #2f6969" transform="translate(385.379972 181.440813) scale(0.12 -0.12)">
     <defs>
      <path id="EBGaramond-Bold-33" d="M 1104 -243 
Q 963 -243 812 -201 
Q 662 -160 560 -86 
Q 458 -13 458 70 
Q 458 147 486 240 
Q 515 333 566 397 
Q 618 461 682 461 
Q 739 461 777 435 
Q 816 410 861 358 
Q 950 262 1072 147 
Q 1194 32 1347 32 
Q 1552 32 1718 144 
Q 1885 256 1984 461 
Q 2083 666 2083 947 
Q 2083 1210 2012 1414 
Q 1942 1619 1801 1734 
Q 1661 1850 1456 1850 
Q 1296 1850 1197 1795 
Q 1098 1741 1040 1715 
Q 995 1690 931 1718 
Q 867 1747 880 1805 
Q 912 1926 989 2009 
Q 1066 2093 1149 2138 
Q 1341 2234 1481 2333 
Q 1622 2432 1718 2541 
Q 1814 2650 1862 2781 
Q 1910 2912 1910 3072 
Q 1910 3277 1769 3427 
Q 1629 3578 1411 3578 
Q 1219 3578 1088 3498 
Q 957 3418 867 3315 
Q 778 3213 723 3136 
Q 669 3059 637 3059 
Q 592 3059 547 3110 
Q 502 3162 502 3213 
Q 502 3270 572 3404 
Q 643 3539 796 3683 
Q 950 3827 1193 3926 
Q 1437 4026 1789 4026 
Q 2045 4026 2256 3930 
Q 2467 3834 2595 3661 
Q 2723 3488 2723 3251 
Q 2723 3104 2636 2918 
Q 2550 2733 2358 2569 
Q 2166 2406 1859 2330 
Q 1840 2323 1840 2307 
Q 1840 2291 1866 2291 
Q 2198 2291 2454 2169 
Q 2710 2048 2860 1827 
Q 3011 1606 3011 1293 
Q 3011 941 2851 659 
Q 2691 378 2422 176 
Q 2154 -26 1814 -134 
Q 1475 -243 1104 -243 
z
" transform="scale(0.015625)"/>
      <path id="EBGaramond-Bold-31" d="M 749 -19 
Q 710 -19 672 6 
Q 634 32 634 70 
Q 634 173 755 205 
Q 934 250 1062 294 
Q 1190 339 1260 419 
Q 1331 499 1331 634 
L 1331 2950 
Q 1331 3104 1251 3184 
Q 1171 3264 1046 3302 
Q 922 3341 781 3360 
Q 730 3373 672 3405 
Q 614 3437 614 3507 
Q 614 3590 675 3625 
Q 736 3661 813 3667 
Q 1190 3699 1491 3788 
Q 1792 3878 2086 4051 
Q 2099 4058 2118 4064 
Q 2138 4070 2157 4070 
Q 2202 4070 2243 4051 
Q 2285 4032 2285 4006 
Q 2285 3923 2269 3817 
Q 2253 3712 2253 3539 
L 2253 627 
Q 2253 506 2329 429 
Q 2406 352 2547 304 
Q 2688 256 2874 205 
Q 2925 186 2957 160 
Q 2989 134 2989 77 
Q 2989 -13 2893 -13 
Q 2746 -13 2544 -6 
Q 2342 0 2147 6 
Q 1952 13 1811 13 
Q 1677 13 1485 6 
Q 1293 0 1094 -9 
Q 896 -19 749 -19 
z
" transform="scale(0.015625)"/>
     </defs>
     <use xlink:href="#EBGaramond-Bold-33"/>
     <use xlink:href="#EBGaramond-Bold-2e" x="52.899994"/>
     <use xlink:href="#EBGaramond-Bold-31" x="77.599991"/>
     <use xlink:href="#EBGaramond-Bold-25" x="130.499985"/>
    </g>
   </g>
   <g id="text_17">
    <!-- 6.9% -->
    <g style="fill: #2f6969" transform="translate(529.502317 126.000813) scale(0.12 -0.12)">
     <defs>
      <path id="EBGaramond-Bold-36" d="M 1781 -90 
Q 1333 -90 1032 76 
Q 731 243 577 540 
Q 424 838 424 1235 
Q 424 1587 504 1875 
Q 584 2163 702 2387 
Q 821 2611 945 2771 
Q 1070 2931 1147 3027 
Q 1294 3206 1540 3395 
Q 1787 3584 2100 3757 
Q 2414 3930 2766 4051 
Q 2869 4090 2965 4090 
Q 3061 4090 3061 4045 
Q 3054 3981 2993 3939 
Q 2933 3898 2830 3846 
Q 2478 3680 2241 3465 
Q 2005 3251 1800 2931 
Q 1710 2778 1588 2525 
Q 1467 2272 1380 1949 
Q 1294 1626 1294 1261 
Q 1294 909 1387 672 
Q 1480 435 1617 313 
Q 1755 192 1902 186 
Q 2094 186 2228 384 
Q 2363 582 2363 960 
Q 2363 1152 2292 1312 
Q 2222 1472 2120 1571 
Q 2018 1670 1902 1670 
Q 1819 1670 1761 1657 
Q 1704 1645 1646 1619 
Q 1531 1562 1502 1629 
Q 1474 1696 1544 1773 
Q 1589 1818 1621 1846 
Q 1653 1875 1691 1907 
Q 1794 1990 1992 2089 
Q 2190 2189 2350 2189 
Q 2594 2189 2798 2067 
Q 3003 1946 3131 1741 
Q 3259 1536 3259 1280 
Q 3259 1024 3153 781 
Q 3048 538 2853 339 
Q 2658 141 2386 25 
Q 2114 -90 1781 -90 
z
" transform="scale(0.015625)"/>
      <path id="EBGaramond-Bold-39" d="M 518 -320 
Q 422 -320 387 -285 
Q 352 -250 352 -218 
Q 352 -147 409 -108 
Q 467 -70 531 -70 
Q 762 -38 1002 99 
Q 1242 237 1462 438 
Q 1683 640 1850 858 
Q 1984 1030 2125 1276 
Q 2266 1523 2368 1830 
Q 2470 2138 2470 2490 
Q 2470 2707 2416 2921 
Q 2362 3136 2266 3312 
Q 2170 3488 2048 3593 
Q 1926 3699 1798 3699 
Q 1645 3699 1536 3619 
Q 1427 3539 1372 3382 
Q 1318 3226 1318 2982 
Q 1318 2790 1385 2611 
Q 1453 2432 1561 2317 
Q 1670 2202 1798 2202 
Q 1888 2202 1952 2221 
Q 2016 2240 2074 2266 
Q 2208 2323 2227 2252 
Q 2246 2182 2182 2106 
Q 2150 2061 2115 2025 
Q 2080 1990 2042 1958 
Q 1997 1914 1897 1856 
Q 1798 1798 1676 1753 
Q 1555 1709 1440 1709 
Q 1197 1709 966 1833 
Q 736 1958 582 2172 
Q 429 2387 429 2669 
Q 429 2874 550 3110 
Q 672 3347 883 3555 
Q 1094 3763 1366 3894 
Q 1638 4026 1946 4026 
Q 2221 4026 2467 3907 
Q 2714 3789 2902 3581 
Q 3091 3373 3200 3110 
Q 3309 2848 3309 2560 
Q 3309 2157 3165 1798 
Q 3021 1440 2803 1142 
Q 2586 845 2362 627 
Q 2208 486 1974 320 
Q 1741 154 1475 10 
Q 1210 -134 957 -227 
Q 704 -320 518 -320 
z
" transform="scale(0.015625)"/>
     </defs>
     <use xlink:href="#EBGaramond-Bold-36"/>
     <use xlink:href="#EBGaramond-Bold-2e" x="52.899994"/>
     <use xlink:href="#EBGaramond-Bold-39" x="77.599991"/>
     <use xlink:href="#EBGaramond-Bold-25" x="130.499985"/>
    </g>
   </g>
   <g id="text_18">
    <!-- 8.4% -->
    <g style="fill: #2f6969" transform="translate(586.392716 70.560812) scale(0.12 -0.12)">
     <defs>
      <path id="EBGaramond-Bold-38" d="M 1693 -83 
Q 1341 -83 1040 45 
Q 739 173 560 397 
Q 381 621 381 915 
Q 381 1171 528 1334 
Q 675 1498 886 1616 
Q 1098 1734 1283 1837 
Q 1341 1869 1325 1891 
Q 1309 1914 1258 1946 
Q 1066 2099 896 2265 
Q 726 2432 617 2633 
Q 509 2835 509 3085 
Q 509 3373 710 3584 
Q 912 3795 1225 3910 
Q 1539 4026 1878 4026 
Q 2173 4026 2445 3914 
Q 2717 3802 2883 3597 
Q 3050 3392 3050 3123 
Q 3050 2874 2931 2717 
Q 2813 2560 2666 2490 
Q 2595 2451 2521 2412 
Q 2448 2374 2384 2336 
Q 2282 2272 2282 2240 
Q 2282 2208 2346 2170 
Q 2582 2016 2771 1865 
Q 2960 1715 3072 1532 
Q 3184 1350 3184 1114 
Q 3184 749 2979 480 
Q 2774 211 2438 64 
Q 2102 -83 1693 -83 
z
M 1808 192 
Q 2038 192 2185 358 
Q 2333 525 2333 762 
Q 2333 934 2227 1097 
Q 2122 1261 1968 1408 
Q 1814 1555 1667 1658 
Q 1635 1690 1612 1706 
Q 1590 1722 1565 1722 
Q 1552 1722 1482 1677 
Q 1347 1549 1292 1382 
Q 1238 1216 1238 960 
Q 1238 768 1308 592 
Q 1379 416 1507 304 
Q 1635 192 1808 192 
z
M 2051 2432 
Q 2154 2541 2195 2739 
Q 2237 2938 2237 3149 
Q 2237 3392 2137 3571 
Q 2038 3750 1795 3750 
Q 1667 3750 1564 3689 
Q 1462 3629 1395 3520 
Q 1328 3411 1328 3264 
Q 1328 3085 1414 2944 
Q 1501 2803 1635 2684 
Q 1770 2566 1923 2445 
Q 1962 2413 1994 2409 
Q 2026 2406 2051 2432 
z
" transform="scale(0.015625)"/>
      <path id="EBGaramond-Bold-34" d="M 1378 -19 
Q 1339 -19 1288 6 
Q 1237 32 1237 77 
Q 1237 141 1281 166 
Q 1326 192 1384 205 
Q 1640 250 1729 330 
Q 1819 410 1819 602 
L 1819 966 
Q 1819 998 1780 1014 
Q 1742 1030 1710 1030 
Q 1512 1030 1256 1017 
Q 1000 1005 734 992 
Q 469 979 232 979 
Q 200 979 168 992 
Q 136 1005 136 1030 
Q 136 1056 168 1101 
Q 213 1158 241 1193 
Q 270 1229 299 1270 
Q 328 1312 360 1357 
L 1941 3885 
Q 1992 3968 2072 4038 
Q 2152 4109 2222 4109 
L 2280 4109 
Q 2331 4109 2340 4061 
Q 2350 4013 2325 3974 
L 821 1587 
Q 795 1536 814 1517 
Q 834 1498 872 1498 
L 1768 1498 
Q 1787 1498 1803 1510 
Q 1819 1523 1819 1542 
L 1819 2310 
Q 1819 2426 1835 2467 
Q 1851 2509 1922 2534 
Q 2094 2618 2292 2643 
Q 2491 2669 2568 2669 
Q 2696 2669 2718 2544 
Q 2741 2419 2741 2176 
L 2741 1504 
Q 2741 1459 2773 1459 
Q 2856 1453 2897 1453 
Q 2939 1453 3003 1453 
Q 3099 1453 3176 1456 
Q 3253 1459 3368 1466 
Q 3445 1466 3445 1421 
Q 3445 1370 3419 1274 
Q 3394 1178 3358 1098 
Q 3323 1018 3298 1018 
Q 3221 1018 3150 1021 
Q 3080 1024 2997 1024 
Q 2933 1024 2904 1021 
Q 2875 1018 2830 1011 
Q 2805 1005 2773 992 
Q 2741 979 2741 973 
L 2741 608 
Q 2741 429 2824 352 
Q 2907 275 3157 205 
Q 3214 186 3262 160 
Q 3310 134 3310 77 
Q 3310 38 3268 12 
Q 3227 -13 3176 -13 
Q 3035 -13 2872 -6 
Q 2709 0 2555 6 
Q 2402 13 2267 13 
Q 2133 13 1982 6 
Q 1832 0 1678 -9 
Q 1525 -19 1378 -19 
z
" transform="scale(0.015625)"/>
     </defs>
     <use xlink:href="#EBGaramond-Bold-38"/>
     <use xlink:href="#EBGaramond-Bold-2e" x="52.899994"/>
     <use xlink:href="#EBGaramond-Bold-34" x="77.599991"/>
     <use xlink:href="#EBGaramond-Bold-25" x="130.499985"/>
    </g>
   </g>
   <g id="text_19">
    <!-- Growth in key components of GDP in 2024Q2 -->
    <g transform="translate(8.507625 20.612813) scale(0.19 -0.19)">
     <defs>
      <path id="EBGaramond-Regular-77" d="M 1446 -147 
Q 1434 -147 1421 -134 
Q 1408 -122 1402 -102 
L 512 2106 
Q 467 2234 371 2314 
Q 275 2394 179 2419 
Q 128 2438 80 2464 
Q 32 2490 32 2534 
Q 32 2573 80 2582 
Q 128 2592 160 2592 
Q 243 2592 316 2585 
Q 390 2579 467 2569 
Q 544 2560 627 2560 
Q 717 2560 806 2569 
Q 896 2579 982 2585 
Q 1069 2592 1158 2592 
Q 1184 2592 1235 2582 
Q 1286 2573 1286 2534 
Q 1286 2490 1238 2464 
Q 1190 2438 1139 2419 
Q 1075 2400 1040 2326 
Q 1005 2253 1005 2163 
Q 1005 2080 1037 1997 
L 1536 710 
Q 1542 685 1568 685 
Q 1594 685 1600 710 
L 2035 1747 
Q 2067 1830 2076 1907 
Q 2086 1984 2086 2054 
Q 2086 2195 1977 2284 
Q 1869 2374 1760 2419 
Q 1709 2438 1661 2464 
Q 1613 2490 1613 2534 
Q 1613 2573 1657 2582 
Q 1702 2592 1741 2592 
Q 1830 2592 1936 2576 
Q 2042 2560 2221 2560 
Q 2400 2560 2528 2576 
Q 2656 2592 2758 2592 
Q 2790 2592 2838 2582 
Q 2886 2573 2886 2534 
Q 2886 2490 2838 2464 
Q 2790 2438 2739 2419 
Q 2669 2394 2595 2349 
Q 2522 2304 2522 2189 
Q 2522 2150 2531 2102 
Q 2541 2054 2566 1997 
L 3046 762 
Q 3078 691 3098 691 
Q 3123 691 3149 755 
L 3635 1888 
Q 3661 1939 3670 2016 
Q 3680 2093 3680 2138 
Q 3680 2253 3603 2323 
Q 3526 2394 3456 2419 
Q 3405 2438 3357 2464 
Q 3309 2490 3309 2534 
Q 3309 2573 3357 2582 
Q 3405 2592 3437 2592 
Q 3578 2592 3661 2576 
Q 3744 2560 3917 2560 
Q 4038 2560 4089 2569 
Q 4141 2579 4179 2585 
Q 4218 2592 4288 2592 
Q 4326 2592 4371 2582 
Q 4416 2573 4416 2534 
Q 4416 2490 4368 2464 
Q 4320 2438 4269 2419 
Q 4173 2394 4083 2269 
Q 3994 2144 3930 1997 
L 3053 -102 
Q 3034 -147 2995 -147 
Q 2970 -147 2944 -102 
L 2278 1549 
Q 2259 1600 2240 1606 
Q 2221 1606 2195 1542 
L 1498 -102 
Q 1478 -147 1446 -147 
z
" transform="scale(0.015625)"/>
      <path id="EBGaramond-Regular-68" d="M 250 -19 
Q 122 -19 122 51 
Q 122 109 269 154 
Q 365 186 451 237 
Q 538 288 544 416 
L 544 3622 
Q 544 3795 486 3926 
Q 429 4058 262 4083 
Q 205 4096 205 4173 
Q 205 4230 256 4250 
Q 346 4282 470 4320 
Q 595 4358 729 4406 
Q 864 4454 966 4499 
Q 992 4512 1005 4512 
Q 1024 4512 1037 4499 
Q 1050 4486 1050 4467 
Q 1050 4429 1034 4358 
Q 1018 4288 1005 4115 
Q 992 3942 992 3597 
L 992 2483 
Q 992 2381 1001 2336 
Q 1011 2291 1037 2246 
Q 1139 2323 1289 2416 
Q 1440 2509 1625 2579 
Q 1811 2650 2010 2650 
Q 2323 2650 2531 2403 
Q 2739 2157 2739 1779 
L 2739 435 
Q 2739 307 2822 246 
Q 2906 186 3002 154 
Q 3072 134 3110 112 
Q 3149 90 3149 51 
Q 3149 -19 3021 -19 
Q 2893 -19 2825 -9 
Q 2758 0 2697 6 
Q 2637 13 2522 13 
Q 2413 13 2349 6 
Q 2285 0 2217 -9 
Q 2150 -19 2022 -19 
Q 1894 -19 1894 51 
Q 1894 96 1932 112 
Q 1971 128 2042 154 
Q 2138 186 2214 246 
Q 2291 307 2291 435 
L 2291 1741 
Q 2291 1901 2198 2032 
Q 2106 2163 1971 2240 
Q 1837 2317 1696 2317 
Q 1574 2317 1414 2281 
Q 1254 2246 1165 2176 
Q 1062 2093 1027 2003 
Q 992 1914 992 1715 
L 992 416 
Q 998 288 1072 237 
Q 1146 186 1242 154 
Q 1312 134 1347 112 
Q 1382 90 1382 51 
Q 1382 -19 1254 -19 
Q 1126 -19 1062 -9 
Q 998 0 940 6 
Q 883 13 768 13 
Q 659 13 592 6 
Q 525 0 451 -9 
Q 378 -19 250 -19 
z
" transform="scale(0.015625)"/>
      <path id="EBGaramond-Regular-6b" d="M 269 -19 
Q 122 -19 122 51 
Q 122 102 170 118 
Q 218 134 269 154 
Q 365 186 454 237 
Q 544 288 544 416 
L 544 3622 
Q 544 3846 480 3948 
Q 416 4051 256 4090 
Q 198 4102 198 4173 
Q 198 4237 250 4250 
Q 416 4288 537 4329 
Q 659 4371 758 4412 
Q 858 4454 954 4493 
Q 992 4512 1011 4512 
Q 1030 4512 1040 4499 
Q 1050 4486 1050 4454 
Q 1050 4390 1021 4198 
Q 992 4006 992 3597 
L 992 1498 
Q 992 1440 1024 1440 
Q 1062 1440 1123 1472 
Q 1184 1504 1254 1568 
Q 1517 1792 1693 1974 
Q 1869 2157 1933 2227 
Q 1965 2266 1977 2288 
Q 1990 2310 1990 2323 
Q 1990 2355 1936 2380 
Q 1882 2406 1824 2419 
Q 1747 2438 1747 2483 
Q 1747 2515 1785 2537 
Q 1824 2560 1888 2560 
L 2202 2560 
Q 2304 2560 2416 2579 
Q 2528 2598 2627 2617 
Q 2726 2637 2784 2637 
Q 2874 2637 2874 2573 
Q 2874 2534 2829 2505 
Q 2784 2477 2714 2458 
Q 2592 2426 2486 2368 
Q 2381 2310 2291 2259 
Q 2253 2234 2115 2122 
Q 1978 2010 1802 1862 
Q 1626 1715 1472 1581 
Q 1434 1542 1434 1517 
Q 1434 1510 1440 1497 
Q 1446 1485 1453 1472 
Q 1619 1267 1811 1056 
Q 2003 845 2166 685 
Q 2330 525 2394 461 
Q 2502 358 2640 278 
Q 2778 198 2874 166 
Q 2944 141 3005 121 
Q 3066 102 3066 51 
Q 3066 -19 2938 -19 
Q 2688 -19 2377 -9 
Q 2067 0 1741 0 
Q 1626 0 1626 58 
Q 1626 96 1658 121 
Q 1690 147 1734 160 
Q 1805 186 1856 218 
Q 1907 250 1907 307 
Q 1907 326 1894 348 
Q 1882 371 1862 397 
L 1088 1274 
Q 1050 1318 1024 1318 
Q 992 1318 992 1274 
Q 986 1184 986 1078 
Q 986 973 986 864 
Q 986 755 986 640 
Q 986 525 992 416 
Q 992 288 1056 237 
Q 1120 186 1216 154 
Q 1267 134 1315 118 
Q 1363 102 1363 51 
Q 1363 6 1302 -6 
Q 1242 -19 1216 -19 
Q 1094 -19 1036 -9 
Q 979 0 931 6 
Q 883 13 768 13 
Q 659 13 595 6 
Q 531 0 464 -9 
Q 397 -19 269 -19 
z
" transform="scale(0.015625)"/>
      <path id="EBGaramond-Regular-79" d="M 410 -1824 
Q 288 -1824 185 -1763 
Q 83 -1702 83 -1562 
Q 83 -1446 137 -1360 
Q 192 -1274 294 -1274 
Q 365 -1274 432 -1293 
Q 499 -1312 550 -1312 
Q 589 -1312 617 -1296 
Q 646 -1280 672 -1242 
Q 742 -1126 835 -953 
Q 928 -781 1027 -563 
Q 1126 -346 1216 -102 
Q 1235 -45 1235 45 
Q 1235 96 1228 144 
Q 1222 192 1210 230 
L 467 2106 
Q 422 2221 348 2307 
Q 275 2394 179 2419 
Q 128 2438 80 2464 
Q 32 2490 32 2534 
Q 32 2573 80 2582 
Q 128 2592 160 2592 
Q 288 2592 349 2585 
Q 410 2579 464 2569 
Q 518 2560 627 2560 
Q 742 2560 800 2569 
Q 858 2579 922 2585 
Q 986 2592 1114 2592 
Q 1152 2592 1197 2576 
Q 1242 2560 1242 2522 
Q 1242 2477 1174 2435 
Q 1107 2394 1056 2381 
Q 992 2362 960 2314 
Q 928 2266 928 2176 
Q 928 2138 947 2083 
Q 966 2029 979 1997 
L 1498 717 
Q 1510 678 1536 678 
Q 1555 678 1568 717 
L 2010 1888 
Q 2029 1933 2045 2006 
Q 2061 2080 2061 2125 
Q 2061 2246 2025 2294 
Q 1990 2342 1933 2368 
Q 1882 2394 1814 2435 
Q 1747 2477 1747 2522 
Q 1747 2560 1795 2576 
Q 1843 2592 1875 2592 
Q 1965 2592 2057 2576 
Q 2150 2560 2330 2560 
Q 2451 2560 2505 2569 
Q 2560 2579 2598 2585 
Q 2637 2592 2707 2592 
Q 2739 2592 2787 2582 
Q 2835 2573 2835 2534 
Q 2835 2490 2787 2464 
Q 2739 2438 2688 2419 
Q 2592 2394 2483 2269 
Q 2374 2144 2310 1990 
L 1440 -83 
Q 1434 -102 1373 -249 
Q 1312 -397 1222 -614 
Q 1133 -832 1027 -1081 
Q 922 -1331 826 -1562 
Q 768 -1690 659 -1757 
Q 550 -1824 410 -1824 
z
" transform="scale(0.015625)"/>
      <path id="EBGaramond-Regular-66" d="M 282 -19 
Q 218 -19 186 -3 
Q 154 13 154 51 
Q 154 102 195 121 
Q 237 141 301 154 
Q 448 186 512 246 
Q 576 307 576 435 
L 576 2240 
Q 512 2240 429 2243 
Q 346 2246 243 2253 
Q 224 2259 189 2297 
Q 154 2336 154 2368 
Q 154 2381 173 2390 
Q 192 2400 198 2406 
Q 314 2464 397 2509 
Q 480 2554 576 2598 
Q 576 3155 713 3526 
Q 851 3898 1068 4115 
Q 1286 4333 1529 4425 
Q 1773 4518 1984 4518 
Q 2342 4518 2515 4409 
Q 2688 4301 2688 4134 
Q 2688 4006 2624 3942 
Q 2560 3878 2470 3878 
Q 2413 3878 2365 3923 
Q 2317 3968 2253 4026 
Q 2170 4109 2048 4182 
Q 1926 4256 1715 4256 
Q 1414 4256 1219 3993 
Q 1024 3731 1024 3187 
L 1024 2624 
Q 1024 2586 1046 2573 
Q 1069 2560 1094 2560 
L 1894 2560 
Q 1926 2560 1952 2541 
Q 1978 2522 1978 2490 
Q 1978 2445 1968 2393 
Q 1958 2342 1939 2304 
Q 1920 2253 1882 2253 
L 1146 2253 
Q 1069 2253 1046 2230 
Q 1024 2208 1024 2170 
L 1024 435 
Q 1024 307 1107 246 
Q 1190 186 1446 154 
Q 1594 134 1594 51 
Q 1594 13 1562 -3 
Q 1530 -19 1466 -19 
Q 1274 -19 1126 -3 
Q 979 13 813 13 
Q 704 13 633 6 
Q 563 0 486 -9 
Q 410 -19 282 -19 
z
" transform="scale(0.015625)"/>
      <path id="EBGaramond-Regular-44" d="M 2374 -45 
Q 2310 -45 2089 -32 
Q 1869 -19 1584 -9 
Q 1299 0 1043 0 
Q 915 0 828 -6 
Q 742 -13 643 -22 
Q 544 -32 371 -32 
Q 288 -32 237 -13 
Q 186 6 186 51 
Q 186 102 237 118 
Q 288 134 397 154 
Q 640 198 733 300 
Q 826 403 826 634 
L 826 3514 
Q 826 3744 733 3840 
Q 640 3936 397 3981 
Q 288 4000 237 4022 
Q 186 4045 186 4096 
Q 186 4141 237 4160 
Q 288 4179 371 4179 
Q 538 4179 637 4176 
Q 736 4173 832 4169 
Q 928 4166 1082 4166 
Q 1184 4166 1341 4172 
Q 1498 4179 1667 4192 
Q 1837 4205 1974 4211 
Q 2112 4218 2176 4218 
Q 2829 4218 3289 4061 
Q 3750 3904 4038 3625 
Q 4326 3347 4464 2979 
Q 4602 2611 4602 2189 
Q 4602 1728 4429 1325 
Q 4256 922 3949 611 
Q 3642 301 3238 128 
Q 2835 -45 2374 -45 
z
M 2298 179 
Q 2797 179 3181 422 
Q 3565 666 3779 1094 
Q 3994 1523 3994 2080 
Q 3994 2541 3840 2902 
Q 3686 3264 3430 3510 
Q 3174 3757 2854 3888 
Q 2534 4019 2208 4019 
Q 1933 4019 1737 4003 
Q 1542 3987 1440 3904 
Q 1338 3821 1338 3629 
L 1338 774 
Q 1338 518 1478 390 
Q 1619 262 1840 220 
Q 2061 179 2298 179 
z
" transform="scale(0.015625)"/>
      <path id="EBGaramond-Regular-30" d="M 1571 -90 
Q 1245 -90 1005 89 
Q 765 269 605 566 
Q 445 864 368 1222 
Q 291 1581 291 1933 
Q 291 2298 368 2669 
Q 445 3040 608 3347 
Q 771 3654 1027 3843 
Q 1283 4032 1635 4032 
Q 1962 4032 2202 3853 
Q 2442 3674 2602 3376 
Q 2762 3078 2838 2723 
Q 2915 2368 2915 2022 
Q 2915 1664 2838 1293 
Q 2762 922 2598 608 
Q 2435 294 2182 102 
Q 1930 -90 1571 -90 
z
M 1680 77 
Q 1936 77 2093 336 
Q 2250 595 2320 1011 
Q 2390 1427 2390 1907 
Q 2390 2266 2336 2611 
Q 2282 2957 2170 3238 
Q 2058 3520 1894 3686 
Q 1731 3853 1514 3853 
Q 1258 3853 1107 3603 
Q 957 3354 889 2941 
Q 822 2528 822 2048 
Q 822 1690 876 1338 
Q 931 986 1036 701 
Q 1142 416 1302 246 
Q 1462 77 1680 77 
z
" transform="scale(0.015625)"/>
      <path id="EBGaramond-Regular-51" d="M 4762 -1587 
Q 4301 -1587 3977 -1456 
Q 3654 -1325 3347 -1107 
Q 3098 -928 2874 -765 
Q 2650 -602 2336 -346 
Q 2112 -160 1923 -80 
Q 1734 0 1600 64 
Q 1338 186 1101 358 
Q 864 531 681 768 
Q 499 1005 393 1315 
Q 288 1626 288 2016 
Q 288 2451 429 2851 
Q 570 3251 845 3564 
Q 1120 3878 1529 4064 
Q 1939 4250 2470 4250 
Q 2893 4250 3277 4099 
Q 3661 3949 3955 3670 
Q 4250 3392 4422 3005 
Q 4595 2618 4595 2144 
Q 4595 1658 4419 1216 
Q 4243 774 3897 448 
Q 3552 122 3040 -13 
Q 2989 -26 2989 -58 
Q 2989 -90 3014 -115 
Q 3200 -314 3395 -483 
Q 3590 -653 3827 -826 
Q 4147 -1056 4425 -1142 
Q 4704 -1229 5075 -1229 
Q 5190 -1229 5289 -1216 
Q 5389 -1203 5434 -1184 
Q 5466 -1171 5498 -1164 
Q 5530 -1158 5555 -1158 
Q 5626 -1158 5626 -1210 
Q 5626 -1267 5603 -1299 
Q 5581 -1331 5510 -1376 
Q 5331 -1485 5136 -1536 
Q 4941 -1587 4762 -1587 
z
M 2509 166 
Q 3245 166 3613 620 
Q 3981 1075 3981 1830 
Q 3981 2272 3878 2662 
Q 3776 3053 3574 3350 
Q 3373 3648 3072 3814 
Q 2771 3981 2368 3981 
Q 1645 3981 1273 3533 
Q 902 3085 902 2336 
Q 902 1888 1001 1497 
Q 1101 1107 1302 806 
Q 1504 506 1805 336 
Q 2106 166 2509 166 
z
" transform="scale(0.015625)"/>
     </defs>
     <use xlink:href="#EBGaramond-Regular-47"/>
     <use xlink:href="#EBGaramond-Regular-72" x="72.899994"/>
     <use xlink:href="#EBGaramond-Regular-6f" x="106.299988"/>
     <use xlink:href="#EBGaramond-Regular-77" x="155.799973"/>
     <use xlink:href="#EBGaramond-Regular-74" x="224.299957"/>
     <use xlink:href="#EBGaramond-Regular-68" x="255.699951"/>
     <use xlink:href="#EBGaramond-Regular-20" x="307.199936"/>
     <use xlink:href="#EBGaramond-Regular-69" x="327.199921"/>
     <use xlink:href="#EBGaramond-Regular-6e" x="351.699905"/>
     <use xlink:href="#EBGaramond-Regular-20" x="404.499893"/>
     <use xlink:href="#EBGaramond-Regular-6b" x="424.499878"/>
     <use xlink:href="#EBGaramond-Regular-65" x="471.399872"/>
     <use xlink:href="#EBGaramond-Regular-79" x="510.399857"/>
     <use xlink:href="#EBGaramond-Regular-20" x="554.199844"/>
     <use xlink:href="#EBGaramond-Regular-63" x="574.199829"/>
     <use xlink:href="#EBGaramond-Regular-6f" x="614.899826"/>
     <use xlink:href="#EBGaramond-Regular-6d" x="664.399811"/>
     <use xlink:href="#EBGaramond-Regular-70" x="742.199799"/>
     <use xlink:href="#EBGaramond-Regular-6f" x="794.099792"/>
     <use xlink:href="#EBGaramond-Regular-6e" x="843.599777"/>
     <use xlink:href="#EBGaramond-Regular-65" x="896.399765"/>
     <use xlink:href="#EBGaramond-Regular-6e" x="935.39975"/>
     <use xlink:href="#EBGaramond-Regular-74" x="988.199738"/>
     <use xlink:href="#EBGaramond-Regular-73" x="1019.599731"/>
     <use xlink:href="#EBGaramond-Regular-20" x="1051.899719"/>
     <use xlink:href="#EBGaramond-Regular-6f" x="1071.899704"/>
     <use xlink:href="#EBGaramond-Regular-66" x="1121.399689"/>
     <use xlink:href="#EBGaramond-Regular-20" x="1153.199677"/>
     <use xlink:href="#EBGaramond-Regular-47" x="1173.199661"/>
     <use xlink:href="#EBGaramond-Regular-44" x="1246.099655"/>
     <use xlink:href="#EBGaramond-Regular-50" x="1321.499649"/>
     <use xlink:href="#EBGaramond-Regular-20" x="1376.699646"/>
     <use xlink:href="#EBGaramond-Regular-69" x="1396.699631"/>
     <use xlink:href="#EBGaramond-Regular-6e" x="1421.199615"/>
     <use xlink:href="#EBGaramond-Regular-20" x="1473.999603"/>
     <use xlink:href="#EBGaramond-Regular-32" x="1493.999588"/>
     <use xlink:href="#EBGaramond-Regular-30" x="1541.999573"/>
     <use xlink:href="#EBGaramond-Regular-32" x="1589.999557"/>
     <use xlink:href="#EBGaramond-Regular-34" x="1637.999542"/>
     <use xlink:href="#EBGaramond-Regular-51" x="1685.999527"/>
     <use xlink:href="#EBGaramond-Regular-32" x="1762.299515"/>
    </g>
   </g>
   <g id="legend_1">
    <g id="patch_15">
     <path d="M 12 44.806413 
L 36 44.806413 
L 36 36.406413 
L 12 36.406413 
z
" style="fill: #d3d3d3"/>
    </g>
    <g id="text_20">
     <!-- 2024Q1 -->
     <g transform="translate(45.6 44.806413) scale(0.12 -0.12)">
      <use xlink:href="#EBGaramond-Regular-32"/>
      <use xlink:href="#EBGaramond-Regular-30" x="47.999985"/>
      <use xlink:href="#EBGaramond-Regular-32" x="95.999969"/>
      <use xlink:href="#EBGaramond-Regular-34" x="143.999954"/>
      <use xlink:href="#EBGaramond-Regular-51" x="191.999939"/>
      <use xlink:href="#EBGaramond-Regular-31" x="268.299927"/>
     </g>
    </g>
    <g id="patch_16">
     <path d="M 107.555625 44.806413 
L 131.555625 44.806413 
L 131.555625 36.406413 
L 107.555625 36.406413 
z
" style="fill: #2f6969"/>
    </g>
    <g id="text_21">
     <!-- 2024Q2 -->
     <g transform="translate(141.155625 44.806413) scale(0.12 -0.12)">
      <use xlink:href="#EBGaramond-Regular-32"/>
      <use xlink:href="#EBGaramond-Regular-30" x="47.999985"/>
      <use xlink:href="#EBGaramond-Regular-32" x="95.999969"/>
      <use xlink:href="#EBGaramond-Regular-34" x="143.999954"/>
      <use xlink:href="#EBGaramond-Regular-51" x="191.999939"/>
      <use xlink:href="#EBGaramond-Regular-32" x="268.299927"/>
     </g>
    </g>
   </g>
  </g>
 </g>
 <defs>
  <clipPath id="p971f1e2ba9">
   <rect x="160.283625" y="45.612813" width="446.4" height="332.64"/>
  </clipPath>
 </defs>
</svg>
