<?xml version="1.0" encoding="utf-8" standalone="no"?>
<!DOCTYPE svg PUBLIC "-//W3C//DTD SVG 1.1//EN"
  "http://www.w3.org/Graphics/SVG/1.1/DTD/svg11.dtd">
<svg xmlns:xlink="http://www.w3.org/1999/xlink" width="518.633pt" height="359.832pt" viewBox="0 0 518.633 359.832" xmlns="http://www.w3.org/2000/svg" version="1.1">
 <metadata>
  <rdf:RDF xmlns:dc="http://purl.org/dc/elements/1.1/" xmlns:cc="http://creativecommons.org/ns#" xmlns:rdf="http://www.w3.org/1999/02/22-rdf-syntax-ns#">
   <cc:Work>
    <dc:type rdf:resource="http://purl.org/dc/dcmitype/StillImage"/>
    <dc:date>2024-08-07T12:53:54.275220</dc:date>
    <dc:format>image/svg+xml</dc:format>
    <dc:creator>
     <cc:Agent>
      <dc:title>Matplotlib v3.8.3, https://matplotlib.org/</dc:title>
     </cc:Agent>
    </dc:creator>
   </cc:Work>
  </rdf:RDF>
 </metadata>
 <defs>
  <style type="text/css">*{stroke-linejoin: round; stroke-linecap: butt}</style>
 </defs>
 <g id="figure_1">
  <g id="patch_1">
   <path d="M 0 359.832 
L 518.633 359.832 
L 518.633 0 
L 0 0 
z
" style="fill: #ffffff"/>
  </g>
  <g id="axes_1">
   <g id="patch_2">
    <path d="M 9.233 315.68 
L 511.433 315.68 
L 511.433 38.48 
L 9.233 38.48 
z
" style="fill: #ffffff"/>
   </g>
   <g id="patch_3">
    <path d="M 14.255 230.036522 
L 54.431 230.036522 
L 54.431 303.08 
L 14.255 303.08 
z
" clip-path="url(#pd61a3d871b)" style="fill: #89a996"/>
   </g>
   <g id="patch_4">
    <path d="M 64.475 230.036522 
L 104.651 230.036522 
L 104.651 251.949565 
L 64.475 251.949565 
z
" clip-path="url(#pd61a3d871b)" style="fill: #89a996"/>
   </g>
   <g id="patch_5">
    <path d="M 164.915 230.036522 
L 205.091 230.036522 
L 205.091 135.08 
L 164.915 135.08 
z
" clip-path="url(#pd61a3d871b)" style="fill: #89a996"/>
   </g>
   <g id="patch_6">
    <path d="M 215.135 230.036522 
L 255.311 230.036522 
L 255.311 149.688696 
L 215.135 149.688696 
z
" clip-path="url(#pd61a3d871b)" style="fill: #89a996"/>
   </g>
   <g id="patch_7">
    <path d="M 265.355 230.036522 
L 305.531 230.036522 
L 305.531 153.34087 
L 265.355 153.34087 
z
" clip-path="url(#pd61a3d871b)" style="fill: #89a996"/>
   </g>
   <g id="patch_8">
    <path d="M 416.015 230.036522 
L 456.191 230.036522 
L 456.191 178.906087 
L 416.015 178.906087 
z
" clip-path="url(#pd61a3d871b)" style="fill: #89a996"/>
   </g>
   <g id="patch_9">
    <path d="M 114.695 230.036522 
L 154.871 230.036522 
L 154.871 131.427826 
L 114.695 131.427826 
z
" clip-path="url(#pd61a3d871b)" style="fill: #093d3e"/>
   </g>
   <g id="patch_10">
    <path d="M 315.575 230.036522 
L 355.751 230.036522 
L 355.751 51.08 
L 315.575 51.08 
z
" clip-path="url(#pd61a3d871b)" style="fill: #093d3e"/>
   </g>
   <g id="patch_11">
    <path d="M 365.795 230.036522 
L 405.971 230.036522 
L 405.971 105.862609 
L 365.795 105.862609 
z
" clip-path="url(#pd61a3d871b)" style="fill: #093d3e"/>
   </g>
   <g id="patch_12">
    <path d="M 466.235 230.036522 
L 506.411 230.036522 
L 506.411 127.775652 
L 466.235 127.775652 
z
" clip-path="url(#pd61a3d871b)" style="fill: #093d3e"/>
   </g>
   <g id="patch_13">
    <path d="M 34.343 230.036522 
L 34.343 230.036522 
L 34.343 230.036522 
L 34.343 230.036522 
z
" clip-path="url(#pd61a3d871b)" style="fill: #89a996"/>
   </g>
   <g id="patch_14">
    <path d="M 34.343 230.036522 
L 34.343 230.036522 
L 34.343 230.036522 
L 34.343 230.036522 
z
" clip-path="url(#pd61a3d871b)" style="fill: #093d3e"/>
   </g>
   <g id="matplotlib.axis_1">
    <g id="xtick_1">
     <g id="line2d_1"/>
     <g id="text_1">
      <!-- Q1 -->
      <g transform="translate(26.885188 335.64) scale(0.12 -0.12)">
       <defs>
        <path id="EBGaramond-Regular-51" d="M 4762 -1587 
Q 4301 -1587 3977 -1456 
Q 3654 -1325 3347 -1107 
Q 3098 -928 2874 -765 
Q 2650 -602 2336 -346 
Q 2112 -160 1923 -80 
Q 1734 0 1600 64 
Q 1338 186 1101 358 
Q 864 531 681 768 
Q 499 1005 393 1315 
Q 288 1626 288 2016 
Q 288 2451 429 2851 
Q 570 3251 845 3564 
Q 1120 3878 1529 4064 
Q 1939 4250 2470 4250 
Q 2893 4250 3277 4099 
Q 3661 3949 3955 3670 
Q 4250 3392 4422 3005 
Q 4595 2618 4595 2144 
Q 4595 1658 4419 1216 
Q 4243 774 3897 448 
Q 3552 122 3040 -13 
Q 2989 -26 2989 -58 
Q 2989 -90 3014 -115 
Q 3200 -314 3395 -483 
Q 3590 -653 3827 -826 
Q 4147 -1056 4425 -1142 
Q 4704 -1229 5075 -1229 
Q 5190 -1229 5289 -1216 
Q 5389 -1203 5434 -1184 
Q 5466 -1171 5498 -1164 
Q 5530 -1158 5555 -1158 
Q 5626 -1158 5626 -1210 
Q 5626 -1267 5603 -1299 
Q 5581 -1331 5510 -1376 
Q 5331 -1485 5136 -1536 
Q 4941 -1587 4762 -1587 
z
M 2509 166 
Q 3245 166 3613 620 
Q 3981 1075 3981 1830 
Q 3981 2272 3878 2662 
Q 3776 3053 3574 3350 
Q 3373 3648 3072 3814 
Q 2771 3981 2368 3981 
Q 1645 3981 1273 3533 
Q 902 3085 902 2336 
Q 902 1888 1001 1497 
Q 1101 1107 1302 806 
Q 1504 506 1805 336 
Q 2106 166 2509 166 
z
" transform="scale(0.015625)"/>
        <path id="EBGaramond-Regular-31" d="M 685 -19 
Q 640 -19 614 6 
Q 589 32 589 58 
Q 589 115 685 141 
Q 928 205 1085 259 
Q 1242 314 1315 413 
Q 1389 512 1389 698 
L 1389 3142 
Q 1389 3264 1312 3328 
Q 1235 3392 1113 3417 
Q 992 3443 851 3450 
Q 787 3456 736 3481 
Q 685 3507 685 3558 
Q 685 3603 733 3635 
Q 781 3667 845 3674 
Q 1133 3718 1360 3785 
Q 1587 3853 1805 4070 
Q 1811 4077 1820 4077 
Q 1830 4077 1837 4077 
Q 1869 4077 1894 4061 
Q 1920 4045 1914 4019 
Q 1901 3923 1894 3811 
Q 1888 3699 1888 3565 
L 1888 621 
Q 1888 461 1949 377 
Q 2010 294 2157 246 
Q 2304 198 2566 134 
Q 2605 128 2640 105 
Q 2675 83 2675 51 
Q 2675 -19 2586 -19 
Q 2406 -19 2256 -9 
Q 2106 0 1962 6 
Q 1818 13 1645 13 
Q 1472 13 1318 6 
Q 1165 0 1011 -9 
Q 858 -19 685 -19 
z
" transform="scale(0.015625)"/>
       </defs>
       <use xlink:href="#EBGaramond-Regular-51"/>
       <use xlink:href="#EBGaramond-Regular-31" x="76.299988"/>
      </g>
      <!-- 2022 -->
      <g transform="translate(22.823 349.212) scale(0.12 -0.12)">
       <defs>
        <path id="EBGaramond-Regular-32" d="M 2683 -19 
Q 2638 -19 2542 -12 
Q 2446 -6 2324 0 
Q 2203 6 2072 12 
Q 1941 19 1819 19 
Q 1698 19 1474 12 
Q 1250 6 1003 3 
Q 757 0 571 -6 
Q 386 -13 334 -13 
Q 309 -13 257 28 
Q 206 70 206 96 
Q 206 128 219 141 
Q 232 154 258 179 
L 1352 1312 
Q 1672 1645 1883 2057 
Q 2094 2470 2094 2893 
Q 2094 3232 1889 3427 
Q 1685 3622 1410 3622 
Q 1147 3622 923 3478 
Q 699 3334 565 3104 
Q 546 3066 517 3040 
Q 488 3014 456 3014 
Q 430 3014 395 3068 
Q 360 3123 360 3206 
Q 360 3283 453 3417 
Q 546 3552 712 3693 
Q 878 3834 1108 3933 
Q 1339 4032 1608 4032 
Q 1928 4032 2158 3897 
Q 2389 3763 2510 3526 
Q 2632 3290 2632 2976 
Q 2632 2803 2571 2604 
Q 2510 2406 2404 2214 
Q 2299 2022 2165 1856 
Q 2082 1754 1918 1584 
Q 1755 1414 1566 1222 
Q 1378 1030 1208 860 
Q 1038 691 929 579 
Q 821 467 821 454 
Q 821 422 910 410 
Q 1019 403 1156 396 
Q 1294 390 1474 390 
Q 1659 390 1844 396 
Q 2030 403 2203 410 
Q 2389 422 2491 441 
Q 2594 461 2664 521 
Q 2734 582 2811 710 
Q 2837 749 2878 803 
Q 2920 858 2971 858 
Q 3003 858 3009 832 
Q 3016 806 3016 781 
Q 3016 749 2981 656 
Q 2946 563 2901 428 
Q 2856 294 2824 134 
Q 2805 32 2760 6 
Q 2715 -19 2683 -19 
z
" transform="scale(0.015625)"/>
        <path id="EBGaramond-Regular-30" d="M 1571 -90 
Q 1245 -90 1005 89 
Q 765 269 605 566 
Q 445 864 368 1222 
Q 291 1581 291 1933 
Q 291 2298 368 2669 
Q 445 3040 608 3347 
Q 771 3654 1027 3843 
Q 1283 4032 1635 4032 
Q 1962 4032 2202 3853 
Q 2442 3674 2602 3376 
Q 2762 3078 2838 2723 
Q 2915 2368 2915 2022 
Q 2915 1664 2838 1293 
Q 2762 922 2598 608 
Q 2435 294 2182 102 
Q 1930 -90 1571 -90 
z
M 1680 77 
Q 1936 77 2093 336 
Q 2250 595 2320 1011 
Q 2390 1427 2390 1907 
Q 2390 2266 2336 2611 
Q 2282 2957 2170 3238 
Q 2058 3520 1894 3686 
Q 1731 3853 1514 3853 
Q 1258 3853 1107 3603 
Q 957 3354 889 2941 
Q 822 2528 822 2048 
Q 822 1690 876 1338 
Q 931 986 1036 701 
Q 1142 416 1302 246 
Q 1462 77 1680 77 
z
" transform="scale(0.015625)"/>
       </defs>
       <use xlink:href="#EBGaramond-Regular-32"/>
       <use xlink:href="#EBGaramond-Regular-30" x="47.999985"/>
       <use xlink:href="#EBGaramond-Regular-32" x="95.999969"/>
       <use xlink:href="#EBGaramond-Regular-32" x="143.999954"/>
      </g>
     </g>
    </g>
    <g id="xtick_2">
     <g id="line2d_2"/>
     <g id="text_2">
      <!-- Q2 -->
      <g transform="translate(77.105188 335.64) scale(0.12 -0.12)">
       <use xlink:href="#EBGaramond-Regular-51"/>
       <use xlink:href="#EBGaramond-Regular-32" x="76.299988"/>
      </g>
      <!-- 2022 -->
      <g transform="translate(73.043 349.212) scale(0.12 -0.12)">
       <use xlink:href="#EBGaramond-Regular-32"/>
       <use xlink:href="#EBGaramond-Regular-30" x="47.999985"/>
       <use xlink:href="#EBGaramond-Regular-32" x="95.999969"/>
       <use xlink:href="#EBGaramond-Regular-32" x="143.999954"/>
      </g>
     </g>
    </g>
    <g id="xtick_3">
     <g id="line2d_3"/>
     <g id="text_3">
      <!-- Q3 -->
      <g transform="translate(127.325188 335.64) scale(0.12 -0.12)">
       <defs>
        <path id="EBGaramond-Regular-33" d="M 1030 -243 
Q 883 -243 716 -195 
Q 550 -147 435 -83 
Q 320 -19 320 32 
Q 320 77 371 147 
Q 422 218 489 272 
Q 557 326 602 326 
Q 672 326 729 288 
Q 787 250 851 198 
Q 934 128 1043 64 
Q 1152 0 1331 0 
Q 1568 0 1779 121 
Q 1990 243 2128 457 
Q 2266 672 2266 934 
Q 2266 1184 2182 1414 
Q 2099 1645 1936 1795 
Q 1773 1946 1523 1946 
Q 1453 1946 1334 1930 
Q 1216 1914 1107 1850 
Q 1075 1830 1033 1852 
Q 992 1875 998 1907 
Q 1024 1990 1075 2044 
Q 1126 2099 1190 2125 
Q 1248 2150 1376 2224 
Q 1504 2298 1648 2410 
Q 1792 2522 1894 2666 
Q 1997 2810 1997 2982 
Q 1997 3245 1827 3446 
Q 1658 3648 1395 3648 
Q 1146 3648 995 3561 
Q 845 3475 755 3363 
Q 666 3251 621 3164 
Q 576 3078 538 3078 
Q 512 3078 473 3116 
Q 435 3155 435 3200 
Q 435 3283 505 3420 
Q 576 3558 726 3699 
Q 877 3840 1110 3936 
Q 1344 4032 1670 4032 
Q 1882 4032 2070 3939 
Q 2259 3846 2380 3683 
Q 2502 3520 2502 3302 
Q 2502 3149 2438 2982 
Q 2374 2816 2227 2653 
Q 2080 2490 1830 2342 
Q 1811 2336 1811 2320 
Q 1811 2304 1837 2304 
Q 2112 2304 2329 2166 
Q 2547 2029 2678 1801 
Q 2810 1574 2810 1299 
Q 2810 941 2656 656 
Q 2502 371 2246 169 
Q 1990 -32 1673 -137 
Q 1357 -243 1030 -243 
z
" transform="scale(0.015625)"/>
       </defs>
       <use xlink:href="#EBGaramond-Regular-51"/>
       <use xlink:href="#EBGaramond-Regular-33" x="76.299988"/>
      </g>
      <!-- 2022 -->
      <g transform="translate(123.263 349.212) scale(0.12 -0.12)">
       <use xlink:href="#EBGaramond-Regular-32"/>
       <use xlink:href="#EBGaramond-Regular-30" x="47.999985"/>
       <use xlink:href="#EBGaramond-Regular-32" x="95.999969"/>
       <use xlink:href="#EBGaramond-Regular-32" x="143.999954"/>
      </g>
     </g>
    </g>
    <g id="xtick_4">
     <g id="line2d_4"/>
     <g id="text_4">
      <!-- Q4 -->
      <g transform="translate(177.545188 335.64) scale(0.12 -0.12)">
       <defs>
        <path id="EBGaramond-Regular-34" d="M 1344 -19 
Q 1312 -19 1270 0 
Q 1229 19 1229 64 
Q 1229 96 1267 115 
Q 1306 134 1344 141 
Q 1645 179 1741 268 
Q 1837 358 1837 512 
L 1837 1107 
Q 1837 1139 1792 1152 
Q 1747 1165 1741 1165 
Q 1478 1165 1251 1155 
Q 1024 1146 774 1136 
Q 525 1126 186 1120 
Q 160 1120 141 1142 
Q 122 1165 122 1184 
Q 122 1197 128 1203 
Q 211 1306 249 1347 
Q 288 1389 313 1417 
Q 339 1446 378 1504 
L 2067 3930 
Q 2106 3987 2160 4048 
Q 2214 4109 2259 4109 
L 2394 4109 
Q 2426 4109 2403 4064 
Q 2381 4019 2381 4019 
L 653 1536 
Q 646 1523 640 1500 
Q 634 1478 653 1478 
L 1760 1478 
Q 1786 1478 1811 1494 
Q 1837 1510 1837 1530 
L 1837 2522 
Q 1837 2592 1846 2617 
Q 1856 2643 1894 2662 
Q 1990 2714 2099 2730 
Q 2208 2746 2253 2746 
Q 2323 2746 2336 2643 
Q 2349 2541 2349 2336 
L 2349 1510 
Q 2349 1472 2381 1472 
Q 2451 1466 2515 1466 
Q 2579 1466 2637 1466 
Q 2726 1466 2819 1469 
Q 2912 1472 3014 1478 
Q 3085 1478 3085 1427 
Q 3085 1376 3056 1318 
Q 3027 1261 2995 1222 
Q 2963 1184 2950 1184 
Q 2880 1184 2797 1187 
Q 2714 1190 2637 1190 
Q 2579 1190 2528 1187 
Q 2477 1184 2438 1178 
Q 2413 1171 2384 1158 
Q 2355 1146 2355 1139 
L 2355 538 
Q 2355 352 2441 281 
Q 2528 211 2784 141 
Q 2822 134 2860 108 
Q 2899 83 2899 51 
Q 2899 26 2870 3 
Q 2842 -19 2803 -19 
Q 2624 -19 2518 -9 
Q 2413 0 2323 6 
Q 2234 13 2080 13 
Q 1920 13 1821 6 
Q 1722 0 1619 -9 
Q 1517 -19 1344 -19 
z
" transform="scale(0.015625)"/>
       </defs>
       <use xlink:href="#EBGaramond-Regular-51"/>
       <use xlink:href="#EBGaramond-Regular-34" x="76.299988"/>
      </g>
      <!-- 2022 -->
      <g transform="translate(173.483 349.212) scale(0.12 -0.12)">
       <use xlink:href="#EBGaramond-Regular-32"/>
       <use xlink:href="#EBGaramond-Regular-30" x="47.999985"/>
       <use xlink:href="#EBGaramond-Regular-32" x="95.999969"/>
       <use xlink:href="#EBGaramond-Regular-32" x="143.999954"/>
      </g>
     </g>
    </g>
    <g id="xtick_5">
     <g id="line2d_5"/>
     <g id="text_5">
      <!-- Q1 -->
      <g transform="translate(227.765188 335.64) scale(0.12 -0.12)">
       <use xlink:href="#EBGaramond-Regular-51"/>
       <use xlink:href="#EBGaramond-Regular-31" x="76.299988"/>
      </g>
      <!-- 2023 -->
      <g transform="translate(223.703 349.212) scale(0.12 -0.12)">
       <use xlink:href="#EBGaramond-Regular-32"/>
       <use xlink:href="#EBGaramond-Regular-30" x="47.999985"/>
       <use xlink:href="#EBGaramond-Regular-32" x="95.999969"/>
       <use xlink:href="#EBGaramond-Regular-33" x="143.999954"/>
      </g>
     </g>
    </g>
    <g id="xtick_6">
     <g id="line2d_6"/>
     <g id="text_6">
      <!-- Q2 -->
      <g transform="translate(277.985188 335.64) scale(0.12 -0.12)">
       <use xlink:href="#EBGaramond-Regular-51"/>
       <use xlink:href="#EBGaramond-Regular-32" x="76.299988"/>
      </g>
      <!-- 2023 -->
      <g transform="translate(273.923 349.212) scale(0.12 -0.12)">
       <use xlink:href="#EBGaramond-Regular-32"/>
       <use xlink:href="#EBGaramond-Regular-30" x="47.999985"/>
       <use xlink:href="#EBGaramond-Regular-32" x="95.999969"/>
       <use xlink:href="#EBGaramond-Regular-33" x="143.999954"/>
      </g>
     </g>
    </g>
    <g id="xtick_7">
     <g id="line2d_7"/>
     <g id="text_7">
      <!-- Q3 -->
      <g transform="translate(328.205188 335.64) scale(0.12 -0.12)">
       <use xlink:href="#EBGaramond-Regular-51"/>
       <use xlink:href="#EBGaramond-Regular-33" x="76.299988"/>
      </g>
      <!-- 2023 -->
      <g transform="translate(324.143 349.212) scale(0.12 -0.12)">
       <use xlink:href="#EBGaramond-Regular-32"/>
       <use xlink:href="#EBGaramond-Regular-30" x="47.999985"/>
       <use xlink:href="#EBGaramond-Regular-32" x="95.999969"/>
       <use xlink:href="#EBGaramond-Regular-33" x="143.999954"/>
      </g>
     </g>
    </g>
    <g id="xtick_8">
     <g id="line2d_8"/>
     <g id="text_8">
      <!-- Q4 -->
      <g transform="translate(378.425188 335.64) scale(0.12 -0.12)">
       <use xlink:href="#EBGaramond-Regular-51"/>
       <use xlink:href="#EBGaramond-Regular-34" x="76.299988"/>
      </g>
      <!-- 2023 -->
      <g transform="translate(374.363 349.212) scale(0.12 -0.12)">
       <use xlink:href="#EBGaramond-Regular-32"/>
       <use xlink:href="#EBGaramond-Regular-30" x="47.999985"/>
       <use xlink:href="#EBGaramond-Regular-32" x="95.999969"/>
       <use xlink:href="#EBGaramond-Regular-33" x="143.999954"/>
      </g>
     </g>
    </g>
    <g id="xtick_9">
     <g id="line2d_9"/>
     <g id="text_9">
      <!-- Q1 -->
      <g transform="translate(428.645188 335.64) scale(0.12 -0.12)">
       <use xlink:href="#EBGaramond-Regular-51"/>
       <use xlink:href="#EBGaramond-Regular-31" x="76.299988"/>
      </g>
      <!-- 2024 -->
      <g transform="translate(424.583 349.212) scale(0.12 -0.12)">
       <use xlink:href="#EBGaramond-Regular-32"/>
       <use xlink:href="#EBGaramond-Regular-30" x="47.999985"/>
       <use xlink:href="#EBGaramond-Regular-32" x="95.999969"/>
       <use xlink:href="#EBGaramond-Regular-34" x="143.999954"/>
      </g>
     </g>
    </g>
    <g id="xtick_10">
     <g id="line2d_10"/>
     <g id="text_10">
      <!-- Q2 -->
      <g transform="translate(478.865188 335.64) scale(0.12 -0.12)">
       <use xlink:href="#EBGaramond-Regular-51"/>
       <use xlink:href="#EBGaramond-Regular-32" x="76.299988"/>
      </g>
      <!-- 2024 -->
      <g transform="translate(474.803 349.212) scale(0.12 -0.12)">
       <use xlink:href="#EBGaramond-Regular-32"/>
       <use xlink:href="#EBGaramond-Regular-30" x="47.999985"/>
       <use xlink:href="#EBGaramond-Regular-32" x="95.999969"/>
       <use xlink:href="#EBGaramond-Regular-34" x="143.999954"/>
      </g>
     </g>
    </g>
   </g>
   <g id="matplotlib.axis_2"/>
   <g id="line2d_11">
    <path clip-path="url(#pd61a3d871b)" style="fill: none; stroke: #424242; stroke-width: 5.25; stroke-linecap: square"/>
   </g>
   <g id="line2d_12">
    <path clip-path="url(#pd61a3d871b)" style="fill: none; stroke: #424242; stroke-width: 5.25; stroke-linecap: square"/>
   </g>
   <g id="line2d_13">
    <path clip-path="url(#pd61a3d871b)" style="fill: none; stroke: #424242; stroke-width: 5.25; stroke-linecap: square"/>
   </g>
   <g id="line2d_14">
    <path clip-path="url(#pd61a3d871b)" style="fill: none; stroke: #424242; stroke-width: 5.25; stroke-linecap: square"/>
   </g>
   <g id="line2d_15">
    <path clip-path="url(#pd61a3d871b)" style="fill: none; stroke: #424242; stroke-width: 5.25; stroke-linecap: square"/>
   </g>
   <g id="line2d_16">
    <path clip-path="url(#pd61a3d871b)" style="fill: none; stroke: #424242; stroke-width: 5.25; stroke-linecap: square"/>
   </g>
   <g id="line2d_17">
    <path clip-path="url(#pd61a3d871b)" style="fill: none; stroke: #424242; stroke-width: 5.25; stroke-linecap: square"/>
   </g>
   <g id="line2d_18">
    <path clip-path="url(#pd61a3d871b)" style="fill: none; stroke: #424242; stroke-width: 5.25; stroke-linecap: square"/>
   </g>
   <g id="line2d_19">
    <path clip-path="url(#pd61a3d871b)" style="fill: none; stroke: #424242; stroke-width: 5.25; stroke-linecap: square"/>
   </g>
   <g id="line2d_20">
    <path clip-path="url(#pd61a3d871b)" style="fill: none; stroke: #424242; stroke-width: 5.25; stroke-linecap: square"/>
   </g>
   <g id="text_11">
    <!-- -2.0% -->
    <g transform="translate(20.601594 312.245) scale(0.13 -0.13)">
     <defs>
      <path id="EBGaramond-Regular-2d" d="M 224 1088 
Q 186 1088 186 1126 
Q 186 1235 214 1350 
Q 243 1466 288 1472 
Q 595 1517 902 1558 
Q 1210 1600 1517 1632 
Q 1536 1632 1552 1622 
Q 1568 1613 1568 1594 
Q 1568 1472 1539 1366 
Q 1510 1261 1434 1248 
Q 1146 1203 848 1161 
Q 550 1120 224 1088 
z
" transform="scale(0.015625)"/>
      <path id="EBGaramond-Regular-2e" d="M 736 -90 
Q 595 -90 489 16 
Q 384 122 384 262 
Q 384 410 489 512 
Q 595 614 736 614 
Q 883 614 985 512 
Q 1088 410 1088 262 
Q 1088 122 985 16 
Q 883 -90 736 -90 
z
" transform="scale(0.015625)"/>
      <path id="EBGaramond-Regular-25" d="M 909 1683 
Q 640 1683 461 1852 
Q 282 2022 189 2278 
Q 96 2534 96 2803 
Q 96 3091 208 3350 
Q 320 3610 531 3773 
Q 742 3936 1024 3936 
Q 1286 3936 1462 3779 
Q 1638 3622 1731 3379 
Q 1824 3136 1824 2874 
Q 1824 2586 1718 2310 
Q 1613 2035 1408 1859 
Q 1203 1683 909 1683 
z
M 979 1824 
Q 1190 1824 1289 1977 
Q 1389 2131 1414 2358 
Q 1440 2586 1440 2797 
Q 1440 3014 1408 3238 
Q 1376 3462 1273 3619 
Q 1171 3776 954 3776 
Q 755 3776 652 3632 
Q 550 3488 515 3280 
Q 480 3072 480 2874 
Q 480 2701 496 2518 
Q 512 2336 560 2179 
Q 608 2022 707 1923 
Q 806 1824 979 1824 
z
M 3211 4147 
Q 3256 4218 3317 4237 
Q 3378 4256 3461 4256 
Q 3493 4256 3521 4230 
Q 3550 4205 3550 4173 
Q 3550 4154 3544 4147 
L 741 -301 
Q 702 -365 641 -381 
Q 581 -397 510 -397 
Q 472 -397 437 -371 
Q 402 -346 402 -320 
Q 402 -307 408 -301 
L 3211 4147 
z
M 3149 -109 
Q 2880 -109 2701 60 
Q 2522 230 2429 486 
Q 2336 742 2336 1011 
Q 2336 1299 2448 1558 
Q 2560 1818 2771 1981 
Q 2982 2144 3264 2144 
Q 3526 2144 3702 1987 
Q 3878 1830 3971 1587 
Q 4064 1344 4064 1082 
Q 4064 794 3958 518 
Q 3853 243 3648 67 
Q 3443 -109 3149 -109 
z
M 3219 32 
Q 3430 32 3529 185 
Q 3629 339 3654 566 
Q 3680 794 3680 1005 
Q 3680 1222 3648 1446 
Q 3616 1670 3513 1827 
Q 3411 1984 3194 1984 
Q 2995 1984 2892 1840 
Q 2790 1696 2755 1488 
Q 2720 1280 2720 1082 
Q 2720 909 2736 726 
Q 2752 544 2800 387 
Q 2848 230 2947 131 
Q 3046 32 3219 32 
z
" transform="scale(0.015625)"/>
     </defs>
     <use xlink:href="#EBGaramond-Regular-2d"/>
     <use xlink:href="#EBGaramond-Regular-32" x="27.399994"/>
     <use xlink:href="#EBGaramond-Regular-2e" x="75.399979"/>
     <use xlink:href="#EBGaramond-Regular-30" x="98.399963"/>
     <use xlink:href="#EBGaramond-Regular-25" x="146.399948"/>
    </g>
   </g>
   <g id="text_12">
    <!-- -0.6% -->
    <g transform="translate(70.821594 261.114565) scale(0.13 -0.13)">
     <defs>
      <path id="EBGaramond-Regular-36" d="M 1614 -102 
Q 1288 -102 987 45 
Q 686 192 494 489 
Q 302 787 302 1235 
Q 302 1594 385 1888 
Q 469 2182 597 2409 
Q 725 2637 856 2800 
Q 987 2963 1077 3053 
Q 1237 3219 1486 3424 
Q 1736 3629 2065 3814 
Q 2395 4000 2786 4102 
Q 2843 4115 2878 4096 
Q 2914 4077 2901 4058 
Q 2875 4000 2820 3971 
Q 2766 3942 2734 3930 
Q 2306 3744 1995 3507 
Q 1685 3270 1442 2918 
Q 1339 2765 1198 2499 
Q 1058 2234 955 1907 
Q 853 1581 853 1248 
Q 859 896 1000 649 
Q 1141 403 1349 275 
Q 1557 147 1768 141 
Q 2030 134 2228 323 
Q 2427 512 2427 909 
Q 2427 1107 2353 1276 
Q 2280 1446 2149 1555 
Q 2018 1664 1845 1664 
Q 1678 1664 1560 1645 
Q 1442 1626 1333 1568 
Q 1275 1542 1265 1571 
Q 1256 1600 1288 1638 
Q 1339 1690 1374 1722 
Q 1410 1754 1461 1792 
Q 1531 1843 1720 1923 
Q 1909 2003 2088 2003 
Q 2312 2003 2501 1900 
Q 2690 1798 2808 1622 
Q 2926 1446 2926 1216 
Q 2926 915 2811 672 
Q 2696 429 2504 256 
Q 2312 83 2078 -9 
Q 1845 -102 1614 -102 
z
" transform="scale(0.015625)"/>
     </defs>
     <use xlink:href="#EBGaramond-Regular-2d"/>
     <use xlink:href="#EBGaramond-Regular-30" x="27.399994"/>
     <use xlink:href="#EBGaramond-Regular-2e" x="75.399979"/>
     <use xlink:href="#EBGaramond-Regular-36" x="98.399963"/>
     <use xlink:href="#EBGaramond-Regular-25" x="146.399948"/>
    </g>
   </g>
   <g id="text_13">
    <!-- 2.6% -->
    <g transform="translate(173.043 131.375) scale(0.13 -0.13)">
     <use xlink:href="#EBGaramond-Regular-32"/>
     <use xlink:href="#EBGaramond-Regular-2e" x="47.999985"/>
     <use xlink:href="#EBGaramond-Regular-36" x="70.999969"/>
     <use xlink:href="#EBGaramond-Regular-25" x="118.999954"/>
    </g>
   </g>
   <g id="text_14">
    <!-- 2.2% -->
    <g transform="translate(223.263 145.983696) scale(0.13 -0.13)">
     <use xlink:href="#EBGaramond-Regular-32"/>
     <use xlink:href="#EBGaramond-Regular-2e" x="47.999985"/>
     <use xlink:href="#EBGaramond-Regular-32" x="70.999969"/>
     <use xlink:href="#EBGaramond-Regular-25" x="118.999954"/>
    </g>
   </g>
   <g id="text_15">
    <!-- 2.1% -->
    <g transform="translate(273.483 149.63587) scale(0.13 -0.13)">
     <use xlink:href="#EBGaramond-Regular-32"/>
     <use xlink:href="#EBGaramond-Regular-2e" x="47.999985"/>
     <use xlink:href="#EBGaramond-Regular-31" x="70.999969"/>
     <use xlink:href="#EBGaramond-Regular-25" x="118.999954"/>
    </g>
   </g>
   <g id="text_16">
    <!-- 1.4% -->
    <g transform="translate(424.143 175.201087) scale(0.13 -0.13)">
     <use xlink:href="#EBGaramond-Regular-31"/>
     <use xlink:href="#EBGaramond-Regular-2e" x="47.999985"/>
     <use xlink:href="#EBGaramond-Regular-34" x="70.999969"/>
     <use xlink:href="#EBGaramond-Regular-25" x="118.999954"/>
    </g>
   </g>
   <g id="text_17">
    <!-- 2.7% -->
    <g transform="translate(122.823 127.722826) scale(0.13 -0.13)">
     <defs>
      <path id="EBGaramond-Regular-37" d="M 814 -205 
Q 744 -205 712 -157 
Q 680 -109 680 -38 
Q 680 -19 725 64 
Q 770 147 814 224 
L 2626 3462 
Q 2638 3482 2635 3501 
Q 2632 3520 2562 3526 
L 923 3526 
Q 770 3526 654 3468 
Q 539 3411 430 3232 
Q 418 3213 395 3174 
Q 373 3136 341 3104 
Q 309 3072 277 3072 
Q 251 3072 241 3104 
Q 232 3136 232 3162 
Q 232 3194 241 3235 
Q 251 3277 258 3302 
Q 290 3443 318 3628 
Q 347 3814 360 3936 
Q 366 3981 388 3993 
Q 411 4006 424 4006 
Q 437 4006 600 3977 
Q 763 3949 962 3949 
Q 1058 3949 1144 3949 
Q 1230 3949 1339 3945 
Q 1448 3942 1595 3942 
Q 1909 3942 2225 3945 
Q 2542 3949 2776 3958 
Q 3010 3968 3067 3974 
Q 3080 3974 3093 3945 
Q 3106 3917 3106 3891 
Q 3106 3840 3058 3753 
Q 3010 3667 2952 3584 
Q 2894 3501 2862 3443 
L 936 -32 
Q 910 -83 872 -144 
Q 834 -205 814 -205 
z
" transform="scale(0.015625)"/>
     </defs>
     <use xlink:href="#EBGaramond-Regular-32"/>
     <use xlink:href="#EBGaramond-Regular-2e" x="47.999985"/>
     <use xlink:href="#EBGaramond-Regular-37" x="70.999969"/>
     <use xlink:href="#EBGaramond-Regular-25" x="118.999954"/>
    </g>
   </g>
   <g id="text_18">
    <!-- 4.9% -->
    <g transform="translate(323.703 47.375) scale(0.13 -0.13)">
     <defs>
      <path id="EBGaramond-Regular-39" d="M 429 -198 
Q 378 -198 358 -182 
Q 339 -166 339 -147 
Q 339 -115 368 -99 
Q 397 -83 429 -83 
Q 621 -83 873 41 
Q 1126 166 1385 380 
Q 1645 595 1850 858 
Q 2054 1126 2179 1382 
Q 2304 1638 2361 1910 
Q 2419 2182 2419 2490 
Q 2419 2720 2345 2950 
Q 2272 3181 2147 3373 
Q 2022 3565 1859 3680 
Q 1696 3795 1523 3795 
Q 1318 3795 1177 3683 
Q 1037 3571 966 3408 
Q 896 3245 896 3085 
Q 896 2893 989 2707 
Q 1082 2522 1235 2403 
Q 1389 2285 1555 2285 
Q 1754 2285 1850 2339 
Q 1946 2394 2067 2451 
Q 2093 2464 2109 2432 
Q 2125 2400 2112 2381 
Q 2080 2317 2016 2256 
Q 1952 2195 1901 2157 
Q 1856 2125 1760 2073 
Q 1664 2022 1549 1984 
Q 1434 1946 1312 1946 
Q 1094 1946 886 2051 
Q 678 2157 547 2339 
Q 416 2522 416 2752 
Q 416 2970 512 3194 
Q 608 3418 784 3606 
Q 960 3795 1203 3910 
Q 1446 4026 1734 4026 
Q 1965 4026 2185 3901 
Q 2406 3776 2582 3568 
Q 2758 3360 2860 3097 
Q 2963 2835 2963 2560 
Q 2963 2163 2854 1827 
Q 2746 1491 2541 1184 
Q 2336 877 2042 557 
Q 1869 365 1657 224 
Q 1446 83 1228 -13 
Q 1011 -109 803 -153 
Q 595 -198 429 -198 
z
" transform="scale(0.015625)"/>
     </defs>
     <use xlink:href="#EBGaramond-Regular-34"/>
     <use xlink:href="#EBGaramond-Regular-2e" x="47.999985"/>
     <use xlink:href="#EBGaramond-Regular-39" x="70.999969"/>
     <use xlink:href="#EBGaramond-Regular-25" x="118.999954"/>
    </g>
   </g>
   <g id="text_19">
    <!-- 3.4% -->
    <g transform="translate(373.923 102.157609) scale(0.13 -0.13)">
     <use xlink:href="#EBGaramond-Regular-33"/>
     <use xlink:href="#EBGaramond-Regular-2e" x="47.999985"/>
     <use xlink:href="#EBGaramond-Regular-34" x="70.999969"/>
     <use xlink:href="#EBGaramond-Regular-25" x="118.999954"/>
    </g>
   </g>
   <g id="text_20">
    <!-- 2.8% -->
    <g transform="translate(474.363 124.070652) scale(0.13 -0.13)">
     <defs>
      <path id="EBGaramond-Regular-38" d="M 1549 -90 
Q 1254 -90 995 35 
Q 736 160 576 384 
Q 416 608 416 902 
Q 416 1184 563 1382 
Q 710 1581 912 1712 
Q 1114 1843 1274 1933 
Q 1318 1958 1305 1971 
Q 1293 1984 1254 2016 
Q 1062 2182 892 2332 
Q 723 2483 617 2672 
Q 512 2861 512 3130 
Q 512 3379 685 3584 
Q 858 3789 1126 3910 
Q 1395 4032 1677 4032 
Q 1933 4032 2166 3926 
Q 2400 3821 2547 3629 
Q 2694 3437 2694 3174 
Q 2694 2944 2579 2800 
Q 2464 2656 2355 2560 
Q 2266 2483 2195 2428 
Q 2125 2374 2016 2291 
Q 1933 2234 1933 2211 
Q 1933 2189 1984 2157 
Q 2227 1990 2412 1830 
Q 2598 1670 2704 1484 
Q 2810 1299 2810 1050 
Q 2810 717 2624 461 
Q 2438 205 2150 57 
Q 1862 -90 1549 -90 
z
M 1638 96 
Q 1920 96 2109 304 
Q 2298 512 2298 794 
Q 2298 992 2186 1171 
Q 2074 1350 1901 1507 
Q 1728 1664 1542 1792 
Q 1504 1824 1475 1840 
Q 1446 1856 1414 1856 
Q 1389 1856 1338 1818 
Q 1133 1651 1030 1481 
Q 928 1312 928 1005 
Q 928 781 1011 573 
Q 1094 365 1254 230 
Q 1414 96 1638 96 
z
M 1843 2291 
Q 2067 2477 2134 2701 
Q 2202 2925 2202 3219 
Q 2202 3488 2064 3683 
Q 1926 3878 1645 3878 
Q 1498 3878 1350 3795 
Q 1203 3712 1104 3571 
Q 1005 3430 1005 3258 
Q 1005 3014 1097 2873 
Q 1190 2733 1360 2614 
Q 1530 2496 1754 2310 
Q 1773 2298 1798 2288 
Q 1824 2278 1843 2291 
z
" transform="scale(0.015625)"/>
     </defs>
     <use xlink:href="#EBGaramond-Regular-32"/>
     <use xlink:href="#EBGaramond-Regular-2e" x="47.999985"/>
     <use xlink:href="#EBGaramond-Regular-38" x="70.999969"/>
     <use xlink:href="#EBGaramond-Regular-25" x="118.999954"/>
    </g>
   </g>
   <g id="text_21">
    <!-- Quarterly annualized real GDP growth since Q1 2022 -->
    <g transform="translate(9.233 18.48) scale(0.16 -0.16)">
     <defs>
      <path id="EBGaramond-Regular-75" d="M 2342 -122 
Q 2298 -122 2298 -70 
Q 2298 -6 2314 118 
Q 2330 243 2330 326 
Q 2330 339 2330 348 
Q 2330 358 2330 365 
Q 2080 122 1827 16 
Q 1574 -90 1274 -90 
Q 1069 -90 902 -3 
Q 736 83 640 252 
Q 544 422 544 672 
L 544 1971 
Q 544 2112 480 2195 
Q 416 2278 269 2336 
Q 237 2349 211 2368 
Q 186 2387 186 2438 
Q 186 2496 214 2515 
Q 243 2534 282 2541 
Q 499 2554 617 2576 
Q 736 2598 915 2643 
Q 934 2650 944 2650 
Q 954 2650 966 2650 
Q 1037 2650 1030 2560 
Q 1011 2413 1001 2313 
Q 992 2214 992 2067 
L 992 819 
Q 992 666 1069 534 
Q 1146 403 1270 320 
Q 1395 237 1530 237 
Q 1696 237 1821 256 
Q 1946 275 2067 365 
Q 2138 416 2246 531 
Q 2355 646 2355 845 
L 2355 2016 
Q 2355 2150 2275 2217 
Q 2195 2285 2092 2310 
Q 1990 2336 1926 2336 
Q 1869 2336 1830 2358 
Q 1792 2381 1792 2445 
Q 1792 2502 1833 2521 
Q 1875 2541 1926 2541 
Q 2125 2547 2256 2556 
Q 2387 2566 2492 2588 
Q 2598 2611 2714 2643 
Q 2726 2650 2745 2653 
Q 2765 2656 2778 2656 
Q 2861 2656 2861 2586 
Q 2861 2579 2857 2563 
Q 2854 2547 2848 2528 
Q 2842 2509 2832 2419 
Q 2822 2330 2812 2234 
Q 2803 2138 2803 2086 
L 2803 608 
Q 2803 435 2838 361 
Q 2874 288 2918 288 
Q 2970 288 3069 297 
Q 3168 307 3213 307 
Q 3245 307 3277 294 
Q 3309 282 3309 224 
Q 3309 173 3283 157 
Q 3258 141 3219 134 
Q 2970 102 2790 38 
Q 2611 -26 2470 -83 
Q 2451 -90 2412 -106 
Q 2374 -122 2342 -122 
z
" transform="scale(0.015625)"/>
      <path id="EBGaramond-Regular-61" d="M 749 -90 
Q 634 -90 515 0 
Q 397 90 317 218 
Q 237 346 237 461 
Q 237 666 345 781 
Q 454 896 691 992 
L 1344 1261 
Q 1472 1312 1494 1350 
Q 1517 1389 1523 1517 
L 1536 1926 
Q 1542 2093 1443 2214 
Q 1344 2336 1158 2336 
Q 1062 2336 966 2304 
Q 870 2272 806 2221 
Q 768 2195 755 2144 
Q 742 2093 742 2035 
Q 742 2010 745 1978 
Q 749 1946 749 1920 
Q 749 1888 669 1833 
Q 589 1779 489 1737 
Q 390 1696 326 1696 
Q 294 1696 275 1712 
Q 256 1728 256 1754 
Q 256 1856 323 1974 
Q 390 2093 512 2195 
Q 659 2330 832 2432 
Q 1005 2534 1171 2592 
Q 1338 2650 1466 2650 
Q 1696 2650 1846 2486 
Q 1997 2323 1990 2080 
L 1958 544 
Q 1952 410 2019 326 
Q 2086 243 2189 243 
Q 2349 243 2426 314 
Q 2458 346 2477 346 
Q 2509 346 2528 326 
Q 2547 307 2547 275 
Q 2547 205 2477 134 
Q 2374 32 2256 -29 
Q 2138 -90 2035 -90 
Q 1741 -90 1568 243 
L 1549 243 
Q 1338 70 1146 -10 
Q 954 -90 749 -90 
z
M 1050 218 
Q 1178 218 1267 259 
Q 1357 301 1427 371 
Q 1459 403 1481 457 
Q 1504 512 1510 634 
L 1523 947 
Q 1530 1018 1517 1050 
Q 1504 1082 1466 1082 
Q 1453 1082 1421 1075 
Q 1389 1069 1338 1050 
Q 998 928 867 797 
Q 736 666 736 557 
Q 736 390 835 304 
Q 934 218 1050 218 
z
" transform="scale(0.015625)"/>
      <path id="EBGaramond-Regular-72" d="M 314 -19 
Q 250 -19 218 -3 
Q 186 13 186 51 
Q 186 102 224 118 
Q 262 134 333 154 
Q 454 186 515 246 
Q 576 307 576 397 
L 576 1773 
Q 576 1946 525 2074 
Q 474 2202 314 2234 
Q 288 2240 269 2265 
Q 250 2291 250 2317 
Q 250 2381 307 2394 
Q 474 2445 656 2544 
Q 838 2643 941 2707 
Q 979 2733 1001 2742 
Q 1024 2752 1037 2752 
Q 1069 2752 1069 2707 
Q 1069 2688 1065 2611 
Q 1062 2534 1059 2432 
Q 1056 2330 1050 2227 
Q 1050 2214 1062 2214 
Q 1165 2342 1289 2438 
Q 1414 2534 1545 2592 
Q 1677 2650 1798 2650 
Q 1933 2650 2019 2592 
Q 2106 2534 2106 2445 
Q 2106 2381 2070 2304 
Q 2035 2227 1977 2169 
Q 1920 2112 1856 2112 
Q 1818 2112 1773 2128 
Q 1728 2144 1677 2170 
Q 1626 2189 1574 2208 
Q 1523 2227 1472 2227 
Q 1318 2227 1174 2118 
Q 1030 2010 1030 1690 
L 1030 397 
Q 1030 314 1120 259 
Q 1210 205 1370 154 
Q 1440 134 1478 115 
Q 1517 96 1517 51 
Q 1517 -19 1389 -19 
Q 1197 -19 1097 -3 
Q 998 13 832 13 
Q 723 13 656 6 
Q 589 0 515 -9 
Q 442 -19 314 -19 
z
" transform="scale(0.015625)"/>
      <path id="EBGaramond-Regular-74" d="M 1210 -90 
Q 896 -90 720 102 
Q 544 294 544 672 
L 544 2157 
Q 544 2208 505 2230 
Q 467 2253 339 2253 
L 301 2253 
Q 269 2253 246 2294 
Q 224 2336 224 2381 
Q 224 2394 243 2419 
Q 262 2445 269 2451 
Q 397 2541 502 2630 
Q 608 2720 694 2806 
Q 781 2893 838 2963 
Q 870 2995 892 3017 
Q 915 3040 947 3040 
Q 979 3040 1008 3027 
Q 1037 3014 1030 2970 
L 998 2682 
Q 992 2611 1030 2585 
Q 1069 2560 1152 2560 
L 1882 2560 
Q 1907 2560 1926 2518 
Q 1946 2477 1946 2419 
Q 1946 2362 1926 2307 
Q 1907 2253 1882 2253 
L 1248 2253 
Q 1088 2253 1040 2227 
Q 992 2202 992 2074 
L 992 813 
Q 992 557 1101 409 
Q 1210 262 1414 262 
Q 1600 262 1702 291 
Q 1805 320 1888 378 
Q 1901 390 1914 390 
Q 1939 390 1948 361 
Q 1958 333 1958 301 
Q 1958 269 1852 173 
Q 1747 77 1577 -6 
Q 1408 -90 1210 -90 
z
" transform="scale(0.015625)"/>
      <path id="EBGaramond-Regular-65" d="M 1363 -96 
Q 1011 -96 748 77 
Q 486 250 339 566 
Q 192 883 192 1299 
Q 192 1670 361 1974 
Q 531 2278 812 2464 
Q 1094 2650 1427 2650 
Q 1683 2650 1881 2547 
Q 2080 2445 2192 2262 
Q 2304 2080 2304 1843 
Q 2304 1645 2112 1645 
L 762 1645 
Q 672 1645 637 1597 
Q 602 1549 602 1408 
Q 602 1101 736 848 
Q 870 595 1094 444 
Q 1318 294 1587 294 
Q 1779 294 1936 368 
Q 2093 442 2214 582 
Q 2240 614 2253 624 
Q 2266 634 2285 634 
Q 2336 634 2336 570 
Q 2336 448 2221 301 
Q 2125 179 1990 89 
Q 1856 0 1696 -48 
Q 1536 -96 1363 -96 
z
M 774 1843 
L 1357 1843 
Q 1510 1843 1619 1849 
Q 1728 1856 1830 1875 
Q 1862 1882 1872 1917 
Q 1882 1952 1882 2016 
Q 1882 2202 1718 2333 
Q 1555 2464 1331 2464 
Q 1184 2464 1037 2377 
Q 890 2291 794 2163 
Q 698 2035 698 1907 
Q 698 1843 774 1843 
z
" transform="scale(0.015625)"/>
      <path id="EBGaramond-Regular-6c" d="M 250 -19 
Q 218 -19 170 -9 
Q 122 0 122 38 
Q 122 90 170 112 
Q 218 134 269 154 
Q 365 186 454 227 
Q 544 269 544 397 
L 544 3622 
Q 544 3808 477 3933 
Q 410 4058 250 4090 
Q 198 4102 198 4173 
Q 198 4237 243 4250 
Q 410 4288 531 4329 
Q 653 4371 758 4416 
Q 864 4461 966 4499 
Q 992 4512 1005 4512 
Q 1018 4512 1027 4496 
Q 1037 4480 1037 4467 
Q 1037 4410 1014 4221 
Q 992 4032 992 3597 
L 992 397 
Q 992 269 1081 227 
Q 1171 186 1267 154 
Q 1318 134 1366 112 
Q 1414 90 1414 38 
Q 1414 0 1366 -9 
Q 1318 -19 1286 -19 
Q 1165 -19 1091 -9 
Q 1018 0 950 6 
Q 883 13 768 13 
Q 659 13 588 6 
Q 518 0 448 -9 
Q 378 -19 250 -19 
z
" transform="scale(0.015625)"/>
      <path id="EBGaramond-Regular-79" d="M 410 -1824 
Q 288 -1824 185 -1763 
Q 83 -1702 83 -1562 
Q 83 -1446 137 -1360 
Q 192 -1274 294 -1274 
Q 365 -1274 432 -1293 
Q 499 -1312 550 -1312 
Q 589 -1312 617 -1296 
Q 646 -1280 672 -1242 
Q 742 -1126 835 -953 
Q 928 -781 1027 -563 
Q 1126 -346 1216 -102 
Q 1235 -45 1235 45 
Q 1235 96 1228 144 
Q 1222 192 1210 230 
L 467 2106 
Q 422 2221 348 2307 
Q 275 2394 179 2419 
Q 128 2438 80 2464 
Q 32 2490 32 2534 
Q 32 2573 80 2582 
Q 128 2592 160 2592 
Q 288 2592 349 2585 
Q 410 2579 464 2569 
Q 518 2560 627 2560 
Q 742 2560 800 2569 
Q 858 2579 922 2585 
Q 986 2592 1114 2592 
Q 1152 2592 1197 2576 
Q 1242 2560 1242 2522 
Q 1242 2477 1174 2435 
Q 1107 2394 1056 2381 
Q 992 2362 960 2314 
Q 928 2266 928 2176 
Q 928 2138 947 2083 
Q 966 2029 979 1997 
L 1498 717 
Q 1510 678 1536 678 
Q 1555 678 1568 717 
L 2010 1888 
Q 2029 1933 2045 2006 
Q 2061 2080 2061 2125 
Q 2061 2246 2025 2294 
Q 1990 2342 1933 2368 
Q 1882 2394 1814 2435 
Q 1747 2477 1747 2522 
Q 1747 2560 1795 2576 
Q 1843 2592 1875 2592 
Q 1965 2592 2057 2576 
Q 2150 2560 2330 2560 
Q 2451 2560 2505 2569 
Q 2560 2579 2598 2585 
Q 2637 2592 2707 2592 
Q 2739 2592 2787 2582 
Q 2835 2573 2835 2534 
Q 2835 2490 2787 2464 
Q 2739 2438 2688 2419 
Q 2592 2394 2483 2269 
Q 2374 2144 2310 1990 
L 1440 -83 
Q 1434 -102 1373 -249 
Q 1312 -397 1222 -614 
Q 1133 -832 1027 -1081 
Q 922 -1331 826 -1562 
Q 768 -1690 659 -1757 
Q 550 -1824 410 -1824 
z
" transform="scale(0.015625)"/>
      <path id="EBGaramond-Regular-20" transform="scale(0.015625)"/>
      <path id="EBGaramond-Regular-6e" d="M 282 -19 
Q 224 -19 189 -3 
Q 154 13 154 51 
Q 154 102 192 118 
Q 230 134 301 154 
Q 397 179 486 224 
Q 576 269 576 397 
L 576 1773 
Q 576 1946 541 2067 
Q 506 2189 339 2234 
Q 314 2246 294 2262 
Q 275 2278 275 2317 
Q 275 2387 333 2394 
Q 557 2451 697 2534 
Q 838 2618 973 2720 
Q 992 2733 1008 2742 
Q 1024 2752 1043 2752 
Q 1056 2752 1065 2739 
Q 1075 2726 1075 2707 
Q 1075 2662 1059 2524 
Q 1043 2387 1043 2298 
Q 1043 2272 1046 2249 
Q 1050 2227 1056 2221 
Q 1280 2432 1533 2541 
Q 1786 2650 2086 2650 
Q 2400 2650 2605 2394 
Q 2810 2138 2810 1760 
L 2810 397 
Q 2810 269 2899 227 
Q 2989 186 3085 154 
Q 3136 134 3184 112 
Q 3232 90 3232 38 
Q 3232 0 3187 -9 
Q 3142 -19 3104 -19 
Q 2976 -19 2905 -9 
Q 2835 0 2771 6 
Q 2707 13 2592 13 
Q 2483 13 2412 6 
Q 2342 0 2268 -9 
Q 2195 -19 2067 -19 
Q 2035 -19 1987 -9 
Q 1939 0 1939 38 
Q 1939 90 1987 112 
Q 2035 134 2086 154 
Q 2182 186 2272 227 
Q 2362 269 2362 397 
L 2362 1741 
Q 2362 2022 2205 2179 
Q 2048 2336 1786 2342 
Q 1555 2342 1382 2268 
Q 1210 2195 1075 2086 
Q 1050 2061 1037 2019 
Q 1024 1978 1024 1939 
L 1024 397 
Q 1024 269 1113 224 
Q 1203 179 1299 154 
Q 1446 115 1446 51 
Q 1446 13 1414 -3 
Q 1382 -19 1318 -19 
Q 1190 -19 1116 -9 
Q 1043 0 979 6 
Q 915 13 800 13 
Q 691 13 624 6 
Q 557 0 483 -9 
Q 410 -19 282 -19 
z
" transform="scale(0.015625)"/>
      <path id="EBGaramond-Regular-69" d="M 282 -19 
Q 224 -19 189 -3 
Q 154 13 154 51 
Q 154 102 202 121 
Q 250 141 301 154 
Q 435 186 505 234 
Q 576 282 576 397 
L 576 1786 
Q 576 1958 515 2092 
Q 454 2227 288 2253 
Q 256 2259 240 2278 
Q 224 2298 224 2336 
Q 224 2406 282 2413 
Q 538 2470 704 2569 
Q 870 2669 954 2733 
Q 1011 2778 1043 2778 
Q 1082 2778 1082 2746 
Q 1082 2694 1066 2544 
Q 1050 2394 1037 2211 
Q 1024 2029 1024 1882 
L 1024 397 
Q 1024 288 1097 237 
Q 1171 186 1299 154 
Q 1350 141 1398 121 
Q 1446 102 1446 51 
Q 1446 -19 1318 -19 
Q 1197 -19 1123 -9 
Q 1050 0 982 6 
Q 915 13 800 13 
Q 691 13 620 6 
Q 550 0 480 -9 
Q 410 -19 282 -19 
z
M 792 3302 
Q 658 3302 565 3395 
Q 472 3488 472 3622 
Q 472 3763 565 3856 
Q 658 3949 792 3949 
Q 933 3949 1025 3856 
Q 1118 3763 1118 3622 
Q 1118 3488 1025 3395 
Q 933 3302 792 3302 
z
" transform="scale(0.015625)"/>
      <path id="EBGaramond-Regular-7a" d="M 250 -32 
Q 224 -32 192 9 
Q 160 51 160 77 
Q 160 96 201 160 
Q 243 224 297 307 
Q 352 390 397 448 
Q 557 678 704 892 
Q 851 1107 995 1321 
Q 1139 1536 1292 1776 
Q 1446 2016 1619 2291 
Q 1632 2310 1632 2332 
Q 1632 2355 1562 2355 
L 928 2374 
Q 838 2381 761 2336 
Q 685 2291 646 2253 
Q 608 2214 573 2169 
Q 538 2125 502 2073 
Q 467 2022 432 1974 
Q 397 1926 365 1882 
Q 326 1843 265 1868 
Q 205 1894 224 1946 
Q 243 2003 272 2115 
Q 301 2227 323 2348 
Q 346 2470 346 2547 
Q 346 2598 384 2630 
Q 422 2662 442 2662 
Q 467 2662 538 2605 
Q 570 2579 650 2572 
Q 730 2566 813 2566 
Q 883 2566 947 2569 
Q 1011 2573 1056 2573 
Q 1389 2573 1670 2579 
Q 1952 2586 2246 2592 
Q 2266 2592 2278 2579 
Q 2291 2566 2297 2547 
Q 2304 2528 2291 2515 
Q 2227 2432 2169 2361 
Q 2112 2291 2048 2195 
L 800 307 
Q 774 262 793 236 
Q 813 211 858 211 
L 1613 211 
Q 1683 211 1756 249 
Q 1830 288 1901 358 
Q 1978 435 2067 560 
Q 2157 685 2253 826 
Q 2285 870 2339 851 
Q 2394 832 2394 781 
Q 2394 762 2368 662 
Q 2342 563 2307 438 
Q 2272 314 2243 205 
Q 2214 96 2202 58 
Q 2182 -32 2099 -32 
Q 1958 -32 1622 -16 
Q 1286 0 762 0 
Q 627 0 480 -16 
Q 333 -32 250 -32 
z
" transform="scale(0.015625)"/>
      <path id="EBGaramond-Regular-64" d="M 2285 -122 
Q 2272 -122 2243 -96 
Q 2214 -70 2214 -58 
Q 2214 6 2230 124 
Q 2246 243 2246 326 
L 2246 365 
Q 2150 218 1939 64 
Q 1728 -90 1408 -90 
Q 1043 -90 777 102 
Q 512 294 368 595 
Q 224 896 224 1216 
Q 224 1587 397 1913 
Q 570 2240 893 2445 
Q 1216 2650 1664 2650 
Q 1792 2650 1923 2627 
Q 2054 2605 2125 2579 
Q 2182 2560 2208 2560 
Q 2253 2560 2253 2714 
L 2253 3622 
Q 2253 3885 2169 3974 
Q 2086 4064 1933 4090 
Q 1875 4102 1875 4173 
Q 1875 4230 1926 4250 
Q 2208 4320 2368 4384 
Q 2528 4448 2618 4486 
Q 2643 4499 2665 4502 
Q 2688 4506 2701 4506 
Q 2739 4506 2746 4467 
Q 2746 4429 2736 4336 
Q 2726 4243 2713 4064 
Q 2701 3885 2701 3597 
L 2701 704 
Q 2701 486 2733 387 
Q 2765 288 2835 288 
Q 2867 288 2947 294 
Q 3027 301 3110 307 
Q 3226 314 3226 250 
Q 3226 205 3197 169 
Q 3168 134 3136 134 
Q 2957 109 2784 61 
Q 2611 13 2387 -83 
Q 2336 -109 2320 -115 
Q 2304 -122 2285 -122 
z
M 1638 243 
Q 1805 243 1965 329 
Q 2125 416 2246 557 
L 2253 1709 
Q 2253 1882 2153 2048 
Q 2054 2214 1878 2320 
Q 1702 2426 1466 2426 
Q 1318 2426 1132 2336 
Q 947 2246 812 2019 
Q 678 1792 678 1363 
Q 678 998 787 777 
Q 896 557 1053 441 
Q 1210 326 1373 284 
Q 1536 243 1638 243 
z
" transform="scale(0.015625)"/>
      <path id="EBGaramond-Regular-47" d="M 2509 -90 
Q 2067 -90 1667 67 
Q 1267 224 956 505 
Q 646 787 467 1168 
Q 288 1549 288 1990 
Q 288 2464 473 2873 
Q 659 3283 985 3590 
Q 1312 3898 1737 4070 
Q 2163 4243 2643 4243 
Q 2752 4243 2941 4220 
Q 3130 4198 3331 4166 
Q 3533 4134 3696 4099 
Q 3859 4064 3923 4032 
Q 3955 4019 3964 4003 
Q 3974 3987 3981 3955 
Q 4006 3770 4025 3587 
Q 4045 3405 4045 3277 
Q 4045 3232 4016 3190 
Q 3987 3149 3949 3149 
Q 3885 3149 3853 3206 
Q 3821 3264 3802 3322 
Q 3763 3424 3721 3497 
Q 3680 3571 3603 3661 
Q 3565 3712 3440 3792 
Q 3315 3872 3104 3936 
Q 2893 4000 2586 4000 
Q 2214 4000 1907 3843 
Q 1600 3686 1379 3414 
Q 1158 3142 1040 2796 
Q 922 2451 922 2074 
Q 922 1619 1062 1260 
Q 1203 902 1440 652 
Q 1677 403 1977 275 
Q 2278 147 2598 147 
Q 2970 147 3146 236 
Q 3322 326 3379 384 
Q 3450 454 3510 582 
Q 3571 710 3571 877 
Q 3571 934 3574 998 
Q 3578 1062 3581 1126 
Q 3584 1190 3584 1248 
Q 3584 1318 3577 1366 
Q 3571 1414 3552 1440 
Q 3501 1510 3373 1555 
Q 3245 1600 3117 1619 
Q 2989 1638 2925 1638 
Q 2899 1638 2848 1670 
Q 2797 1702 2797 1747 
Q 2797 1798 2848 1827 
Q 2899 1856 2925 1856 
Q 3085 1856 3200 1849 
Q 3315 1843 3436 1836 
Q 3558 1830 3731 1830 
Q 3898 1830 4013 1843 
Q 4128 1856 4301 1856 
Q 4326 1856 4380 1837 
Q 4435 1818 4435 1754 
Q 4435 1709 4380 1677 
Q 4326 1645 4301 1638 
Q 4160 1600 4105 1526 
Q 4051 1453 4032 1325 
Q 4013 1184 4006 1075 
Q 4000 966 4000 845 
L 4000 672 
Q 4000 640 4013 621 
Q 4026 602 4038 570 
Q 4058 538 4090 512 
Q 4122 486 4122 461 
Q 4122 435 4112 393 
Q 4102 352 4032 339 
Q 3987 333 3856 265 
Q 3725 198 3526 115 
Q 3328 32 3072 -29 
Q 2816 -90 2509 -90 
z
" transform="scale(0.015625)"/>
      <path id="EBGaramond-Regular-44" d="M 2374 -45 
Q 2310 -45 2089 -32 
Q 1869 -19 1584 -9 
Q 1299 0 1043 0 
Q 915 0 828 -6 
Q 742 -13 643 -22 
Q 544 -32 371 -32 
Q 288 -32 237 -13 
Q 186 6 186 51 
Q 186 102 237 118 
Q 288 134 397 154 
Q 640 198 733 300 
Q 826 403 826 634 
L 826 3514 
Q 826 3744 733 3840 
Q 640 3936 397 3981 
Q 288 4000 237 4022 
Q 186 4045 186 4096 
Q 186 4141 237 4160 
Q 288 4179 371 4179 
Q 538 4179 637 4176 
Q 736 4173 832 4169 
Q 928 4166 1082 4166 
Q 1184 4166 1341 4172 
Q 1498 4179 1667 4192 
Q 1837 4205 1974 4211 
Q 2112 4218 2176 4218 
Q 2829 4218 3289 4061 
Q 3750 3904 4038 3625 
Q 4326 3347 4464 2979 
Q 4602 2611 4602 2189 
Q 4602 1728 4429 1325 
Q 4256 922 3949 611 
Q 3642 301 3238 128 
Q 2835 -45 2374 -45 
z
M 2298 179 
Q 2797 179 3181 422 
Q 3565 666 3779 1094 
Q 3994 1523 3994 2080 
Q 3994 2541 3840 2902 
Q 3686 3264 3430 3510 
Q 3174 3757 2854 3888 
Q 2534 4019 2208 4019 
Q 1933 4019 1737 4003 
Q 1542 3987 1440 3904 
Q 1338 3821 1338 3629 
L 1338 774 
Q 1338 518 1478 390 
Q 1619 262 1840 220 
Q 2061 179 2298 179 
z
" transform="scale(0.015625)"/>
      <path id="EBGaramond-Regular-50" d="M 339 -32 
Q 256 -32 205 -16 
Q 154 0 154 38 
Q 154 115 365 154 
Q 608 198 720 300 
Q 832 403 832 640 
L 832 3341 
Q 832 3629 758 3782 
Q 685 3936 442 3981 
Q 333 4000 281 4032 
Q 230 4064 230 4109 
Q 230 4147 281 4163 
Q 333 4179 416 4179 
Q 589 4179 675 4179 
Q 762 4179 838 4176 
Q 915 4173 1043 4173 
Q 1171 4173 1302 4182 
Q 1434 4192 1549 4201 
Q 1664 4211 1754 4211 
Q 2483 4211 2928 3910 
Q 3373 3610 3373 3072 
Q 3373 2682 3219 2352 
Q 3066 2022 2749 1824 
Q 2432 1626 1939 1626 
Q 1798 1626 1724 1667 
Q 1651 1709 1651 1747 
Q 1651 1773 1686 1805 
Q 1722 1837 1754 1837 
Q 1786 1837 1853 1830 
Q 1920 1824 2048 1824 
Q 2432 1824 2627 2144 
Q 2822 2464 2822 3027 
Q 2822 3539 2521 3785 
Q 2221 4032 1754 4032 
Q 1574 4032 1459 3971 
Q 1344 3910 1344 3763 
L 1344 710 
Q 1344 480 1440 339 
Q 1536 198 1773 154 
Q 1882 134 1933 108 
Q 1984 83 1984 38 
Q 1984 0 1933 -16 
Q 1882 -32 1798 -32 
Q 1626 -32 1533 -19 
Q 1440 -6 1366 3 
Q 1293 13 1171 13 
Q 1011 13 886 3 
Q 762 -6 637 -19 
Q 512 -32 339 -32 
z
" transform="scale(0.015625)"/>
      <path id="EBGaramond-Regular-67" d="M 1248 -1856 
Q 704 -1856 387 -1648 
Q 70 -1440 70 -1088 
Q 70 -922 121 -806 
Q 173 -691 282 -608 
Q 371 -531 521 -412 
Q 672 -294 832 -166 
L 1101 -179 
Q 794 -378 672 -557 
Q 550 -736 550 -992 
Q 550 -1248 777 -1424 
Q 1005 -1600 1338 -1600 
Q 1715 -1600 1946 -1427 
Q 2106 -1306 2195 -1110 
Q 2285 -915 2285 -698 
Q 2285 -557 2185 -464 
Q 2086 -371 1875 -313 
Q 1664 -256 1325 -237 
Q 723 -192 489 -77 
Q 256 38 256 282 
Q 256 346 291 400 
Q 326 454 403 518 
Q 550 634 620 688 
Q 691 742 726 780 
Q 762 819 794 877 
L 1011 768 
Q 870 717 774 630 
Q 678 544 678 474 
Q 678 384 774 317 
Q 870 250 1056 211 
Q 1242 173 1510 154 
Q 2099 122 2387 -38 
Q 2675 -198 2675 -493 
Q 2675 -742 2550 -982 
Q 2426 -1222 2221 -1420 
Q 2016 -1619 1763 -1737 
Q 1510 -1856 1248 -1856 
z
M 1325 902 
Q 1568 902 1728 1148 
Q 1888 1395 1888 1760 
Q 1888 1946 1801 2109 
Q 1715 2272 1577 2371 
Q 1440 2470 1280 2470 
Q 1133 2470 1001 2364 
Q 870 2259 790 2092 
Q 710 1926 710 1728 
Q 710 1504 793 1315 
Q 877 1126 1017 1014 
Q 1158 902 1325 902 
z
M 1286 678 
Q 1024 678 787 812 
Q 550 947 400 1168 
Q 250 1389 250 1651 
Q 250 1952 406 2179 
Q 563 2406 819 2534 
Q 1075 2662 1363 2662 
Q 1549 2662 1686 2614 
Q 1824 2566 1958 2528 
Q 2112 2483 2201 2473 
Q 2291 2464 2387 2464 
Q 2464 2464 2579 2473 
Q 2694 2483 2739 2483 
Q 2822 2483 2822 2387 
Q 2822 2330 2758 2266 
Q 2726 2234 2707 2234 
L 2534 2234 
Q 2362 2234 2342 2182 
Q 2336 2157 2326 2109 
Q 2317 2061 2310 2003 
Q 2304 1946 2304 1888 
Q 2304 1562 2163 1286 
Q 2022 1011 1792 844 
Q 1562 678 1286 678 
z
" transform="scale(0.015625)"/>
      <path id="EBGaramond-Regular-6f" d="M 1498 -90 
Q 1139 -90 851 76 
Q 563 243 393 534 
Q 224 826 224 1197 
Q 224 1466 329 1722 
Q 435 1978 627 2189 
Q 819 2400 1075 2525 
Q 1331 2650 1626 2650 
Q 1997 2650 2294 2470 
Q 2592 2291 2768 2000 
Q 2944 1709 2944 1363 
Q 2944 992 2781 659 
Q 2618 326 2298 118 
Q 1978 -90 1498 -90 
z
M 1632 102 
Q 1850 102 2022 185 
Q 2195 269 2291 454 
Q 2368 602 2393 813 
Q 2419 1024 2419 1210 
Q 2419 1517 2307 1801 
Q 2195 2086 1993 2268 
Q 1792 2451 1517 2451 
Q 1344 2451 1206 2396 
Q 1069 2342 954 2195 
Q 826 2035 787 1804 
Q 749 1574 749 1344 
Q 749 1030 864 745 
Q 979 461 1177 281 
Q 1376 102 1632 102 
z
" transform="scale(0.015625)"/>
      <path id="EBGaramond-Regular-77" d="M 1446 -147 
Q 1434 -147 1421 -134 
Q 1408 -122 1402 -102 
L 512 2106 
Q 467 2234 371 2314 
Q 275 2394 179 2419 
Q 128 2438 80 2464 
Q 32 2490 32 2534 
Q 32 2573 80 2582 
Q 128 2592 160 2592 
Q 243 2592 316 2585 
Q 390 2579 467 2569 
Q 544 2560 627 2560 
Q 717 2560 806 2569 
Q 896 2579 982 2585 
Q 1069 2592 1158 2592 
Q 1184 2592 1235 2582 
Q 1286 2573 1286 2534 
Q 1286 2490 1238 2464 
Q 1190 2438 1139 2419 
Q 1075 2400 1040 2326 
Q 1005 2253 1005 2163 
Q 1005 2080 1037 1997 
L 1536 710 
Q 1542 685 1568 685 
Q 1594 685 1600 710 
L 2035 1747 
Q 2067 1830 2076 1907 
Q 2086 1984 2086 2054 
Q 2086 2195 1977 2284 
Q 1869 2374 1760 2419 
Q 1709 2438 1661 2464 
Q 1613 2490 1613 2534 
Q 1613 2573 1657 2582 
Q 1702 2592 1741 2592 
Q 1830 2592 1936 2576 
Q 2042 2560 2221 2560 
Q 2400 2560 2528 2576 
Q 2656 2592 2758 2592 
Q 2790 2592 2838 2582 
Q 2886 2573 2886 2534 
Q 2886 2490 2838 2464 
Q 2790 2438 2739 2419 
Q 2669 2394 2595 2349 
Q 2522 2304 2522 2189 
Q 2522 2150 2531 2102 
Q 2541 2054 2566 1997 
L 3046 762 
Q 3078 691 3098 691 
Q 3123 691 3149 755 
L 3635 1888 
Q 3661 1939 3670 2016 
Q 3680 2093 3680 2138 
Q 3680 2253 3603 2323 
Q 3526 2394 3456 2419 
Q 3405 2438 3357 2464 
Q 3309 2490 3309 2534 
Q 3309 2573 3357 2582 
Q 3405 2592 3437 2592 
Q 3578 2592 3661 2576 
Q 3744 2560 3917 2560 
Q 4038 2560 4089 2569 
Q 4141 2579 4179 2585 
Q 4218 2592 4288 2592 
Q 4326 2592 4371 2582 
Q 4416 2573 4416 2534 
Q 4416 2490 4368 2464 
Q 4320 2438 4269 2419 
Q 4173 2394 4083 2269 
Q 3994 2144 3930 1997 
L 3053 -102 
Q 3034 -147 2995 -147 
Q 2970 -147 2944 -102 
L 2278 1549 
Q 2259 1600 2240 1606 
Q 2221 1606 2195 1542 
L 1498 -102 
Q 1478 -147 1446 -147 
z
" transform="scale(0.015625)"/>
      <path id="EBGaramond-Regular-68" d="M 250 -19 
Q 122 -19 122 51 
Q 122 109 269 154 
Q 365 186 451 237 
Q 538 288 544 416 
L 544 3622 
Q 544 3795 486 3926 
Q 429 4058 262 4083 
Q 205 4096 205 4173 
Q 205 4230 256 4250 
Q 346 4282 470 4320 
Q 595 4358 729 4406 
Q 864 4454 966 4499 
Q 992 4512 1005 4512 
Q 1024 4512 1037 4499 
Q 1050 4486 1050 4467 
Q 1050 4429 1034 4358 
Q 1018 4288 1005 4115 
Q 992 3942 992 3597 
L 992 2483 
Q 992 2381 1001 2336 
Q 1011 2291 1037 2246 
Q 1139 2323 1289 2416 
Q 1440 2509 1625 2579 
Q 1811 2650 2010 2650 
Q 2323 2650 2531 2403 
Q 2739 2157 2739 1779 
L 2739 435 
Q 2739 307 2822 246 
Q 2906 186 3002 154 
Q 3072 134 3110 112 
Q 3149 90 3149 51 
Q 3149 -19 3021 -19 
Q 2893 -19 2825 -9 
Q 2758 0 2697 6 
Q 2637 13 2522 13 
Q 2413 13 2349 6 
Q 2285 0 2217 -9 
Q 2150 -19 2022 -19 
Q 1894 -19 1894 51 
Q 1894 96 1932 112 
Q 1971 128 2042 154 
Q 2138 186 2214 246 
Q 2291 307 2291 435 
L 2291 1741 
Q 2291 1901 2198 2032 
Q 2106 2163 1971 2240 
Q 1837 2317 1696 2317 
Q 1574 2317 1414 2281 
Q 1254 2246 1165 2176 
Q 1062 2093 1027 2003 
Q 992 1914 992 1715 
L 992 416 
Q 998 288 1072 237 
Q 1146 186 1242 154 
Q 1312 134 1347 112 
Q 1382 90 1382 51 
Q 1382 -19 1254 -19 
Q 1126 -19 1062 -9 
Q 998 0 940 6 
Q 883 13 768 13 
Q 659 13 592 6 
Q 525 0 451 -9 
Q 378 -19 250 -19 
z
" transform="scale(0.015625)"/>
      <path id="EBGaramond-Regular-73" d="M 922 -90 
Q 723 -90 550 -29 
Q 378 32 256 141 
Q 224 211 208 377 
Q 192 544 186 653 
Q 186 710 269 710 
Q 294 710 316 700 
Q 339 691 346 666 
Q 429 352 611 217 
Q 794 83 979 83 
Q 1165 83 1296 208 
Q 1427 333 1427 518 
Q 1427 691 1312 816 
Q 1197 941 909 1120 
Q 691 1254 556 1376 
Q 422 1498 361 1626 
Q 301 1754 301 1914 
Q 301 2118 397 2284 
Q 493 2451 685 2550 
Q 877 2650 1165 2650 
Q 1357 2650 1485 2611 
Q 1613 2573 1677 2528 
Q 1728 2458 1763 2307 
Q 1798 2157 1798 2022 
Q 1798 1978 1734 1978 
Q 1696 1978 1661 1994 
Q 1626 2010 1613 2035 
Q 1530 2246 1405 2358 
Q 1280 2470 1094 2470 
Q 934 2470 809 2374 
Q 685 2278 685 2093 
Q 685 1946 777 1830 
Q 870 1715 1126 1568 
Q 1498 1357 1680 1174 
Q 1862 992 1862 691 
Q 1862 346 1600 128 
Q 1338 -90 922 -90 
z
" transform="scale(0.015625)"/>
      <path id="EBGaramond-Regular-63" d="M 1363 -96 
Q 1043 -96 784 67 
Q 525 230 374 515 
Q 224 800 224 1152 
Q 224 1568 406 1907 
Q 589 2246 896 2448 
Q 1203 2650 1574 2650 
Q 1990 2650 2304 2426 
Q 2381 2368 2381 2304 
Q 2381 2253 2336 2189 
Q 2291 2125 2227 2083 
Q 2163 2042 2106 2042 
Q 2074 2042 2042 2064 
Q 2010 2086 1971 2112 
Q 1830 2221 1657 2317 
Q 1485 2413 1370 2413 
Q 1056 2413 861 2121 
Q 666 1830 666 1357 
Q 666 1056 797 813 
Q 928 570 1149 429 
Q 1370 288 1638 288 
Q 1824 288 1958 349 
Q 2093 410 2246 563 
Q 2259 576 2278 585 
Q 2298 595 2310 595 
Q 2381 595 2381 506 
Q 2381 467 2358 419 
Q 2336 371 2285 307 
Q 2182 179 2041 86 
Q 1901 -6 1731 -51 
Q 1562 -96 1363 -96 
z
" transform="scale(0.015625)"/>
     </defs>
     <use xlink:href="#EBGaramond-Regular-51"/>
     <use xlink:href="#EBGaramond-Regular-75" x="76.299988"/>
     <use xlink:href="#EBGaramond-Regular-61" x="128.999985"/>
     <use xlink:href="#EBGaramond-Regular-72" x="168.899979"/>
     <use xlink:href="#EBGaramond-Regular-74" x="202.299973"/>
     <use xlink:href="#EBGaramond-Regular-65" x="233.699966"/>
     <use xlink:href="#EBGaramond-Regular-72" x="272.699951"/>
     <use xlink:href="#EBGaramond-Regular-6c" x="306.099945"/>
     <use xlink:href="#EBGaramond-Regular-79" x="330.09993"/>
     <use xlink:href="#EBGaramond-Regular-20" x="373.899918"/>
     <use xlink:href="#EBGaramond-Regular-61" x="393.899902"/>
     <use xlink:href="#EBGaramond-Regular-6e" x="433.799896"/>
     <use xlink:href="#EBGaramond-Regular-6e" x="486.599884"/>
     <use xlink:href="#EBGaramond-Regular-75" x="539.399872"/>
     <use xlink:href="#EBGaramond-Regular-61" x="592.099869"/>
     <use xlink:href="#EBGaramond-Regular-6c" x="631.999863"/>
     <use xlink:href="#EBGaramond-Regular-69" x="655.999847"/>
     <use xlink:href="#EBGaramond-Regular-7a" x="680.499832"/>
     <use xlink:href="#EBGaramond-Regular-65" x="718.199829"/>
     <use xlink:href="#EBGaramond-Regular-64" x="757.199814"/>
     <use xlink:href="#EBGaramond-Regular-20" x="807.799805"/>
     <use xlink:href="#EBGaramond-Regular-72" x="827.799789"/>
     <use xlink:href="#EBGaramond-Regular-65" x="861.199783"/>
     <use xlink:href="#EBGaramond-Regular-61" x="900.199768"/>
     <use xlink:href="#EBGaramond-Regular-6c" x="940.099762"/>
     <use xlink:href="#EBGaramond-Regular-20" x="964.099747"/>
     <use xlink:href="#EBGaramond-Regular-47" x="984.099731"/>
     <use xlink:href="#EBGaramond-Regular-44" x="1056.999725"/>
     <use xlink:href="#EBGaramond-Regular-50" x="1132.399719"/>
     <use xlink:href="#EBGaramond-Regular-20" x="1187.599716"/>
     <use xlink:href="#EBGaramond-Regular-67" x="1207.599701"/>
     <use xlink:href="#EBGaramond-Regular-72" x="1251.099686"/>
     <use xlink:href="#EBGaramond-Regular-6f" x="1284.49968"/>
     <use xlink:href="#EBGaramond-Regular-77" x="1333.999664"/>
     <use xlink:href="#EBGaramond-Regular-74" x="1402.499649"/>
     <use xlink:href="#EBGaramond-Regular-68" x="1433.899643"/>
     <use xlink:href="#EBGaramond-Regular-20" x="1485.399628"/>
     <use xlink:href="#EBGaramond-Regular-73" x="1505.399612"/>
     <use xlink:href="#EBGaramond-Regular-69" x="1537.6996"/>
     <use xlink:href="#EBGaramond-Regular-6e" x="1562.199585"/>
     <use xlink:href="#EBGaramond-Regular-63" x="1614.999573"/>
     <use xlink:href="#EBGaramond-Regular-65" x="1655.69957"/>
     <use xlink:href="#EBGaramond-Regular-20" x="1694.699554"/>
     <use xlink:href="#EBGaramond-Regular-51" x="1714.699539"/>
     <use xlink:href="#EBGaramond-Regular-31" x="1790.999527"/>
     <use xlink:href="#EBGaramond-Regular-20" x="1838.999512"/>
     <use xlink:href="#EBGaramond-Regular-32" x="1858.999496"/>
     <use xlink:href="#EBGaramond-Regular-30" x="1906.999481"/>
     <use xlink:href="#EBGaramond-Regular-32" x="1954.999466"/>
     <use xlink:href="#EBGaramond-Regular-32" x="2002.999451"/>
    </g>
   </g>
   <g id="legend_1">
    <g id="text_22">
     <!-- Comparison to 50-year average -->
     <g transform="translate(11.6 34.664) scale(0.12 -0.12)">
      <defs>
       <path id="EBGaramond-Regular-43" d="M 2605 -96 
Q 2157 -96 1741 57 
Q 1325 211 998 496 
Q 672 781 483 1181 
Q 294 1581 294 2067 
Q 294 2534 492 2931 
Q 691 3328 1036 3622 
Q 1382 3917 1827 4080 
Q 2272 4243 2765 4243 
Q 3014 4243 3187 4224 
Q 3360 4205 3523 4169 
Q 3686 4134 3904 4077 
Q 4000 4051 4041 4000 
Q 4083 3949 4090 3859 
Q 4102 3712 4121 3542 
Q 4141 3373 4147 3123 
Q 4154 3078 4106 3049 
Q 4058 3021 4003 3033 
Q 3949 3046 3930 3117 
Q 3866 3360 3782 3536 
Q 3699 3712 3533 3827 
Q 3373 3936 3145 3990 
Q 2918 4045 2656 4045 
Q 2285 4045 1968 3894 
Q 1651 3744 1424 3485 
Q 1197 3226 1069 2899 
Q 941 2573 941 2221 
Q 941 1830 1065 1452 
Q 1190 1075 1424 771 
Q 1658 467 1981 284 
Q 2304 102 2701 102 
Q 3162 102 3462 313 
Q 3763 525 3974 902 
Q 4019 986 4105 986 
Q 4192 986 4192 883 
Q 4192 832 4166 720 
Q 4141 608 4099 483 
Q 4058 358 4019 262 
Q 3974 173 3945 147 
Q 3917 122 3814 90 
Q 3578 -6 3248 -51 
Q 2918 -96 2605 -96 
z
" transform="scale(0.015625)"/>
       <path id="EBGaramond-Regular-6d" d="M 282 -19 
Q 230 -19 192 -6 
Q 154 6 154 51 
Q 154 96 195 115 
Q 237 134 301 154 
Q 390 186 483 227 
Q 576 269 576 397 
L 576 1773 
Q 576 1946 537 2077 
Q 499 2208 333 2234 
Q 307 2240 291 2259 
Q 275 2278 275 2317 
Q 275 2381 326 2394 
Q 499 2438 601 2486 
Q 704 2534 784 2595 
Q 864 2656 979 2726 
Q 992 2733 1005 2742 
Q 1018 2752 1037 2752 
Q 1075 2752 1075 2707 
Q 1075 2662 1059 2524 
Q 1043 2387 1043 2298 
Q 1043 2234 1056 2221 
L 1069 2221 
Q 1216 2362 1456 2506 
Q 1696 2650 2067 2650 
Q 2298 2650 2451 2550 
Q 2605 2451 2707 2208 
L 2726 2208 
Q 2931 2394 3193 2522 
Q 3456 2650 3770 2650 
Q 3981 2650 4121 2522 
Q 4262 2394 4336 2189 
Q 4410 1984 4410 1760 
L 4410 397 
Q 4410 269 4499 227 
Q 4589 186 4685 154 
Q 4749 134 4790 115 
Q 4832 96 4832 51 
Q 4832 13 4803 -3 
Q 4774 -19 4704 -19 
Q 4576 -19 4505 -9 
Q 4435 0 4374 6 
Q 4314 13 4198 13 
Q 4090 13 4019 6 
Q 3949 0 3872 -9 
Q 3795 -19 3667 -19 
Q 3610 -19 3574 -3 
Q 3539 13 3539 51 
Q 3539 102 3580 121 
Q 3622 141 3686 154 
Q 3789 179 3875 224 
Q 3962 269 3962 397 
L 3962 1741 
Q 3962 1894 3891 2032 
Q 3821 2170 3705 2259 
Q 3590 2349 3450 2349 
Q 3290 2349 3152 2310 
Q 3014 2272 2893 2176 
Q 2714 2035 2714 1715 
L 2714 397 
Q 2714 269 2810 224 
Q 2906 179 3002 154 
Q 3066 141 3107 118 
Q 3149 96 3149 51 
Q 3149 13 3117 -3 
Q 3085 -19 3021 -19 
Q 2893 -19 2819 -9 
Q 2746 0 2678 6 
Q 2611 13 2496 13 
Q 2387 13 2316 6 
Q 2246 0 2169 -9 
Q 2093 -19 1965 -19 
Q 1914 -19 1875 -3 
Q 1837 13 1837 51 
Q 1837 102 1885 118 
Q 1933 134 1984 154 
Q 2080 186 2173 227 
Q 2266 269 2266 397 
L 2266 1741 
Q 2266 1894 2195 2032 
Q 2125 2170 2009 2259 
Q 1894 2349 1754 2349 
Q 1594 2349 1456 2310 
Q 1318 2272 1197 2176 
Q 1024 2048 1024 1715 
L 1024 397 
Q 1024 269 1113 227 
Q 1203 186 1299 154 
Q 1350 134 1398 118 
Q 1446 102 1446 51 
Q 1446 13 1411 -3 
Q 1376 -19 1318 -19 
Q 1190 -19 1116 -9 
Q 1043 0 979 6 
Q 915 13 800 13 
Q 691 13 624 6 
Q 557 0 483 -9 
Q 410 -19 282 -19 
z
" transform="scale(0.015625)"/>
       <path id="EBGaramond-Regular-70" d="M 256 -1824 
Q 224 -1824 173 -1814 
Q 122 -1805 122 -1766 
Q 122 -1715 170 -1692 
Q 218 -1670 269 -1651 
Q 365 -1619 454 -1577 
Q 544 -1536 544 -1408 
L 544 1837 
Q 544 1888 515 1990 
Q 486 2093 422 2189 
Q 358 2285 250 2304 
Q 224 2310 211 2336 
Q 198 2362 198 2387 
Q 198 2419 211 2438 
Q 224 2458 243 2464 
Q 486 2522 659 2589 
Q 832 2656 986 2720 
Q 992 2720 992 2723 
Q 992 2726 998 2726 
Q 1011 2726 1024 2707 
Q 1037 2688 1037 2669 
Q 1037 2611 1021 2486 
Q 1005 2362 1005 2285 
Q 1005 2234 1011 2227 
Q 1075 2291 1244 2390 
Q 1414 2490 1632 2570 
Q 1850 2650 2048 2650 
Q 2381 2650 2614 2474 
Q 2848 2298 2973 2019 
Q 3098 1741 3098 1440 
Q 3098 1152 2989 880 
Q 2880 608 2681 390 
Q 2483 173 2220 41 
Q 1958 -90 1658 -90 
Q 1568 -90 1443 -61 
Q 1318 -32 1200 13 
Q 1082 58 1018 115 
Q 1011 115 1004 41 
Q 998 -32 995 -112 
Q 992 -192 992 -211 
L 992 -1408 
Q 992 -1491 1059 -1539 
Q 1126 -1587 1212 -1609 
Q 1299 -1632 1363 -1651 
Q 1414 -1670 1462 -1692 
Q 1510 -1715 1510 -1766 
Q 1510 -1805 1459 -1814 
Q 1408 -1824 1370 -1824 
Q 1184 -1824 1059 -1808 
Q 934 -1792 768 -1792 
Q 659 -1792 592 -1798 
Q 525 -1805 454 -1814 
Q 384 -1824 256 -1824 
z
M 1754 109 
Q 1850 109 1987 166 
Q 2125 224 2262 352 
Q 2400 480 2493 697 
Q 2586 915 2586 1235 
Q 2586 1606 2490 1830 
Q 2394 2054 2253 2169 
Q 2112 2285 1965 2323 
Q 1818 2362 1715 2362 
Q 1562 2362 1398 2298 
Q 1235 2234 1123 2154 
Q 1011 2074 1011 2029 
Q 1011 1888 1008 1744 
Q 1005 1600 1001 1465 
Q 998 1331 995 1225 
Q 992 1120 992 1062 
Q 992 806 1110 588 
Q 1229 371 1405 240 
Q 1581 109 1754 109 
z
" transform="scale(0.015625)"/>
       <path id="EBGaramond-Regular-35" d="M 698 -243 
Q 627 -243 544 -227 
Q 461 -211 461 -166 
Q 461 -115 547 -80 
Q 634 -45 691 -45 
Q 1197 -45 1526 137 
Q 1856 320 2019 595 
Q 2182 870 2182 1146 
Q 2182 1395 2035 1587 
Q 1888 1779 1552 1939 
Q 1216 2099 646 2246 
Q 563 2317 528 2387 
Q 493 2458 493 2541 
Q 493 2630 528 2758 
Q 563 2886 614 3030 
Q 666 3174 717 3315 
Q 768 3456 800 3558 
Q 832 3654 896 3708 
Q 960 3763 1062 3789 
Q 1210 3827 1363 3859 
Q 1517 3891 1683 3920 
Q 1850 3949 2026 3971 
Q 2202 3994 2387 4013 
Q 2438 4019 2460 3984 
Q 2483 3949 2458 3904 
Q 2432 3853 2403 3798 
Q 2374 3744 2349 3693 
Q 2304 3597 2249 3549 
Q 2195 3501 2112 3488 
Q 1990 3475 1830 3459 
Q 1670 3443 1510 3427 
Q 1350 3411 1216 3398 
Q 1082 3386 1011 3373 
Q 966 3366 902 3260 
Q 838 3155 787 3036 
Q 736 2918 730 2867 
Q 723 2822 739 2790 
Q 755 2758 813 2746 
Q 1171 2643 1465 2537 
Q 1760 2432 1978 2317 
Q 2336 2131 2512 1878 
Q 2688 1626 2688 1235 
Q 2688 883 2477 576 
Q 2266 269 1907 64 
Q 1734 -32 1542 -99 
Q 1350 -166 1139 -204 
Q 928 -243 698 -243 
z
" transform="scale(0.015625)"/>
       <path id="EBGaramond-Regular-76" d="M 1370 -134 
Q 1344 -134 1305 -35 
Q 1267 64 1254 109 
Q 1210 218 1171 336 
Q 1133 454 1094 557 
Q 954 954 790 1334 
Q 627 1715 474 2106 
Q 429 2221 336 2313 
Q 243 2406 147 2432 
Q 96 2451 64 2470 
Q 32 2490 32 2534 
Q 32 2573 80 2582 
Q 128 2592 160 2592 
Q 288 2592 345 2585 
Q 403 2579 460 2569 
Q 518 2560 627 2560 
Q 742 2560 800 2569 
Q 858 2579 922 2585 
Q 986 2592 1107 2592 
Q 1139 2592 1187 2582 
Q 1235 2573 1235 2534 
Q 1235 2490 1190 2464 
Q 1146 2438 1088 2419 
Q 1024 2394 992 2320 
Q 960 2246 960 2157 
Q 960 2112 966 2067 
Q 973 2022 986 1984 
L 1491 640 
Q 1498 634 1501 634 
Q 1504 634 1510 640 
L 1997 1888 
Q 2022 1952 2035 2025 
Q 2048 2099 2048 2150 
Q 2048 2278 2009 2332 
Q 1971 2387 1882 2419 
Q 1798 2451 1766 2470 
Q 1734 2490 1734 2534 
Q 1734 2573 1776 2582 
Q 1818 2592 1862 2592 
Q 1933 2592 2048 2576 
Q 2163 2560 2330 2560 
Q 2496 2560 2557 2576 
Q 2618 2592 2707 2592 
Q 2758 2592 2796 2582 
Q 2835 2573 2835 2534 
Q 2835 2464 2688 2419 
Q 2592 2394 2477 2272 
Q 2362 2150 2291 1990 
L 1792 787 
Q 1779 762 1740 662 
Q 1702 563 1657 444 
Q 1613 326 1581 240 
Q 1549 154 1549 154 
Q 1549 154 1523 93 
Q 1498 32 1466 -35 
Q 1434 -102 1408 -134 
L 1370 -134 
z
" transform="scale(0.015625)"/>
      </defs>
      <use xlink:href="#EBGaramond-Regular-43"/>
      <use xlink:href="#EBGaramond-Regular-6f" x="70.999985"/>
      <use xlink:href="#EBGaramond-Regular-6d" x="120.499969"/>
      <use xlink:href="#EBGaramond-Regular-70" x="198.299957"/>
      <use xlink:href="#EBGaramond-Regular-61" x="250.199951"/>
      <use xlink:href="#EBGaramond-Regular-72" x="290.099945"/>
      <use xlink:href="#EBGaramond-Regular-69" x="323.499939"/>
      <use xlink:href="#EBGaramond-Regular-73" x="347.999924"/>
      <use xlink:href="#EBGaramond-Regular-6f" x="380.299911"/>
      <use xlink:href="#EBGaramond-Regular-6e" x="429.799896"/>
      <use xlink:href="#EBGaramond-Regular-20" x="482.599884"/>
      <use xlink:href="#EBGaramond-Regular-74" x="502.599869"/>
      <use xlink:href="#EBGaramond-Regular-6f" x="533.999863"/>
      <use xlink:href="#EBGaramond-Regular-20" x="583.499847"/>
      <use xlink:href="#EBGaramond-Regular-35" x="603.499832"/>
      <use xlink:href="#EBGaramond-Regular-30" x="651.499817"/>
      <use xlink:href="#EBGaramond-Regular-2d" x="699.499802"/>
      <use xlink:href="#EBGaramond-Regular-79" x="726.899796"/>
      <use xlink:href="#EBGaramond-Regular-65" x="770.699783"/>
      <use xlink:href="#EBGaramond-Regular-61" x="809.699768"/>
      <use xlink:href="#EBGaramond-Regular-72" x="849.599762"/>
      <use xlink:href="#EBGaramond-Regular-20" x="882.999756"/>
      <use xlink:href="#EBGaramond-Regular-61" x="902.999741"/>
      <use xlink:href="#EBGaramond-Regular-76" x="942.899734"/>
      <use xlink:href="#EBGaramond-Regular-65" x="986.699722"/>
      <use xlink:href="#EBGaramond-Regular-72" x="1025.699707"/>
      <use xlink:href="#EBGaramond-Regular-61" x="1059.099701"/>
      <use xlink:href="#EBGaramond-Regular-67" x="1098.999695"/>
      <use xlink:href="#EBGaramond-Regular-65" x="1142.49968"/>
     </g>
    </g>
    <g id="patch_15">
     <path d="M 41.164609 51.399 
L 63.164609 51.399 
L 63.164609 43.699 
L 41.164609 43.699 
z
" style="fill: #89a996"/>
    </g>
    <g id="text_23">
     <!-- below -->
     <g transform="translate(71.964609 51.399) scale(0.11 -0.11)">
      <defs>
       <path id="EBGaramond-Regular-62" d="M 1658 -90 
Q 1517 -90 1376 -64 
Q 1235 -38 1107 -6 
Q 966 32 860 64 
Q 755 96 723 96 
Q 685 96 649 70 
Q 614 45 582 13 
Q 550 -19 525 -19 
Q 499 -19 467 3 
Q 435 26 435 58 
Q 435 115 457 256 
Q 480 397 480 518 
L 480 3622 
Q 480 3789 397 3910 
Q 314 4032 186 4090 
Q 160 4102 131 4124 
Q 102 4147 102 4186 
Q 102 4218 128 4230 
Q 154 4243 179 4250 
Q 262 4269 406 4320 
Q 550 4371 678 4422 
Q 806 4474 851 4493 
Q 890 4512 909 4512 
Q 922 4512 934 4499 
Q 947 4486 947 4467 
Q 947 4442 937 4253 
Q 928 4064 928 3795 
L 928 2483 
Q 928 2362 941 2320 
Q 954 2278 986 2272 
Q 1184 2438 1446 2544 
Q 1709 2650 1920 2650 
Q 2246 2650 2505 2483 
Q 2765 2317 2918 2032 
Q 3072 1747 3072 1389 
Q 3072 954 2893 618 
Q 2714 282 2397 96 
Q 2080 -90 1658 -90 
z
M 1805 109 
Q 2048 109 2224 259 
Q 2400 410 2496 669 
Q 2592 928 2592 1248 
Q 2592 1498 2499 1760 
Q 2406 2022 2211 2201 
Q 2016 2381 1709 2381 
Q 1453 2381 1261 2297 
Q 1069 2214 928 2086 
L 928 845 
Q 928 621 1053 454 
Q 1178 288 1379 198 
Q 1581 109 1805 109 
z
" transform="scale(0.015625)"/>
      </defs>
      <use xlink:href="#EBGaramond-Regular-62"/>
      <use xlink:href="#EBGaramond-Regular-65" x="51.499985"/>
      <use xlink:href="#EBGaramond-Regular-6c" x="90.499969"/>
      <use xlink:href="#EBGaramond-Regular-6f" x="114.499954"/>
      <use xlink:href="#EBGaramond-Regular-77" x="163.999939"/>
     </g>
    </g>
    <g id="patch_16">
     <path d="M 41.164609 67.789 
L 63.164609 67.789 
L 63.164609 60.089 
L 41.164609 60.089 
z
" style="fill: #093d3e"/>
    </g>
    <g id="text_24">
     <!-- above/equal -->
     <g transform="translate(71.964609 67.789) scale(0.11 -0.11)">
      <defs>
       <path id="EBGaramond-Regular-2f" d="M 237 -397 
Q 173 -397 144 -368 
Q 115 -339 134 -301 
L 2035 4147 
Q 2067 4218 2134 4237 
Q 2202 4256 2285 4256 
Q 2349 4256 2368 4224 
Q 2387 4192 2368 4147 
L 467 -301 
Q 442 -365 374 -381 
Q 307 -397 237 -397 
z
" transform="scale(0.015625)"/>
       <path id="EBGaramond-Regular-71" d="M 2118 -1824 
Q 2086 -1824 2038 -1814 
Q 1990 -1805 1990 -1766 
Q 1990 -1715 2038 -1692 
Q 2086 -1670 2138 -1651 
Q 2234 -1619 2323 -1577 
Q 2413 -1536 2413 -1408 
L 2413 83 
Q 2413 192 2403 233 
Q 2394 275 2374 275 
Q 2362 275 2346 275 
Q 2330 275 2317 262 
Q 2266 218 2138 131 
Q 2010 45 1843 -22 
Q 1677 -90 1504 -90 
Q 1171 -90 880 51 
Q 589 192 406 467 
Q 224 742 224 1139 
Q 224 1594 422 1933 
Q 621 2272 979 2461 
Q 1338 2650 1805 2650 
Q 2022 2650 2201 2614 
Q 2381 2579 2496 2544 
Q 2611 2509 2624 2509 
Q 2694 2509 2726 2553 
Q 2758 2598 2790 2669 
Q 2797 2675 2809 2684 
Q 2822 2694 2835 2694 
Q 2867 2694 2902 2675 
Q 2938 2656 2938 2630 
Q 2938 2566 2899 2364 
Q 2861 2163 2861 1888 
L 2861 -1408 
Q 2861 -1536 2979 -1577 
Q 3098 -1619 3194 -1651 
Q 3245 -1670 3293 -1692 
Q 3341 -1715 3341 -1766 
Q 3341 -1805 3296 -1814 
Q 3251 -1824 3213 -1824 
Q 3021 -1824 2915 -1808 
Q 2810 -1792 2637 -1792 
Q 2528 -1792 2461 -1798 
Q 2394 -1805 2320 -1814 
Q 2246 -1824 2118 -1824 
z
M 1741 250 
Q 1952 250 2144 336 
Q 2336 422 2419 512 
Q 2419 602 2419 781 
Q 2419 960 2419 1165 
Q 2419 1370 2416 1536 
Q 2413 1702 2413 1760 
Q 2406 2048 2185 2246 
Q 1965 2445 1645 2445 
Q 1414 2445 1209 2313 
Q 1005 2182 877 1932 
Q 749 1683 749 1312 
Q 749 992 848 784 
Q 947 576 1100 461 
Q 1254 346 1427 298 
Q 1600 250 1741 250 
z
" transform="scale(0.015625)"/>
      </defs>
      <use xlink:href="#EBGaramond-Regular-61"/>
      <use xlink:href="#EBGaramond-Regular-62" x="39.899994"/>
      <use xlink:href="#EBGaramond-Regular-6f" x="91.399979"/>
      <use xlink:href="#EBGaramond-Regular-76" x="140.899963"/>
      <use xlink:href="#EBGaramond-Regular-65" x="184.699951"/>
      <use xlink:href="#EBGaramond-Regular-2f" x="223.699936"/>
      <use xlink:href="#EBGaramond-Regular-65" x="263.59993"/>
      <use xlink:href="#EBGaramond-Regular-71" x="302.599915"/>
      <use xlink:href="#EBGaramond-Regular-75" x="354.799911"/>
      <use xlink:href="#EBGaramond-Regular-61" x="407.499908"/>
      <use xlink:href="#EBGaramond-Regular-6c" x="447.399902"/>
     </g>
    </g>
   </g>
  </g>
 </g>
 <defs>
  <clipPath id="pd61a3d871b">
   <rect x="9.233" y="38.48" width="502.2" height="277.2"/>
  </clipPath>
 </defs>
</svg>
